<?xml version="1.0" encoding="UTF-8"?>
<svg id="uuid-9e41013a-3753-44bf-b808-2c9710f39305" xmlns="http://www.w3.org/2000/svg" xmlns:xlink="http://www.w3.org/1999/xlink" version="1.1" viewBox="0 0 405.4 490.4">
  <defs>
    <style>
      .cls-1 {
        fill: #221714;
      }

      .cls-1, .cls-2 {
        stroke-width: 0px;
      }

      .cls-2 {
        fill: #434244;
      }

      .cls-3 {
        isolation: isolate;
      }
    </style>
  </defs>
  <image class="cls-3" width="2909" height="3094" transform="translate(66.3 18.3) rotate(-3.6) scale(.1)" xlink:href="stiffener-1.png"/>
  <image class="cls-3" width="512" height="269" transform="translate(150.7 84.8) rotate(-3.5) scale(0)" xlink:href="stiffener-2.png"/>
  <image class="cls-3" width="512" height="269" transform="translate(212.9 217.2) rotate(-3.5) scale(0)" xlink:href="stiffener-3.png"/>
  <image class="cls-3" width="512" height="269" transform="translate(180.5 151) rotate(-3.5) scale(0)" xlink:href="stiffener-4.png"/>
  <image class="cls-3" width="512" height="269" transform="translate(219.6 61.1) rotate(-3.5) scale(0)" xlink:href="stiffener-5.png"/>
  <image class="cls-3" width="512" height="269" transform="translate(282.9 193.2) rotate(-3.5) scale(0)" xlink:href="stiffener-6.png"/>
  <image class="cls-3" width="512" height="269" transform="translate(252 126.8) rotate(-3.5) scale(0)" xlink:href="stiffener-7.png"/>
  <image class="cls-3" width="512" height="269" transform="translate(314.1 258.7) rotate(-3.5) scale(0)" xlink:href="stiffener-8.png"/>
  <path class="cls-2" d="M143.5,51.8l-5.2,1.6c-.6.2-1.1,0-1.4-.6h0c-.3-.6,0-1.4.7-1.6l4.8-1.5,1.1,2.1Z"/>
  <polygon class="cls-2" points="141.7 49.9 146.6 60.1 148.1 59.6 143 49.6 141.7 49.9"/>
  <polygon class="cls-2" points="206.2 28.6 205.4 29.6 209.7 39 210.8 38.5 206.2 28.6"/>
  <polygon class="cls-1" points="210.8 38.5 146.6 60.1 145 56.9 209.3 35.5 210.8 38.5"/>
  <path class="cls-2" d="M206.2,28.6l3.9-1.4c.5-.1,1,.2,1.2.6h0c.2.5,0,1.1-.5,1.4l-3.7,1.4-.9-2h0Z"/>
  <g>
    <path class="cls-2" d="M334.8,299.1l5.2-1.6c.5-.2,1.1.1,1.4.6h0c.3.6,0,1.4-.7,1.6l-4.8,1.5-1.1-2.1h0Z"/>
    <polygon class="cls-2" points="336.6 301 331.7 290.8 330.2 291.3 335.2 301.4 336.6 301"/>
    <polygon class="cls-2" points="272.1 322.4 272.9 321.3 268.5 311.9 267.5 312.5 272.1 322.4"/>
    <polygon class="cls-1" points="267.5 312.5 331.7 290.8 333.3 294.4 269 315.9 267.5 312.5"/>
    <path class="cls-2" d="M272.1,322.4l-3.9,1.4c-.5.1-1-.2-1.2-.6h0c-.2-.5,0-1.1.5-1.4l3.7-1.4.9,2h0Z"/>
  </g>
  <image class="cls-3" width="490" height="512" transform="translate(133.5 187.4) rotate(-3.6) scale(0)" xlink:href="stiffener-9.png"/>
  <image class="cls-3" width="491" height="512" transform="translate(306.5 95.6) rotate(-3.6) scale(0)" xlink:href="stiffener-10.png"/>
  <image class="cls-3" width="491" height="512" transform="translate(347 182) rotate(-3.6) scale(0)" xlink:href="stiffener-11.png"/>
  <image class="cls-3" width="2859" height="2301" transform="translate(.1 250.1) scale(0)" xlink:href="stiffener-12.png"/>
</svg>