{
  "accessors": [
    {
      "bufferView": 0,
      "componentType": 5125,
      "count": 21600,
      "type": "SCALAR"
    },
    {
      "bufferView": 1,
      "componentType": 5126,
      "count": 5978,
      "max": [
        0.35274247172198425,
        0.3527424717219838,
        0.009999999747378752
      ],
      "min": [
        -0.3527424717219838,
        -0.3527424717219838,
        -0.009999999747378752
      ],
      "type": "VEC3"
    },
    {
      "bufferView": 2,
      "componentType": 5126,
      "count": 5978,
      "max": [
        1.0,
        1.0,
        1.0
      ],
      "min": [
        -1.0,
        -1.0,
        -1.0
      ],
      "type": "VEC3"
    },
    {
      "bufferView": 3,
      "componentType": 5126,
      "count": 5978,
      "max": [
        0.9912397529396014,
        1.0
      ],
      "min": [
        0.0,
        0.0
      ],
      "type": "VEC2"
    }
  ],
  "asset": {
    "generator": "Adobe Illustrator",
    "version": "2.0"
  },
  "bufferViews": [
    {
      "buffer": 0,
      "byteLength": 86400,
      "target": 34963
    },
    {
      "buffer": 0,
      "byteLength": 71736,
      "byteOffset": 86400,
      "target": 34962
    },
    {
      "buffer": 0,
      "byteLength": 71736,
      "byteOffset": 158136,
      "target": 34962
    },
    {
      "buffer": 0,
      "byteLength": 47824,
      "byteOffset": 229872,
      "target": 34962
    }
  ],
  "buffers": [
    {
      "byteLength": 277696,
      "uri": "data:application/octet-stream;base64,"
    }
  ],
  "materials": [
    {
      "doubleSided": true,
      "pbrMetallicRoughness": {
        "baseColorFactor": [
          0.640625,
          0.640625,
          0.640625,
          1.0
        ],
        "metallicFactor": 0.0,
        "roughnessFactor": 0.4000000059604645
      }
    }
  ],
  "meshes": [
    {
      "primitives": [
        {
          "attributes": {
            "NORMAL": 2,
            "POSITION": 1,
            "TEXCOORD_0": 3
          },
          "indices": 0,
          "material": 0,
          "mode": 4
        }
      ]
    }
  ],
  "nodes": [
    {
      "mesh": 0
    }
  ],
  "scenes": [
    {
      "nodes": [
        0
      ]
    }
  ]
}
