{
  "accessors": [
    {
      "bufferView": 0,
      "componentType": 5125,
      "count": 22236,
      "type": "SCALAR"
    },
    {
      "bufferView": 1,
      "componentType": 5126,
      "count": 6156,
      "max": [
        0.3015286057351242,
        0.3015287034606544,
        0.009999999747378753
      ],
      "min": [
        -0.3015286057351245,
        -0.3015287034606544,
        -0.009999999747378753
      ],
      "type": "VEC3"
    },
    {
      "bufferView": 2,
      "componentType": 5126,
      "count": 6156,
      "max": [
        1.0,
        1.0,
        1.0
      ],
      "min": [
        -1.0,
        -1.0,
        -1.0
      ],
      "type": "VEC3"
    },
    {
      "bufferView": 3,
      "componentType": 5126,
      "count": 6156,
      "max": [
        1.0,
        0.8141088873612791
      ],
      "min": [
        0.0,
        0.0
      ],
      "type": "VEC2"
    }
  ],
  "asset": {
    "generator": "Adobe Illustrator",
    "version": "2.0"
  },
  "bufferViews": [
    {
      "buffer": 0,
      "byteLength": 88944,
      "target": 34963
    },
    {
      "buffer": 0,
      "byteLength": 73872,
      "byteOffset": 88944,
      "target": 34962
    },
    {
      "buffer": 0,
      "byteLength": 73872,
      "byteOffset": 162816,
      "target": 34962
    },
    {
      "buffer": 0,
      "byteLength": 49248,
      "byteOffset": 236688,
      "target": 34962
    }
  ],
  "buffers": [
    {
      "byteLength": 285936,
      "uri": "data:application/octet-stream;base64,"
    }
  ],
  "materials": [
    {
      "doubleSided": true,
      "pbrMetallicRoughness": {
        "baseColorFactor": [
          0.640625,
          0.640625,
          0.640625,
          1.0
        ],
        "metallicFactor": 0.0,
        "roughnessFactor": 0.4000000059604645
      }
    }
  ],
  "meshes": [
    {
      "primitives": [
        {
          "attributes": {
            "NORMAL": 2,
            "POSITION": 1,
            "TEXCOORD_0": 3
          },
          "indices": 0,
          "material": 0,
          "mode": 4
        }
      ]
    }
  ],
  "nodes": [
    {
      "mesh": 0
    }
  ],
  "scenes": [
    {
      "nodes": [
        0
      ]
    }
  ]
}
