{
  "accessors": [
    {
      "bufferView": 0,
      "componentType": 5125,
      "count": 20034,
      "type": "SCALAR"
    },
    {
      "bufferView": 1,
      "componentType": 5126,
      "count": 5553,
      "max": [
        0.3055219772874164,
        0.2918521410293806,
        0.009999999747378748
      ],
      "min": [
        -0.3055219772874165,
        -0.2918521410293802,
        -0.009999999747378748
      ],
      "type": "VEC3"
    },
    {
      "bufferView": 2,
      "componentType": 5126,
      "count": 5553,
      "max": [
        1.0,
        1.0,
        1.0
      ],
      "min": [
        -1.0,
        -1.0,
        -1.0
      ],
      "type": "VEC3"
    },
    {
      "bufferView": 3,
      "componentType": 5126,
      "count": 5553,
      "max": [
        1.0,
        0.9857674273571724
      ],
      "min": [
        0.0,
        0.0
      ],
      "type": "VEC2"
    }
  ],
  "asset": {
    "generator": "Adobe Illustrator",
    "version": "2.0"
  },
  "bufferViews": [
    {
      "buffer": 0,
      "byteLength": 80136,
      "target": 34963
    },
    {
      "buffer": 0,
      "byteLength": 66636,
      "byteOffset": 80136,
      "target": 34962
    },
    {
      "buffer": 0,
      "byteLength": 66636,
      "byteOffset": 146772,
      "target": 34962
    },
    {
      "buffer": 0,
      "byteLength": 44424,
      "byteOffset": 213408,
      "target": 34962
    }
  ],
  "buffers": [
    {
      "byteLength": 257832,
      "uri": "data:application/octet-stream;base64,"
    }
  ],
  "materials": [
    {
      "doubleSided": true,
      "pbrMetallicRoughness": {
        "baseColorFactor": [
          0.81640625,
          0.81640625,
          0.81640625,
          1.0
        ],
        "metallicFactor": 0.0,
        "roughnessFactor": 0.4000000059604645
      }
    }
  ],
  "meshes": [
    {
      "primitives": [
        {
          "attributes": {
            "NORMAL": 2,
            "POSITION": 1,
            "TEXCOORD_0": 3
          },
          "indices": 0,
          "material": 0,
          "mode": 4
        }
      ]
    }
  ],
  "nodes": [
    {
      "mesh": 0
    }
  ],
  "scenes": [
    {
      "nodes": [
        0
      ]
    }
  ]
}
