{
  "accessors": [
    {
      "bufferView": 0,
      "componentType": 5125,
      "count": 3000,
      "type": "SCALAR"
    },
    {
      "bufferView": 1,
      "componentType": 5126,
      "count": 1008,
      "max": [
        -0.0025141632435605743,
        -0.0025102117289113046,
        0.0028346426571101827
      ],
      "min": [
        -0.07836923946468444,
        -0.07836548328546966,
        -0.0028346485382541435
      ],
      "type": "VEC3"
    },
    {
      "bufferView": 2,
      "componentType": 5126,
      "count": 1008,
      "max": [
        0.9999999999999993,
        0.9999999999999993,
        1.0
      ],
      "min": [
        -0.9999999999999993,
        -0.9999999999999993,
        -1.0
      ],
      "type": "VEC3"
    },
    {
      "bufferView": 3,
      "componentType": 5126,
      "count": 1008,
      "max": [
        1.0,
        0.9654451319647243
      ],
      "min": [
        0.0,
        0.0
      ],
      "type": "VEC2"
    },
    {
      "bufferView": 4,
      "componentType": 5125,
      "count": 3000,
      "type": "SCALAR"
    },
    {
      "bufferView": 5,
      "componentType": 5126,
      "count": 1008,
      "max": [
        -0.0025141632435605743,
        0.07836556747799417,
        0.0028346426571101827
      ],
      "min": [
        -0.07836923946468488,
        0.0025102959214358123,
        -0.0028346485382541435
      ],
      "type": "VEC3"
    },
    {
      "bufferView": 6,
      "componentType": 5126,
      "count": 1008,
      "max": [
        0.9999999999999993,
        0.9999999999999993,
        1.0
      ],
      "min": [
        -0.9999999999999993,
        -0.9999999999999993,
        -1.0
      ],
      "type": "VEC3"
    },
    {
      "bufferView": 7,
      "componentType": 5126,
      "count": 1008,
      "max": [
        1.0,
        0.9654451319647243
      ],
      "min": [
        0.0,
        0.0
      ],
      "type": "VEC2"
    },
    {
      "bufferView": 8,
      "componentType": 5125,
      "count": 3000,
      "type": "SCALAR"
    },
    {
      "bufferView": 9,
      "componentType": 5126,
      "count": 1008,
      "max": [
        0.07836923946468533,
        -0.0025101266664830924,
        0.0028346485382541435
      ],
      "min": [
        0.002513993988576768,
        -0.07836556747799328,
        -0.0028346485382541435
      ],
      "type": "VEC3"
    },
    {
      "bufferView": 10,
      "componentType": 5126,
      "count": 1008,
      "max": [
        0.9999999999992866,
        0.9999999999992866,
        1.0
      ],
      "min": [
        -0.9999999999992866,
        -0.9999999999992866,
        -1.0
      ],
      "type": "VEC3"
    },
    {
      "bufferView": 11,
      "componentType": 5126,
      "count": 1008,
      "max": [
        1.0,
        0.9654451319647243
      ],
      "min": [
        0.0,
        0.0
      ],
      "type": "VEC2"
    },
    {
      "bufferView": 12,
      "componentType": 5125,
      "count": 3000,
      "type": "SCALAR"
    },
    {
      "bufferView": 13,
      "componentType": 5126,
      "count": 1008,
      "max": [
        0.07836923312679911,
        0.07836556744266998,
        0.002834642657110188
      ],
      "min": [
        0.002513961640887352,
        0.002510295956758668,
        -0.0028346485382541435
      ],
      "type": "VEC3"
    },
    {
      "bufferView": 14,
      "componentType": 5126,
      "count": 1008,
      "max": [
        1.0,
        1.0,
        1.0
      ],
      "min": [
        -1.0,
        -1.0,
        -1.0
      ],
      "type": "VEC3"
    },
    {
      "bufferView": 15,
      "componentType": 5126,
      "count": 1008,
      "max": [
        1.0,
        0.9654445355511304
      ],
      "min": [
        0.0,
        0.0
      ],
      "type": "VEC2"
    }
  ],
  "asset": {
    "generator": "Adobe Illustrator",
    "version": "2.0"
  },
  "bufferViews": [
    {
      "buffer": 0,
      "byteLength": 12000,
      "target": 34963
    },
    {
      "buffer": 0,
      "byteLength": 12096,
      "byteOffset": 12000,
      "target": 34962
    },
    {
      "buffer": 0,
      "byteLength": 12096,
      "byteOffset": 24096,
      "target": 34962
    },
    {
      "buffer": 0,
      "byteLength": 8064,
      "byteOffset": 36192,
      "target": 34962
    },
    {
      "buffer": 0,
      "byteLength": 12000,
      "byteOffset": 44256,
      "target": 34963
    },
    {
      "buffer": 0,
      "byteLength": 12096,
      "byteOffset": 56256,
      "target": 34962
    },
    {
      "buffer": 0,
      "byteLength": 12096,
      "byteOffset": 68352,
      "target": 34962
    },
    {
      "buffer": 0,
      "byteLength": 8064,
      "byteOffset": 80448,
      "target": 34962
    },
    {
      "buffer": 0,
      "byteLength": 12000,
      "byteOffset": 88512,
      "target": 34963
    },
    {
      "buffer": 0,
      "byteLength": 12096,
      "byteOffset": 100512,
      "target": 34962
    },
    {
      "buffer": 0,
      "byteLength": 12096,
      "byteOffset": 112608,
      "target": 34962
    },
    {
      "buffer": 0,
      "byteLength": 8064,
      "byteOffset": 124704,
      "target": 34962
    },
    {
      "buffer": 0,
      "byteLength": 12000,
      "byteOffset": 132768,
      "target": 34963
    },
    {
      "buffer": 0,
      "byteLength": 12096,
      "byteOffset": 144768,
      "target": 34962
    },
    {
      "buffer": 0,
      "byteLength": 12096,
      "byteOffset": 156864,
      "target": 34962
    },
    {
      "buffer": 0,
      "byteLength": 8064,
      "byteOffset": 168960,
      "target": 34962
    }
  ],
  "buffers": [
    {
      "byteLength": 177024,
      "uri": "data:application/octet-stream;base64,"
    }
  ],
  "materials": [
    {
      "doubleSided": true,
      "pbrMetallicRoughness": {
        "baseColorFactor": [
          0.640625,
          0.640625,
          0.640625,
          1.0
        ],
        "metallicFactor": 0.0,
        "roughnessFactor": 0.4000000059604645
      }
    },
    {
      "doubleSided": true,
      "pbrMetallicRoughness": {
        "baseColorFactor": [
          0.640625,
          0.640625,
          0.640625,
          1.0
        ],
        "metallicFactor": 0.0,
        "roughnessFactor": 0.4000000059604645
      }
    },
    {
      "doubleSided": true,
      "pbrMetallicRoughness": {
        "baseColorFactor": [
          0.640625,
          0.640625,
          0.640625,
          1.0
        ],
        "metallicFactor": 0.0,
        "roughnessFactor": 0.4000000059604645
      }
    },
    {
      "doubleSided": true,
      "pbrMetallicRoughness": {
        "baseColorFactor": [
          0.640625,
          0.640625,
          0.640625,
          1.0
        ],
        "metallicFactor": 0.0,
        "roughnessFactor": 0.4000000059604645
      }
    }
  ],
  "meshes": [
    {
      "primitives": [
        {
          "attributes": {
            "NORMAL": 2,
            "POSITION": 1,
            "TEXCOORD_0": 3
          },
          "indices": 0,
          "material": 0,
          "mode": 4
        }
      ]
    },
    {
      "primitives": [
        {
          "attributes": {
            "NORMAL": 6,
            "POSITION": 5,
            "TEXCOORD_0": 7
          },
          "indices": 4,
          "material": 1,
          "mode": 4
        }
      ]
    },
    {
      "primitives": [
        {
          "attributes": {
            "NORMAL": 10,
            "POSITION": 9,
            "TEXCOORD_0": 11
          },
          "indices": 8,
          "material": 2,
          "mode": 4
        }
      ]
    },
    {
      "primitives": [
        {
          "attributes": {
            "NORMAL": 14,
            "POSITION": 13,
            "TEXCOORD_0": 15
          },
          "indices": 12,
          "material": 3,
          "mode": 4
        }
      ]
    }
  ],
  "nodes": [
    {
      "mesh": 0
    },
    {
      "mesh": 1
    },
    {
      "mesh": 2
    },
    {
      "mesh": 3
    }
  ],
  "scenes": [
    {
      "nodes": [
        0,
        1,
        2,
        3
      ]
    }
  ]
}
