{
  "accessors": [
    {
      "bufferView": 0,
      "componentType": 5125,
      "count": 22188,
      "type": "SCALAR"
    },
    {
      "bufferView": 1,
      "componentType": 5126,
      "count": 6148,
      "max": [
        0.20232327360326374,
        0.20232323704818667,
        0.009999999747378752
      ],
      "min": [
        -0.20232327360326374,
        -0.20232323704818667,
        -0.009999999747378752
      ],
      "type": "VEC3"
    },
    {
      "bufferView": 2,
      "componentType": 5126,
      "count": 6148,
      "max": [
        1.0,
        1.0,
        1.0
      ],
      "min": [
        -1.0,
        -1.0,
        -1.0
      ],
      "type": "VEC3"
    },
    {
      "bufferView": 3,
      "componentType": 5126,
      "count": 6148,
      "max": [
        1.0,
        0.8432868186927132
      ],
      "min": [
        0.0,
        0.0
      ],
      "type": "VEC2"
    }
  ],
  "asset": {
    "generator": "Adobe Illustrator",
    "version": "2.0"
  },
  "bufferViews": [
    {
      "buffer": 0,
      "byteLength": 88752,
      "target": 34963
    },
    {
      "buffer": 0,
      "byteLength": 73776,
      "byteOffset": 88752,
      "target": 34962
    },
    {
      "buffer": 0,
      "byteLength": 73776,
      "byteOffset": 162528,
      "target": 34962
    },
    {
      "buffer": 0,
      "byteLength": 49184,
      "byteOffset": 236304,
      "target": 34962
    }
  ],
  "buffers": [
    {
      "byteLength": 285488,
      "uri": "data:application/octet-stream;base64,"
    }
  ],
  "materials": [
    {
      "doubleSided": true,
      "pbrMetallicRoughness": {
        "baseColorFactor": [
          0.87109375,
          0.84375,
          0.73046875,
          1.0
        ],
        "metallicFactor": 0.0,
        "roughnessFactor": 0.4000000059604645
      }
    }
  ],
  "meshes": [
    {
      "primitives": [
        {
          "attributes": {
            "NORMAL": 2,
            "POSITION": 1,
            "TEXCOORD_0": 3
          },
          "indices": 0,
          "material": 0,
          "mode": 4
        }
      ]
    }
  ],
  "nodes": [
    {
      "mesh": 0
    }
  ],
  "scenes": [
    {
      "nodes": [
        0
      ]
    }
  ]
}
