{
  "accessors": [
    {
      "bufferView": 0,
      "componentType": 5125,
      "count": 7104,
      "type": "SCALAR"
    },
    {
      "bufferView": 1,
      "componentType": 5126,
      "count": 1982,
      "max": [
        0.24625692748744898,
        0.24625682978663388,
        0.003999999898951501
      ],
      "min": [
        -0.24625692748744887,
        -0.24625682978663432,
        -0.003999999898951501
      ],
      "type": "VEC3"
    },
    {
      "bufferView": 2,
      "componentType": 5126,
      "count": 1982,
      "max": [
        1.0,
        1.0,
        1.0
      ],
      "min": [
        -1.0,
        -1.0,
        -1.0
      ],
      "type": "VEC3"
    },
    {
      "bufferView": 3,
      "componentType": 5126,
      "count": 1982,
      "max": [
        1.0,
        0.7382615304114217
      ],
      "min": [
        0.0,
        0.0
      ],
      "type": "VEC2"
    }
  ],
  "asset": {
    "generator": "Adobe Illustrator",
    "version": "2.0"
  },
  "bufferViews": [
    {
      "buffer": 0,
      "byteLength": 28416,
      "target": 34963
    },
    {
      "buffer": 0,
      "byteLength": 23784,
      "byteOffset": 28416,
      "target": 34962
    },
    {
      "buffer": 0,
      "byteLength": 23784,
      "byteOffset": 52200,
      "target": 34962
    },
    {
      "buffer": 0,
      "byteLength": 15856,
      "byteOffset": 75984,
      "target": 34962
    }
  ],
  "buffers": [
    {
      "byteLength": 91840,
      "uri": "data:application/octet-stream;base64,"
    }
  ],
  "materials": [
    {
      "doubleSided": true,
      "pbrMetallicRoughness": {
        "baseColorFactor": [
          0.41796875,
          0.41796875,
          0.41796875,
          1.0
        ],
        "metallicFactor": 0.0,
        "roughnessFactor": 0.4000000059604645
      }
    }
  ],
  "meshes": [
    {
      "primitives": [
        {
          "attributes": {
            "NORMAL": 2,
            "POSITION": 1,
            "TEXCOORD_0": 3
          },
          "indices": 0,
          "material": 0,
          "mode": 4
        }
      ]
    }
  ],
  "nodes": [
    {
      "mesh": 0
    }
  ],
  "scenes": [
    {
      "nodes": [
        0
      ]
    }
  ]
}
