<?xml version="1.0" encoding="UTF-8"?>
<svg id="uuid-db5ea552-13d9-4c9e-852d-d6bf4f4160a4" xmlns="http://www.w3.org/2000/svg" xmlns:xlink="http://www.w3.org/1999/xlink" version="1.1" viewBox="0 0 329.1 558.5">
  <defs>
    <style>
      .cls-1 {
        stroke-width: .4px;
      }

      .cls-1, .cls-2 {
        fill: #d8d8d8;
        stroke: #1f2020;
      }

      .cls-1, .cls-2, .cls-3 {
        stroke-miterlimit: 10;
      }

      .cls-4 {
        fill: url(#_무제_그라디언트);
        isolation: isolate;
        opacity: .3;
      }

      .cls-4, .cls-5 {
        stroke-width: 0px;
      }

      .cls-5 {
        fill: #2784bf;
      }

      .cls-2 {
        stroke-width: .3px;
      }

      .cls-3 {
        fill: #fff;
        stroke: #767d86;
        stroke-width: 1.1px;
      }
    </style>
    <linearGradient id="_무제_그라디언트" data-name="무제 그라디언트" x1="164.3" y1="-279.7" x2="164.3" y2="-16.4" gradientTransform="translate(0 94) scale(1 -1)" gradientUnits="userSpaceOnUse">
      <stop offset="0" stop-color="#767d86" stop-opacity=".5"/>
      <stop offset=".2" stop-color="#000" stop-opacity=".3"/>
      <stop offset=".5" stop-color="#000" stop-opacity=".1"/>
      <stop offset=".8" stop-color="#000" stop-opacity="0"/>
      <stop offset="1" stop-color="#fff" stop-opacity="0"/>
    </linearGradient>
  </defs>
  <g id="uuid-b8fcdd44-7359-4d83-8f22-4aeb48348cb5">
    <g>
      <polygon class="cls-4" points="328.3 412.9 .4 412.9 110 106.3 194 106 328.3 412.9"/>
      <rect class="cls-3" x=".6" y="373.5" width="328" height="184.4" rx="26.6" ry="26.6"/>
      <polygon class="cls-5" points="95.1 502.8 95.1 495.2 28.1 495.2 28.1 523.3 95.1 523.3 95.1 502.8"/>
      <polygon class="cls-5" points="302.6 502.8 302.6 495.2 235.6 495.2 235.6 523.3 302.6 523.3 302.6 502.8"/>
      <polygon class="cls-5" points="199.4 502.8 199.4 495.2 132.4 495.2 132.4 523.3 199.4 523.3 199.4 502.8"/>
      <rect class="cls-1" x="32.1" y="396.6" width="267" height="10.1"/>
      <polygon class="cls-2" points="302.1 523.2 28.1 523.2 28.1 530.2 47.3 530.1 47.3 537.1 282.9 537.1 282.9 530.1 302.1 530.1 302.1 523.2"/>
    </g>
  </g>
</svg>