<?xml version="1.0" encoding="UTF-8"?>
<svg id="uuid-b6780f5f-3fab-4756-92b9-15e5c7365dba" data-name="레이어 2" xmlns="http://www.w3.org/2000/svg" viewBox="0 0 155.51 270.78">
  <defs>
    <style>
      .uuid-a4b588e8-18a3-4130-9893-ce976ff811fb {
        fill: #9fa0a0;
        stroke-width: 0px;
      }

      .uuid-bc8d44e3-ba69-41d2-b31f-776bb8dddfca, .uuid-c936924a-1681-49fc-a363-20c021690960 {
        fill: none;
        stroke: #9fa0a0;
        stroke-miterlimit: 10;
        stroke-width: .7px;
      }

      .uuid-c936924a-1681-49fc-a363-20c021690960 {
        opacity: .99;
      }
    </style>
  </defs>
  <g id="uuid-52cc3e08-c93c-4c42-a2ef-2971ad8e8571" data-name="레이어 1">
    <g>
      <path class="uuid-bc8d44e3-ba69-41d2-b31f-776bb8dddfca" d="M.35,261.2v7.98c65.84-9,116.56-65.46,116.56-133.76v-.21c-.01-3.96-.18-7.89-.52-11.76-.35-3.95-.87-7.84-1.55-11.68-.68-3.89-1.53-7.72-2.55-11.49-1.02-3.81-2.21-7.56-3.55-11.23-1.35-3.7-2.87-7.33-4.53-10.88-1.67-3.56-3.49-7.04-5.46-10.42-1.97-3.4-4.08-6.71-6.34-9.91-2.26-3.21-4.65-6.32-7.18-9.32-2.52-3-5.18-5.9-7.96-8.67s-5.67-5.42-8.68-7.94c-3-2.52-6.12-4.91-9.34-7.16-3.21-2.25-6.52-4.36-9.92-6.32-3.39-1.96-6.87-3.78-10.44-5.44-3.54-1.65-7.17-3.15-10.87-4.5-3.67-1.33-7.41-2.51-11.22-3.52h-.01c-3.77-1.01-7.58-1.86-11.47-2.53-1.65-.29-3.3-.55-4.97-.78v7.97"/>
      <path class="uuid-c936924a-1681-49fc-a363-20c021690960" d="M.35,9.63c61.4,8.93,108.57,61.74,108.67,125.58v.21c0,3.66-.15,7.29-.46,10.87-.31,3.72-.79,7.39-1.42,11.01-.63,3.67-1.43,7.28-2.37,10.84-.96,3.59-2.06,7.13-3.32,10.59-1.27,3.49-2.68,6.92-4.24,10.26-1.56,3.37-3.27,6.65-5.11,9.84-1.86,3.22-3.85,6.34-5.97,9.37-2.12,3.04-4.37,5.97-6.75,8.8-2.37,2.84-4.87,5.58-7.49,8.2s-5.34,5.13-8.18,7.51c-2.83,2.38-5.77,4.64-8.8,6.78-3.03,2.12-6.15,4.12-9.36,5.98-3.19,1.85-6.48,3.57-9.84,5.15-3.34,1.56-6.76,2.98-10.25,4.25-3.47,1.26-7,2.38-10.6,3.35-3.56.95-7.17,1.75-10.84,2.39h0c-1.21.22-2.44.41-3.66.59"/>
      <polyline class="uuid-bc8d44e3-ba69-41d2-b31f-776bb8dddfca" points="155.51 270.43 134.88 270.43 .35 270.43"/>
      <polyline class="uuid-bc8d44e3-ba69-41d2-b31f-776bb8dddfca" points="155.51 .41 134.88 .41 .35 .41"/>
      <g>
        <line class="uuid-bc8d44e3-ba69-41d2-b31f-776bb8dddfca" x1="134.88" y1="5.02" x2="134.88" y2="265.41"/>
        <polygon class="uuid-a4b588e8-18a3-4130-9893-ce976ff811fb" points="131.39 6.04 134.88 0 138.37 6.04 131.39 6.04"/>
        <polygon class="uuid-a4b588e8-18a3-4130-9893-ce976ff811fb" points="131.39 264.38 134.88 270.43 138.37 264.38 131.39 264.38"/>
      </g>
      <g>
        <line class="uuid-bc8d44e3-ba69-41d2-b31f-776bb8dddfca" x1="3.98" y1="260.41" x2="5.35" y2="268.17"/>
        <line class="uuid-bc8d44e3-ba69-41d2-b31f-776bb8dddfca" x1="14.81" y1="258.02" x2="16.84" y2="265.62"/>
        <line class="uuid-bc8d44e3-ba69-41d2-b31f-776bb8dddfca" x1="25.39" y1="254.69" x2="28.08" y2="262.08"/>
        <line class="uuid-bc8d44e3-ba69-41d2-b31f-776bb8dddfca" x1="35.63" y1="250.44" x2="38.96" y2="257.57"/>
        <line class="uuid-bc8d44e3-ba69-41d2-b31f-776bb8dddfca" x1="45.46" y1="245.31" x2="49.41" y2="252.13"/>
        <line class="uuid-bc8d44e3-ba69-41d2-b31f-776bb8dddfca" x1="54.81" y1="239.35" x2="59.34" y2="245.81"/>
        <line class="uuid-bc8d44e3-ba69-41d2-b31f-776bb8dddfca" x1="63.61" y1="232.59" x2="68.69" y2="238.63"/>
        <line class="uuid-bc8d44e3-ba69-41d2-b31f-776bb8dddfca" x1="71.79" y1="225.09" x2="77.37" y2="230.68"/>
        <line class="uuid-bc8d44e3-ba69-41d2-b31f-776bb8dddfca" x1="79.28" y1="216.92" x2="85.33" y2="221.99"/>
        <line class="uuid-bc8d44e3-ba69-41d2-b31f-776bb8dddfca" x1="86.03" y1="208.13" x2="92.49" y2="212.65"/>
        <line class="uuid-bc8d44e3-ba69-41d2-b31f-776bb8dddfca" x1="92.01" y1="198.78" x2="98.83" y2="202.72"/>
        <line class="uuid-bc8d44e3-ba69-41d2-b31f-776bb8dddfca" x1="97.13" y1="188.94" x2="104.26" y2="192.27"/>
        <line class="uuid-bc8d44e3-ba69-41d2-b31f-776bb8dddfca" x1="101.38" y1="178.69" x2="108.77" y2="181.39"/>
        <line class="uuid-bc8d44e3-ba69-41d2-b31f-776bb8dddfca" x1="104.71" y1="168.12" x2="112.31" y2="170.16"/>
        <line class="uuid-bc8d44e3-ba69-41d2-b31f-776bb8dddfca" x1="107.1" y1="157.28" x2="114.86" y2="158.65"/>
        <line class="uuid-bc8d44e3-ba69-41d2-b31f-776bb8dddfca" x1="108.54" y1="146.29" x2="116.4" y2="146.98"/>
        <line class="uuid-bc8d44e3-ba69-41d2-b31f-776bb8dddfca" x1="109.02" y1="135.21" x2="116.92" y2="135.21"/>
        <line class="uuid-bc8d44e3-ba69-41d2-b31f-776bb8dddfca" x1="108.54" y1="124.13" x2="116.4" y2="123.45"/>
        <line class="uuid-bc8d44e3-ba69-41d2-b31f-776bb8dddfca" x1="107.1" y1="113.13" x2="114.86" y2="111.76"/>
        <line class="uuid-bc8d44e3-ba69-41d2-b31f-776bb8dddfca" x1="104.71" y1="102.3" x2="112.31" y2="100.27"/>
        <line class="uuid-bc8d44e3-ba69-41d2-b31f-776bb8dddfca" x1="101.38" y1="91.72" x2="108.77" y2="89.04"/>
        <line class="uuid-bc8d44e3-ba69-41d2-b31f-776bb8dddfca" x1="97.13" y1="81.48" x2="104.26" y2="78.15"/>
        <line class="uuid-bc8d44e3-ba69-41d2-b31f-776bb8dddfca" x1="92.01" y1="71.65" x2="98.83" y2="67.7"/>
        <line class="uuid-bc8d44e3-ba69-41d2-b31f-776bb8dddfca" x1="86.03" y1="62.29" x2="92.49" y2="57.77"/>
        <line class="uuid-bc8d44e3-ba69-41d2-b31f-776bb8dddfca" x1="79.28" y1="53.5" x2="85.33" y2="48.42"/>
        <line class="uuid-bc8d44e3-ba69-41d2-b31f-776bb8dddfca" x1="71.79" y1="45.33" x2="77.37" y2="39.74"/>
        <polyline class="uuid-bc8d44e3-ba69-41d2-b31f-776bb8dddfca" points="63.61 37.84 63.61 37.83 68.69 31.78"/>
        <line class="uuid-bc8d44e3-ba69-41d2-b31f-776bb8dddfca" x1="54.82" y1="31.08" x2="59.34" y2="24.62"/>
        <line class="uuid-bc8d44e3-ba69-41d2-b31f-776bb8dddfca" x1="45.46" y1="25.1" x2="49.41" y2="18.29"/>
        <line class="uuid-bc8d44e3-ba69-41d2-b31f-776bb8dddfca" x1="35.63" y1="19.98" x2="38.96" y2="12.85"/>
        <line class="uuid-bc8d44e3-ba69-41d2-b31f-776bb8dddfca" x1="25.39" y1="15.73" x2="28.08" y2="8.34"/>
        <line class="uuid-bc8d44e3-ba69-41d2-b31f-776bb8dddfca" x1="14.81" y1="12.4" x2="16.84" y2="4.8"/>
        <line class="uuid-bc8d44e3-ba69-41d2-b31f-776bb8dddfca" x1="3.98" y1="10.01" x2="5.35" y2="2.25"/>
        <line class="uuid-bc8d44e3-ba69-41d2-b31f-776bb8dddfca" x1="109.02" y1="135.21" x2="116.92" y2="135.21"/>
      </g>
      <rect class="uuid-bc8d44e3-ba69-41d2-b31f-776bb8dddfca" x=".35" y="89.17" width="14.01" height="109.49"/>
      <line class="uuid-bc8d44e3-ba69-41d2-b31f-776bb8dddfca" x1="14.36" y1="89.17" x2="53.01" y2="89.17"/>
      <line class="uuid-bc8d44e3-ba69-41d2-b31f-776bb8dddfca" x1="14.36" y1="198.66" x2="53.01" y2="198.66"/>
      <g>
        <line class="uuid-bc8d44e3-ba69-41d2-b31f-776bb8dddfca" x1="37.35" y1="94.19" x2="37.35" y2="193.64"/>
        <polygon class="uuid-a4b588e8-18a3-4130-9893-ce976ff811fb" points="33.85 95.21 37.35 89.17 40.84 95.21 33.85 95.21"/>
        <polygon class="uuid-a4b588e8-18a3-4130-9893-ce976ff811fb" points="33.85 192.62 37.35 198.66 40.84 192.62 33.85 192.62"/>
      </g>
    </g>
  </g>
</svg>