<?xml version="1.0" encoding="UTF-8"?>
<svg id="uuid-4276f2e3-9905-4846-af89-a4c0a578c79a" data-name="레이어 2" xmlns="http://www.w3.org/2000/svg" viewBox="0 0 30 30">
  <defs>
    <style>
      .uuid-cb0620ca-da2f-4373-a451-d89878172385 {
        fill: #f46;
        stroke-width: 0px;
      }
    </style>
  </defs>
  <g id="uuid-1d8a96a5-1db0-4779-aa7b-ca98d4cda195" data-name="레이어 1">
    <path class="uuid-cb0620ca-da2f-4373-a451-d89878172385" d="M15,2c7.17,0,13,5.83,13,13s-5.83,13-13,13S2,22.17,2,15,7.83,2,15,2M15,0C6.72,0,0,6.72,0,15s6.72,15,15,15,15-6.72,15-15S23.28,0,15,0h0Z"/>
    <path class="uuid-cb0620ca-da2f-4373-a451-d89878172385" d="M14.94,20.27c.84,0,1.54.7,1.55,1.55-.01.85-.71,1.54-1.55,1.55-.85-.01-1.56-.7-1.55-1.55-.01-.85.7-1.55,1.55-1.55ZM16.01,18.65h-2.17l-.2-11.27h2.56l-.2,11.27Z"/>
  </g>
</svg>