<?xml version="1.0" encoding="UTF-8"?>
<svg id="uuid-e48b6b87-ae2e-4c7f-9b21-d595533874cc" data-name="레이어 2" xmlns="http://www.w3.org/2000/svg" viewBox="0 0 82.07 135.51">
  <defs>
    <style>
      .uuid-eb65230c-427d-4bbc-b7aa-1865e3f57ea9 {
        fill: #333;
      }

      .uuid-eb65230c-427d-4bbc-b7aa-1865e3f57ea9, .uuid-02f8e4ad-089c-414d-8425-604960a156e8 {
        stroke-width: 0px;
      }

      .uuid-a16e727b-e8b1-4be8-8219-ef159a1f70ef {
        fill: #000;
        font-family: Pretendard-Medium-KSCpc-EUC-H, Pretendard;
        font-size: 11px;
        font-weight: 500;
      }

      .uuid-47eec896-d645-48e3-8a39-b681912090d5 {
        letter-spacing: -.02em;
      }

      .uuid-02f8e4ad-089c-414d-8425-604960a156e8 {
        fill: #004d91;
      }

      .uuid-e6683df0-fd78-450b-8b00-9d854cebb68e {
        stroke-width: 7.07px;
      }

      .uuid-e6683df0-fd78-450b-8b00-9d854cebb68e, .uuid-b76e7e62-b068-4823-84a4-5176f43b3970 {
        fill: none;
        stroke: #333;
        stroke-miterlimit: 10;
      }

      .uuid-b76e7e62-b068-4823-84a4-5176f43b3970 {
        stroke-width: 4px;
      }

      .uuid-ecab8fba-e71c-46e3-8245-d434bd869499 {
        letter-spacing: -.07em;
      }
    </style>
  </defs>
  <g id="uuid-e15fa647-601d-4c78-95ee-f6fd2e07d3a3" data-name="레이어 1">
    <g>
      <path class="uuid-eb65230c-427d-4bbc-b7aa-1865e3f57ea9" d="M72.17,16.91v13.89l-31.75,14.68-31.75-14.68v-13.89h63.5M74.42,12.91H6.41c-.96,0-1.75.78-1.75,1.75v17.59c0,.68.4,1.3,1.01,1.59l34.01,15.72c.23.11.48.16.73.16s.5-.05.73-.16l34.01-15.72c.62-.29,1.01-.9,1.01-1.59V14.66c0-.96-.78-1.75-1.75-1.75h0Z"/>
      <circle class="uuid-eb65230c-427d-4bbc-b7aa-1865e3f57ea9" cx="40.51" cy="57.9" r="6.25"/>
      <path class="uuid-eb65230c-427d-4bbc-b7aa-1865e3f57ea9" d="M40.51,71.83c16.45,0,29.84,13.39,29.84,29.84s-13.39,29.84-29.84,29.84-29.84-13.39-29.84-29.84,13.39-29.84,29.84-29.84M40.51,67.83c-18.69,0-33.84,15.15-33.84,33.84s15.15,33.84,33.84,33.84,33.84-15.15,33.84-33.84-15.15-33.84-33.84-33.84h0Z"/>
      <path class="uuid-02f8e4ad-089c-414d-8425-604960a156e8" d="M40.51,76.51c-13.61,0-24.65,11.04-24.65,24.65,0,6.81,5.52,12.33,12.33,12.33s12.33-5.52,12.33-12.33,5.52-12.33,12.33-12.33,12.33,5.52,12.33,12.33c0-13.61-11.04-24.65-24.65-24.65Z"/>
      <line class="uuid-b76e7e62-b068-4823-84a4-5176f43b3970" x1="40.51" y1="47.98" x2="40.51" y2="70.54"/>
      <line class="uuid-e6683df0-fd78-450b-8b00-9d854cebb68e" x1="16.31" y1="14.69" x2="16.31" y2="35.61"/>
      <line class="uuid-e6683df0-fd78-450b-8b00-9d854cebb68e" x1="64.52" y1="14.69" x2="64.52" y2="35.61"/>
      <line class="uuid-e6683df0-fd78-450b-8b00-9d854cebb68e" x1="28.36" y1="14.69" x2="28.36" y2="41.98"/>
      <line class="uuid-e6683df0-fd78-450b-8b00-9d854cebb68e" x1="52.47" y1="14.69" x2="52.47" y2="41.98"/>
      <line class="uuid-e6683df0-fd78-450b-8b00-9d854cebb68e" x1="40.41" y1="14.69" x2="40.41" y2="47.98"/>
      <text class="uuid-a16e727b-e8b1-4be8-8219-ef159a1f70ef" transform="translate(0 10.47)"><tspan x="0" y="0">P</tspan><tspan class="uuid-47eec896-d645-48e3-8a39-b681912090d5" x="6.71" y="0">r</tspan><tspan x="10.52" y="0">esident </tspan><tspan class="uuid-ecab8fba-e71c-46e3-8245-d434bd869499" x="50.39" y="0">A</tspan><tspan x="57.01" y="0">wa</tspan><tspan class="uuid-47eec896-d645-48e3-8a39-b681912090d5" x="71.69" y="0">r</tspan><tspan x="75.5" y="0">d</tspan></text>
    </g>
  </g>
</svg>