<svg id="Layer_1" height="512" viewBox="0 0 512 512" width="512" xmlns="http://www.w3.org/2000/svg" data-name="Layer 1"><rect fill="#ff5a54" height="480" rx="74.999" width="480" x="16" y="16"/><g fill-rule="evenodd"><path d="m149.598 362.374c-39.418-68.93-53.237-145.146 30.702-221.312 40.045-25.473 98.516-40.352 172.847.093l23.896-23.907v-40.694h25.002l93.955 93.955v250.491c0 41.249-33.75 74.999-74.999 74.999h-137.778l-133.626-133.626z" fill="#db3a3c"/><path d="m318.525 255.999c0 34.489-28.062 62.547-62.551 62.547s-62.541-28.057-62.541-62.547 28.062-62.541 62.541-62.541c12.732 0 24.579 3.827 34.468 10.392l-43.309 43.309 17.681 17.681 43.309-43.314c6.559 9.889 10.402 21.741 10.402 34.473zm62.959 0c0-30.111-10.662-57.771-28.401-79.433l-27.019 27.03c10.963 14.621 17.459 32.763 17.459 52.403 0 48.269-39.28 87.549-87.549 87.549s-87.538-39.28-87.538-87.549 39.269-87.543 87.538-87.543c19.64 0 37.793 6.501 52.414 17.464l27.014-27.02c-21.646-17.755-49.317-28.412-79.428-28.412-69.2 0-125.511 56.31-125.511 125.51s56.31 125.511 125.511 125.511 125.511-56.299 125.511-125.511zm20.561-179.444h-25.002v40.694l-23.896 23.907c-26.241-22.239-60.158-35.664-97.173-35.664-82.991 0-150.508 67.517-150.508 150.508s67.517 150.508 150.508 150.508 150.508-67.517 150.508-150.508c0-37.003-13.425-70.932-35.659-97.162l23.901-23.912h40.699v-24.997h-33.377v-33.372z" fill="#fff"/></g></svg>