<?xml version="1.0" encoding="UTF-8"?>
<svg id="uuid-618aba0d-f147-4219-8cf2-9d471776f49b" data-name="레이어 2" xmlns="http://www.w3.org/2000/svg" viewBox="0 0 70.45 95.74">
  <defs>
    <style>
      .uuid-f3eb1e23-f208-4d17-a90f-3a1a5b49a6ee {
        fill: #ee7d19;
        stroke-width: 0px;
      }

      .uuid-8bf15228-8829-45a1-9905-c63a5ecd348b {
        fill: none;
        stroke: #323333;
        stroke-miterlimit: 10;
        stroke-width: 4px;
      }
    </style>
  </defs>
  <g id="uuid-b267a790-e75a-4f11-adaf-461821201cf2" data-name="레이어 1">
    <g>
      <path class="uuid-8bf15228-8829-45a1-9905-c63a5ecd348b" d="M8.8,63.29h0c3.75,0,6.8,3.05,6.8,6.8v23.65H2v-23.65c0-3.75,3.05-6.8,6.8-6.8Z"/>
      <path class="uuid-8bf15228-8829-45a1-9905-c63a5ecd348b" d="M35.22,45.01h0c3.75,0,6.8,3.05,6.8,6.8v41.92h-13.6v-41.92c0-3.75,3.05-6.8,6.8-6.8Z"/>
      <path class="uuid-8bf15228-8829-45a1-9905-c63a5ecd348b" d="M61.65,29h0c3.75,0,6.8,3.05,6.8,6.8v57.94h-13.6v-57.94c0-3.75,3.05-6.8,6.8-6.8Z"/>
      <path class="uuid-f3eb1e23-f208-4d17-a90f-3a1a5b49a6ee" d="M63.6,18.17L69.88.77c.15-.43-.15-.81-.6-.77l-18.39,1.96c-.55.06-.89.69-.59,1.08l3.37,4.29L2.68,48.51c-2.22,1.75-2.82,4.7-1.34,6.59h0c1.49,1.89,4.49,2.01,6.72.27L59.05,14.19l3.37,4.29c.31.39,1,.21,1.19-.32Z"/>
    </g>
  </g>
</svg>