<svg id="Layer_1" height="512" viewBox="0 0 512 512" width="512" xmlns="http://www.w3.org/2000/svg" data-name="Layer 1"><rect fill="#46cc6b" height="480" rx="74.999" width="480" x="16" y="16"/><g fill-rule="evenodd"><path d="m218.364 496-114.875-114.875v-115.8h25.001l56.206 56.206v-104.806h24.999l56.208 56.208v-104.208h24.999l56.208 56.208v-33.899l-32.663-32.663 45.209-45.177 136.344 136.344v171.462c0 41.249-33.75 74.999-74.999 74.999h-202.637z" fill="#20a561"/><path d="m103.489 381.125h25.001v-115.8h-25.001zm210.958-222.753 17.681 17.671 14.981-14.992v220.074h25.039v-220.074l14.981 14.992 17.681-17.671-45.156-45.177-45.209 45.177zm-48.544 222.753h24.999v-212.399h-24.999zm-81.207 0h24.999v-164.399h-24.999v164.4z" fill="#fff"/></g></svg>