<?xml version="1.0" encoding="UTF-8"?>
<svg id="uuid-01a0bd5b-64e3-4d2d-8ad2-6e0a8fea3b61" xmlns="http://www.w3.org/2000/svg" version="1.1" viewBox="0 0 559.8 432.6">
  <defs>
    <style>
      .cls-1 {
        fill: none;
        stroke: #DBDBDB;
        stroke-miterlimit: 10;
        stroke-width: .2px;
      }
    </style>
  </defs>
  <g id="uuid-1fc706f9-fee8-4634-9f3c-5c43341b0ccb">
    <g>
      <g>
        <line class="cls-1" x1="16.2" x2="16.2" y2="423.9"/>
        <line class="cls-1" x1="7.3" x2="7.3" y2="423.9"/>
        <line class="cls-1" x1="24.7" x2="24.7" y2="423.9"/>
        <line class="cls-1" x1="33.2" x2="33.2" y2="423.9"/>
        <line class="cls-1" x1="41.7" x2="41.7" y2="423.9"/>
        <line class="cls-1" x1="50.2" x2="50.2" y2="423.9"/>
        <line class="cls-1" x1="58.7" x2="58.7" y2="423.9"/>
        <line class="cls-1" x1="67.2" x2="67.2" y2="423.9"/>
        <line class="cls-1" x1="75.7" x2="75.7" y2="423.9"/>
        <line class="cls-1" x1="84.2" x2="84.2" y2="423.9"/>
        <line class="cls-1" x1="92.7" x2="92.7" y2="423.9"/>
        <line class="cls-1" x1="101.2" x2="101.2" y2="423.9"/>
        <line class="cls-1" x1="109.7" x2="109.7" y2="423.9"/>
        <line class="cls-1" x1="118.2" x2="118.2" y2="423.9"/>
        <line class="cls-1" x1="126.7" x2="126.7" y2="423.9"/>
        <line class="cls-1" x1="135.2" x2="135.2" y2="423.9"/>
        <line class="cls-1" x1="143.7" x2="143.7" y2="423.9"/>
        <line class="cls-1" x1="152.2" x2="152.2" y2="423.9"/>
        <line class="cls-1" x1="160.7" x2="160.7" y2="423.9"/>
        <line class="cls-1" x1="169.2" x2="169.2" y2="423.9"/>
        <line class="cls-1" x1="177.7" x2="177.7" y2="423.9"/>
        <line class="cls-1" x1="186.2" x2="186.2" y2="423.9"/>
        <line class="cls-1" x1="194.7" x2="194.7" y2="423.9"/>
        <line class="cls-1" x1="203.2" x2="203.2" y2="423.9"/>
        <line class="cls-1" x1="211.8" x2="211.8" y2="423.9"/>
        <line class="cls-1" x1="220.2" x2="220.2" y2="423.9"/>
        <line class="cls-1" x1="228.8" x2="228.8" y2="423.9"/>
        <line class="cls-1" x1="237.3" x2="237.3" y2="423.9"/>
        <line class="cls-1" x1="245.8" x2="245.8" y2="423.9"/>
        <line class="cls-1" x1="254.3" x2="254.3" y2="423.9"/>
        <line class="cls-1" x1="262.8" x2="262.8" y2="423.9"/>
        <line class="cls-1" x1="271.3" x2="271.3" y2="423.9"/>
        <line class="cls-1" x1="279.8" x2="279.8" y2="423.9"/>
        <line class="cls-1" x1="288.3" x2="288.3" y2="423.9"/>
        <line class="cls-1" x1="296.8" x2="296.8" y2="423.9"/>
        <line class="cls-1" x1="305.3" x2="305.3" y2="423.9"/>
        <line class="cls-1" x1="313.8" x2="313.8" y2="423.9"/>
        <line class="cls-1" x1="322.3" x2="322.3" y2="423.9"/>
        <line class="cls-1" x1="330.8" x2="330.8" y2="423.9"/>
        <line class="cls-1" x1="339.3" x2="339.3" y2="423.9"/>
        <line class="cls-1" x1="347.8" x2="347.8" y2="423.9"/>
        <line class="cls-1" x1="356.3" x2="356.3" y2="423.9"/>
        <line class="cls-1" x1="364.8" x2="364.8" y2="423.9"/>
        <line class="cls-1" x1="373.3" x2="373.3" y2="423.9"/>
        <line class="cls-1" x1="381.8" x2="381.8" y2="423.9"/>
        <line class="cls-1" x1="390.3" x2="390.3" y2="423.9"/>
        <line class="cls-1" x1="398.8" x2="398.8" y2="423.9"/>
        <line class="cls-1" x1="407.3" x2="407.3" y2="423.9"/>
        <line class="cls-1" x1="415.8" x2="415.8" y2="423.9"/>
        <line class="cls-1" x1="424.4" x2="424.4" y2="423.9"/>
        <line class="cls-1" x1="432.9" x2="432.9" y2="423.9"/>
        <line class="cls-1" x1="441.4" x2="441.4" y2="423.9"/>
        <line class="cls-1" x1="449.9" x2="449.9" y2="423.9"/>
        <line class="cls-1" x1="458.4" x2="458.4" y2="423.9"/>
        <line class="cls-1" x1="466.9" x2="466.9" y2="423.9"/>
        <line class="cls-1" x1="475.4" x2="475.4" y2="423.9"/>
        <line class="cls-1" x1="483.9" x2="483.9" y2="423.9"/>
        <line class="cls-1" x1="492.4" x2="492.4" y2="423.9"/>
        <line class="cls-1" x1="500.9" x2="500.9" y2="423.9"/>
        <line class="cls-1" x1="509.4" x2="509.4" y2="423.9"/>
        <line class="cls-1" x1="517.9" x2="517.9" y2="423.9"/>
        <line class="cls-1" x1="526.4" x2="526.4" y2="423.9"/>
        <line class="cls-1" x1="534.9" x2="534.9" y2="423.9"/>
        <line class="cls-1" x1="543.4" x2="543.4" y2="423.9"/>
        <line class="cls-1" x1="552.3" x2="552.3" y2="423.9"/>
      </g>
      <g>
        <line class="cls-1" y1="22.4" x2="559.8" y2="22.4"/>
        <line class="cls-1" x1="0" y1="13.8" x2="559.7" y2="13.8"/>
        <line class="cls-1" x1="-.2" y1="5.3" x2="559.6" y2="5.3"/>
        <line class="cls-1" y1="30.9" x2="559.8" y2="30.9"/>
        <line class="cls-1" y1="39.4" x2="559.8" y2="39.4"/>
        <line class="cls-1" y1="47.9" x2="559.8" y2="47.9"/>
        <line class="cls-1" y1="56.4" x2="559.8" y2="56.4"/>
        <line class="cls-1" y1="64.9" x2="559.8" y2="64.9"/>
        <line class="cls-1" y1="73.4" x2="559.8" y2="73.4"/>
        <line class="cls-1" y1="81.9" x2="559.8" y2="81.9"/>
        <line class="cls-1" y1="90.4" x2="559.8" y2="90.4"/>
        <line class="cls-1" y1="98.9" x2="559.8" y2="98.9"/>
        <line class="cls-1" y1="107.4" x2="559.8" y2="107.4"/>
        <line class="cls-1" y1="115.9" x2="559.8" y2="115.9"/>
        <line class="cls-1" y1="124.4" x2="559.8" y2="124.4"/>
        <line class="cls-1" y1="132.9" x2="559.8" y2="132.9"/>
        <line class="cls-1" y1="141.4" x2="559.8" y2="141.4"/>
        <line class="cls-1" y1="149.9" x2="559.8" y2="149.9"/>
        <line class="cls-1" y1="158.4" x2="559.8" y2="158.4"/>
        <line class="cls-1" y1="166.9" x2="559.8" y2="166.9"/>
        <line class="cls-1" y1="175.4" x2="559.8" y2="175.4"/>
        <line class="cls-1" y1="183.9" x2="559.8" y2="183.9"/>
        <line class="cls-1" y1="192.4" x2="559.8" y2="192.4"/>
        <line class="cls-1" y1="200.9" x2="559.8" y2="200.9"/>
        <line class="cls-1" y1="209.4" x2="559.8" y2="209.4"/>
        <line class="cls-1" y1="217.9" x2="559.8" y2="217.9"/>
        <line class="cls-1" y1="226.4" x2="559.8" y2="226.4"/>
        <line class="cls-1" y1="234.9" x2="559.8" y2="234.9"/>
        <line class="cls-1" y1="243.5" x2="559.8" y2="243.5"/>
        <line class="cls-1" y1="252" x2="559.8" y2="252"/>
        <line class="cls-1" y1="260.5" x2="559.8" y2="260.5"/>
        <line class="cls-1" y1="269" x2="559.8" y2="269"/>
        <line class="cls-1" y1="277.5" x2="559.8" y2="277.5"/>
        <line class="cls-1" y1="286" x2="559.8" y2="286"/>
        <line class="cls-1" y1="294.5" x2="559.8" y2="294.5"/>
        <line class="cls-1" y1="303.7" x2="559.8" y2="303.7"/>
        <line class="cls-1" y1="312.9" x2="559.8" y2="312.9"/>
        <line class="cls-1" y1="322.1" x2="559.8" y2="322.1"/>
        <line class="cls-1" y1="331.3" x2="559.8" y2="331.3"/>
        <line class="cls-1" y1="340.5" x2="559.8" y2="340.5"/>
        <line class="cls-1" y1="349.7" x2="559.8" y2="349.7"/>
        <line class="cls-1" y1="358.9" x2="559.8" y2="358.9"/>
        <line class="cls-1" y1="368.1" x2="559.8" y2="368.1"/>
        <line class="cls-1" y1="377.3" x2="559.8" y2="377.3"/>
        <line class="cls-1" y1="386.5" x2="559.8" y2="386.5"/>
        <line class="cls-1" y1="395.7" x2="559.8" y2="395.7"/>
        <line class="cls-1" y1="404.9" x2="559.8" y2="404.9"/>
        <line class="cls-1" y1="414.1" x2="559.8" y2="414.1"/>
        <line class="cls-1" y1="423.3" x2="559.8" y2="423.3"/>
        <line class="cls-1" y1="432.5" x2="559.8" y2="432.5"/>
      </g>
    </g>
  </g>
</svg>