<?xml version="1.0" encoding="UTF-8"?>
<svg id="uuid-70a9da61-704c-4c6e-90be-224c323489b3" data-name="레이어 2" xmlns="http://www.w3.org/2000/svg" viewBox="0 0 101 69.89">
  <defs>
    <style>
      .uuid-bf5f6787-d9e2-4073-b912-32841db44548 {
        fill: #008b3e;
      }

      .uuid-bf5f6787-d9e2-4073-b912-32841db44548, .uuid-eedfabf9-a873-416e-8e14-70d6e047da07, .uuid-9a4bcff3-5b33-4750-8d47-ec793adaaf9d {
        stroke-width: 0px;
      }

      .uuid-eedfabf9-a873-416e-8e14-70d6e047da07 {
        fill: #323333;
      }

      .uuid-9a4bcff3-5b33-4750-8d47-ec793adaaf9d {
        fill: #fff;
      }
    </style>
  </defs>
  <g id="uuid-781b2b5b-bba0-47c3-a0eb-c7169927451b" data-name="레이어 1">
    <g>
      <path class="uuid-eedfabf9-a873-416e-8e14-70d6e047da07" d="M26.83,7.84l.23.55,1.19,2.89,3.1-.47c1.19-.18,2.4-.27,3.6-.27s2.45.09,3.65.28l3.1.47,1.2-2.89.23-.55,5.25,2.18-.23.55-1.2,2.89,2.52,1.86c1.96,1.45,3.68,3.18,5.12,5.14l1.85,2.52,2.89-1.19.55-.23,2.17,5.26-.55.23-2.89,1.19.47,3.1c.36,2.41.36,4.85,0,7.26l-.47,3.1,2.89,1.2.55.23-2.18,5.25-.55-.23-2.89-1.2-1.86,2.52c-1.45,1.96-3.18,3.68-5.14,5.12l-2.52,1.85,1.19,2.89.23.55-5.26,2.17-.23-.55-1.19-2.89-3.1.47c-1.19.18-2.4.27-3.6.27s-2.45-.09-3.65-.28l-3.1-.47-1.2,2.89-.23.55-5.25-2.18.23-.55,1.2-2.89-2.52-1.86c-1.96-1.45-3.68-3.18-5.12-5.14l-1.85-2.52-2.89,1.19-.55.23-2.17-5.26.55-.23,2.89-1.19-.46-3.1c-.36-2.41-.36-4.85,0-7.26l.47-3.1-2.89-1.2-.55-.23,2.18-5.25.55.23,2.89,1.2,1.86-2.52c1.45-1.96,3.18-3.68,5.14-5.12l2.52-1.85-1.19-2.89-.23-.55,5.26-2.17M34.94,52.69c7.19,0,13.63-4.29,16.39-10.93,1.82-4.38,1.83-9.2.02-13.58-1.81-4.38-5.21-7.79-9.59-9.61-2.18-.9-4.46-1.36-6.81-1.36-7.19,0-13.63,4.29-16.39,10.93-1.82,4.38-1.83,9.2-.02,13.58,1.81,4.38,5.21,7.79,9.59,9.61,2.18.9,4.46,1.36,6.8,1.36M29,2.61l-12.65,5.22,1.75,4.24c-2.25,1.66-4.28,3.66-5.99,5.97l-4.24-1.76-5.25,12.64,4.24,1.76c-.43,2.84-.43,5.69,0,8.45l-4.24,1.75,5.22,12.65,4.24-1.75c1.66,2.25,3.66,4.28,5.97,5.99l-1.76,4.24,12.64,5.25,1.76-4.24c1.42.22,2.84.32,4.26.32s2.81-.11,4.2-.31l1.75,4.24,12.65-5.22-1.75-4.24c2.25-1.66,4.28-3.66,5.99-5.97l4.24,1.76,5.25-12.64-4.24-1.76c.43-2.84.43-5.69,0-8.45l4.24-1.75-5.22-12.65-4.24,1.75c-1.66-2.25-3.66-4.28-5.97-5.99l1.76-4.24-12.64-5.25-1.76,4.24c-1.42-.22-2.84-.32-4.26-.32s-2.81.11-4.2.31l-1.75-4.24h0ZM34.94,48.69c-1.76,0-3.54-.34-5.27-1.06-7.01-2.91-10.33-10.96-7.41-17.96,2.2-5.28,7.31-8.47,12.69-8.47,1.76,0,3.54.34,5.27,1.06,7.01,2.91,10.33,10.96,7.41,17.96-2.2,5.28-7.31,8.47-12.69,8.47h0Z"/>
      <g>
        <path class="uuid-bf5f6787-d9e2-4073-b912-32841db44548" d="M82.05,47.86c-1.71,0-3.11-1.39-3.11-3.11v-2.9l-44.66.86c-3.83,0-6.91-3.08-6.91-6.86s3.08-6.86,6.86-6.86l44.71-.86v-3c0-1.71,1.39-3.11,3.11-3.11.66,0,1.3.21,1.84.6l13.34,9.81c.79.58,1.27,1.52,1.27,2.5s-.47,1.92-1.27,2.5l-13.34,9.81c-.54.4-1.17.6-1.84.6h0Z"/>
        <path class="uuid-9a4bcff3-5b33-4750-8d47-ec793adaaf9d" d="M82.05,24.53c.12,0,.24.04.36.12l13.34,9.81c.33.24.33.73,0,.97l-13.34,9.81c-.11.08-.23.12-.36.12-.31,0-.61-.25-.61-.61v-5.45l-47.21.91c-2.41,0-4.36-1.95-4.36-4.36s1.95-4.36,4.36-4.36l47.21-.91v-5.45c0-.36.29-.61.61-.61M82.05,19.53h0c-1.44,0-2.81.55-3.86,1.54-1.11,1.05-1.75,2.53-1.75,4.07v.55l-42.27.81c-5.13.03-9.3,4.22-9.3,9.36s4.2,9.36,9.36,9.36h.1s42.12-.81,42.12-.81v.36c0,3.09,2.52,5.61,5.61,5.61,1.2,0,2.35-.38,3.32-1.09l13.34-9.81c1.43-1.05,2.28-2.74,2.28-4.52s-.85-3.46-2.29-4.52l-13.34-9.81c-.97-.71-2.12-1.09-3.32-1.09h0Z"/>
      </g>
    </g>
  </g>
</svg>