<?xml version="1.0" encoding="UTF-8"?>
<svg id="uuid-66e4879b-280e-49d5-a297-59d9adef2069" data-name="레이어 2" xmlns="http://www.w3.org/2000/svg" xmlns:xlink="http://www.w3.org/1999/xlink" viewBox="0 0 50 50">
  <defs>
    <style>
      .uuid-03894ab0-db21-4e8f-887b-be84946dbcb7 {
        fill: none;
      }

      .uuid-03894ab0-db21-4e8f-887b-be84946dbcb7, .uuid-61678609-939b-4475-8fbb-e2b21bba75c2, .uuid-66ccd2d5-d69c-482b-8221-370d13865d7b, .uuid-fb45f167-130a-40ad-b46a-c5cdc9861a6c, .uuid-ac3fbb83-8062-4bf1-8a7d-0f6dfe7b4f94 {
        stroke-width: 0px;
      }

      .uuid-61678609-939b-4475-8fbb-e2b21bba75c2 {
        fill: #ff6262;
      }

      .uuid-3e15c1e6-c1f8-49b3-8a11-6af820f7b97a {
        clip-path: url(#uuid-de801215-e2ea-434f-8c27-3391dcf38b2d);
      }

      .uuid-66ccd2d5-d69c-482b-8221-370d13865d7b {
        fill: #ffad9e;
      }

      .uuid-fb45f167-130a-40ad-b46a-c5cdc9861a6c {
        fill: #121149;
      }

      .uuid-ac3fbb83-8062-4bf1-8a7d-0f6dfe7b4f94 {
        fill: #273b7a;
      }
    </style>
    <clipPath id="uuid-de801215-e2ea-434f-8c27-3391dcf38b2d">
      <rect class="uuid-03894ab0-db21-4e8f-887b-be84946dbcb7" width="50" height="50"/>
    </clipPath>
  </defs>
  <g id="uuid-898c6655-100b-47d0-966e-44e9e3b199d3" data-name="레이어 1">
    <g class="uuid-3e15c1e6-c1f8-49b3-8a11-6af820f7b97a">
      <g>
        <circle class="uuid-66ccd2d5-d69c-482b-8221-370d13865d7b" cx="25" cy="25" r="37.42"/>
        <path class="uuid-61678609-939b-4475-8fbb-e2b21bba75c2" d="M39.51,60c9.97-2.61,17.92-10.22,20.98-20l-22.12-21.06-.5.7-7.41-7.41-13.91,17.6-5.61,1.64,7.32,7.32-.71.31,21.96,20.89Z"/>
        <path class="uuid-ac3fbb83-8062-4bf1-8a7d-0f6dfe7b4f94" d="M35.41,25.17c.88-.04,1.7.24,2.35.72.49.36,1.17-.01,1.17-.62v-4.6c0-1.61-1.31-2.92-2.92-2.92h-4.31c-.57,0-.94-.61-.66-1.1.36-.64.54-1.41.45-2.22-.18-1.71-1.56-3.09-3.26-3.28-2.23-.25-4.13,1.5-4.13,3.68,0,.66.17,1.28.48,1.82.28.49-.09,1.1-.66,1.1h-4.31c-1.61,0-2.92,1.31-2.92,2.92v4.45c0,.59-.65.95-1.15.63-.64-.41-1.41-.63-2.24-.57-1.86.12-3.36,1.66-3.45,3.51-.1,2.13,1.59,3.89,3.7,3.89.74,0,1.43-.22,2-.59.49-.32,1.14.05,1.14.64v4.44c0,1.61,1.31,2.92,2.92,2.92h16.39c1.61,0,2.92-1.31,2.92-2.92v-4.6c0-.61-.69-.97-1.18-.61-.61.45-1.37.72-2.19.72-2.11,0-3.8-1.76-3.7-3.89.09-1.89,1.65-3.43,3.54-3.51Z"/>
        <path class="uuid-fb45f167-130a-40ad-b46a-c5cdc9861a6c" d="M35.41,25.17c.88-.04,1.7.24,2.35.72.49.36,1.17-.01,1.17-.62v-4.6c0-1.61-1.31-2.92-2.92-2.92h-4.31c-.57,0-.94-.61-.66-1.1.36-.64.54-1.41.45-2.22-.18-1.71-1.56-3.09-3.26-3.28-.24-.03-.48-.03-.71-.01v28.84h8.48c1.61,0,2.92-1.31,2.92-2.92v-4.6c0-.61-.69-.97-1.18-.61-.61.45-1.37.72-2.19.72-2.11,0-3.8-1.76-3.7-3.89.09-1.89,1.65-3.44,3.54-3.52Z"/>
      </g>
    </g>
  </g>
</svg>