<?xml version="1.0" encoding="UTF-8"?>
<svg id="uuid-c0cb7c25-b913-40dd-bd6b-89a3947227ea" data-name="레이어 2" xmlns="http://www.w3.org/2000/svg" xmlns:xlink="http://www.w3.org/1999/xlink" viewBox="0 0 595.28 841.89">
  <defs>
    <style>
      .uuid-76fa2093-a3d7-4633-83ab-7e3443292264 {
        letter-spacing: -.04em;
      }

      .uuid-2613e096-976c-41d3-ba32-d2f42a0afc1d {
        letter-spacing: -.04em;
      }

      .uuid-ee54d83f-f382-47fb-9bce-7e3599797dba {
        letter-spacing: -.04em;
      }

      .uuid-2439a554-a80b-4b64-a634-cb3a32d8c18f {
        letter-spacing: -.02em;
      }

      .uuid-fb998d75-1121-4b4e-9d65-1ef8517f643e {
        font-size: 40px;
      }

      .uuid-fb998d75-1121-4b4e-9d65-1ef8517f643e, .uuid-6d25f5a8-725f-4ba1-a099-fa065f0f0336, .uuid-5e9a4b12-23d8-4684-bde7-175b531bd6f6 {
        fill: #fff;
      }

      .uuid-4e973dcb-e350-4d55-b96f-e68c188192ee {
        fill: url(#uuid-c99f260a-264f-45d0-a9f1-2f834bf69b16);
      }

      .uuid-4e973dcb-e350-4d55-b96f-e68c188192ee, .uuid-e747e875-526c-489c-a326-248612b43fec, .uuid-cf8ce3f9-0bd3-4c74-8d37-f948afcd6556 {
        stroke-width: 0px;
      }

      .uuid-e747e875-526c-489c-a326-248612b43fec {
        fill: #08204c;
      }

      .uuid-d7e05826-7196-4015-8a75-a61cb092ab5b {
        font-family: Pretendard-Bold-KSCpc-EUC-H, Pretendard;
        font-weight: 700;
      }

      .uuid-243fd782-12f2-4dba-ad0b-2cb47173d9f9 {
        letter-spacing: -.05em;
      }

      .uuid-0e109916-9197-44af-97c8-50d0279a7594 {
        letter-spacing: -.1em;
      }

      .uuid-b649e338-7d71-45d0-b1b2-14eafc59cebc {
        font-family: Pretendard-Regular-KSCpc-EUC-H, Pretendard;
      }

      .uuid-ef5d04ec-74ab-44e0-aa43-eacd8c96fc2e {
        letter-spacing: -.06em;
      }

      .uuid-ac263179-a8fe-4048-927d-2ecd59003e55 {
        letter-spacing: -.05em;
      }

      .uuid-6d25f5a8-725f-4ba1-a099-fa065f0f0336 {
        font-family: Pretendard-Light-KSCpc-EUC-H, Pretendard;
        font-size: 18px;
        font-weight: 300;
      }

      .uuid-b1b48178-7338-49df-b249-5f8e7b2a711f {
        letter-spacing: -.06em;
      }

      .uuid-e73bfa18-5519-428b-a3b5-e569e023a582 {
        letter-spacing: -.06em;
      }

      .uuid-e47dba6e-bc6d-43f1-a763-ca956b361802 {
        letter-spacing: -.06em;
      }

      .uuid-cf8ce3f9-0bd3-4c74-8d37-f948afcd6556 {
        fill: #02abe2;
      }

      .uuid-5e9a4b12-23d8-4684-bde7-175b531bd6f6 {
        font-family: Pretendard-Medium-KSCpc-EUC-H, Pretendard;
        font-size: 15px;
        font-weight: 500;
      }
    </style>
    <linearGradient id="uuid-c99f260a-264f-45d0-a9f1-2f834bf69b16" data-name="무제 그라디언트 77" x1="297.64" y1="782.12" x2="297.64" y2="271.31" gradientUnits="userSpaceOnUse">
      <stop offset="0" stop-color="#5dc2ca"/>
      <stop offset="1" stop-color="#f69cd1"/>
    </linearGradient>
  </defs>
  <g id="uuid-4cf2d03e-f9fb-4a6d-9cac-db306656010d" data-name="레이어 1">
    <rect class="uuid-e747e875-526c-489c-a326-248612b43fec" width="595.28" height="841.89"/>
    <path class="uuid-cf8ce3f9-0bd3-4c74-8d37-f948afcd6556" d="M296.09,540.11l-.05,31.03-22.22-12.5-.06,41.02-24.39-13.98.1-71.62,46.6,26.05h0ZM296.09,540.11l-.02,15.71-.02,15.31,22.25-12.44-.06,41.02,24.42-13.91.1-71.62-46.67,25.92h0Z"/>
    <path class="uuid-4e973dcb-e350-4d55-b96f-e68c188192ee" d="M92.24,290.07c-4.2,0-7.62,3.42-7.62,7.62s3.42,7.62,7.62,7.62,7.62-3.42,7.62-7.62-3.42-7.62-7.62-7.62ZM92.24,303.81c-3.37,0-6.12-2.75-6.12-6.12s2.75-6.12,6.12-6.12,6.12,2.75,6.12,6.12-2.75,6.12-6.12,6.12ZM503.03,305.31c4.2,0,7.62-3.42,7.62-7.62s-3.42-7.62-7.62-7.62-7.62,3.42-7.62,7.62,3.42,7.62,7.62,7.62ZM503.03,291.57c3.37,0,6.12,2.75,6.12,6.12s-2.75,6.12-6.12,6.12-6.12-2.75-6.12-6.12,2.75-6.12,6.12-6.12ZM527.71,718.73l1.49.13c-2.97,33.68-29.57,60.29-63.26,63.26l-.13-1.49c32.96-2.91,58.99-28.94,61.89-61.89ZM460.71,726.67c6.72,0,12.18-5.46,12.18-12.18s-5.46-12.18-12.18-12.18-12.18,5.46-12.18,12.18,5.46,12.18,12.18,12.18ZM460.71,703.82c5.89,0,10.68,4.79,10.68,10.68s-4.79,10.68-10.68,10.68-10.68-4.79-10.68-10.68,4.79-10.68,10.68-10.68ZM418.51,672.13l-.53.53,13.8,13.8.53-.53c7.04-7.05,16.41-10.93,26.38-10.93h.75v-19.51h-.75c-15.17,0-29.44,5.91-40.18,16.64ZM457.94,673.51c-9.84.19-19.07,4.01-26.15,10.84l-11.68-11.68c10.21-9.94,23.59-15.48,37.84-15.67v16.52ZM460.78,655.49h-.75v19.51h.75c9.97,0,19.34,3.88,26.38,10.93l.53.53,13.8-13.8-.53-.53c-10.73-10.73-25-16.64-40.18-16.64ZM487.69,684.35c-7.08-6.83-16.32-10.65-26.15-10.84v-16.52c14.25.19,27.63,5.73,37.84,15.67l-11.68,11.68ZM518.74,713.45c0-15.19-5.91-29.46-16.64-40.18l-.53-.53-13.8,13.8.53.53c7.05,7.04,10.93,16.41,10.93,26.38v.75h19.51v-.75ZM500.72,712.7c-.19-9.84-4.01-19.07-10.84-26.15l11.68-11.68c9.94,10.2,15.48,23.58,15.67,37.84h-16.52ZM487.77,742.45l13.8,13.8.53-.53c10.73-10.73,16.64-25,16.64-40.18v-.75h-19.51v.75c0,9.97-3.88,19.34-10.93,26.38l-.53.53ZM500.72,716.29h16.52c-.19,14.25-5.73,27.63-15.67,37.84l-11.68-11.68c6.83-7.08,10.65-16.32,10.84-26.15ZM501.49,756.33l-13.8-13.8-.53.53c-7.04,7.05-16.41,10.93-26.38,10.93h-.75v19.51h.75c15.18,0,29.45-5.91,40.18-16.64l.53-.53ZM461.53,772v-16.52c9.84-.19,19.07-4.01,26.15-10.84l11.68,11.68c-10.21,9.94-23.59,15.48-37.84,15.67ZM432.32,743.06l-.53-.53-13.8,13.8.53.53c10.74,10.73,25.01,16.64,40.18,16.64h.75v-19.51h-.75c-9.97,0-19.34-3.88-26.38-10.93ZM457.94,772c-14.24-.19-27.62-5.73-37.84-15.67l11.68-11.68c7.08,6.83,16.32,10.65,26.15,10.84v16.52ZM400.73,715.54c0,15.17,5.91,29.44,16.64,40.18l.53.53,13.8-13.8-.53-.53c-7.05-7.04-10.93-16.41-10.93-26.38v-.75h-19.51v.75ZM418.75,716.29c.19,9.84,4.01,19.07,10.84,26.15l-11.68,11.68c-9.94-10.21-15.48-23.59-15.67-37.84h16.52ZM417.37,673.27c-10.73,10.73-16.64,25-16.64,40.18v.75h19.51v-.75c0-9.97,3.88-19.34,10.93-26.38l.53-.53-13.8-13.8-.53.53ZM429.59,686.55c-6.83,7.08-10.65,16.32-10.84,26.15h-16.52c.19-14.25,5.73-27.63,15.67-37.84l11.68,11.68ZM460.71,730.32c8.73,0,15.82-7.1,15.82-15.82s-7.1-15.82-15.82-15.82-15.82,7.1-15.82,15.82,7.1,15.82,15.82,15.82ZM460.71,700.17c7.9,0,14.32,6.43,14.32,14.32s-6.43,14.32-14.32,14.32-14.32-6.43-14.32-14.32,6.43-14.32,14.32-14.32ZM467.51,709.79h-13.6v9.41h13.6v-9.41ZM466.01,717.7h-10.6v-6.41h10.6v6.41ZM437.71,694.58c1.05,0,1.91-.86,1.91-1.91s-.86-1.91-1.91-1.91-1.91.86-1.91,1.91.86,1.91,1.91,1.91ZM437.71,692.26c.22,0,.41.18.41.41s-.18.41-.41.41-.41-.18-.41-.41.18-.41.41-.41ZM444.64,697.69c0-1.05-.86-1.91-1.91-1.91s-1.91.86-1.91,1.91.86,1.91,1.91,1.91,1.91-.86,1.91-1.91ZM442.32,697.69c0-.22.18-.41.41-.41s.41.18.41.41-.18.41-.41.41-.41-.18-.41-.41ZM427.66,713.97c-.74.74-.74,1.95,0,2.7.36.36.84.56,1.35.56s.99-.2,1.35-.56.56-.84.56-1.35-.2-.99-.56-1.35c-.74-.74-1.95-.74-2.7,0ZM429.3,715.03c.08.08.12.18.12.29s-.04.21-.12.29c-.15.15-.42.15-.58,0-.16-.16-.16-.42,0-.58.08-.08.18-.12.29-.12s.21.04.29.12ZM434.76,716.67c.37.37.86.56,1.35.56s.98-.19,1.35-.56c.74-.74.74-1.95,0-2.7h0c-.74-.74-1.95-.74-2.7,0-.74.74-.74,1.95,0,2.7ZM435.82,715.04c.08-.08.18-.12.29-.12s.21.04.29.12c.16.16.16.42,0,.58-.16.16-.42.16-.58,0s-.16-.42,0-.58ZM438.88,739.4c1.05,0,1.91-.86,1.91-1.91s-.86-1.91-1.91-1.91-1.91.86-1.91,1.91.86,1.91,1.91,1.91ZM438.88,737.09c.22,0,.41.18.41.41s-.18.41-.41.41-.41-.18-.41-.41.18-.41.41-.41ZM443.9,734.38c1.05,0,1.91-.86,1.91-1.91s-.86-1.91-1.91-1.91-1.91.86-1.91,1.91.86,1.91,1.91,1.91ZM443.9,732.07c.22,0,.41.18.41.41s-.18.41-.41.41-.41-.18-.41-.41.18-.41.41-.41ZM461.53,748.1c.49,0,.98-.19,1.35-.56.74-.74.74-1.95,0-2.7-.74-.74-1.95-.74-2.7,0-.74.74-.74,1.95,0,2.7.37.37.86.56,1.35.56ZM461.24,745.91c.08-.08.18-.12.29-.12s.21.04.29.12c.16.16.16.42,0,.58-.16.16-.42.16-.58,0-.16-.16-.16-.42,0-.58ZM461.53,741c.49,0,.98-.19,1.35-.56.74-.74.74-1.95,0-2.7-.74-.74-1.95-.74-2.7,0h0c-.74.74-.74,1.95,0,2.7.37.37.86.56,1.35.56ZM461.24,738.81c.16-.16.42-.16.58,0s.16.42,0,.58-.42.16-.58,0c-.16-.16-.16-.42,0-.58ZM483.7,738.23c1.05,0,1.91-.86,1.91-1.91s-.86-1.91-1.91-1.91-1.91.86-1.91,1.91.86,1.91,1.91,1.91ZM483.7,735.92c.22,0,.41.18.41.41s-.18.41-.41.41-.41-.18-.41-.41.18-.41.41-.41ZM478.68,733.21c1.05,0,1.91-.86,1.91-1.91s-.86-1.91-1.91-1.91-1.91.86-1.91,1.91.86,1.91,1.91,1.91ZM478.68,730.9c.22,0,.41.18.41.41s-.18.41-.41.41-.41-.18-.41-.41.18-.41.41-.41ZM492.4,715.58c.51,0,.99-.2,1.35-.56s.56-.84.56-1.35-.2-.99-.56-1.35c-.74-.74-1.95-.74-2.7,0-.74.74-.74,1.95,0,2.7h0c.36.36.84.56,1.35.56ZM492.12,713.39c.08-.08.18-.12.29-.12s.21.04.29.12c.08.08.12.18.12.29s-.04.21-.12.29c-.15.15-.42.15-.57,0h0c-.16-.16-.16-.42,0-.58ZM486.65,712.32c-.74-.74-1.95-.74-2.7,0-.36.36-.56.84-.56,1.35s.2.99.56,1.35h0c.36.36.84.56,1.35.56s.99-.2,1.35-.56c.74-.74.74-1.95,0-2.7ZM485.59,713.96c-.15.15-.42.15-.58,0h0c-.08-.08-.12-.18-.12-.29s.04-.21.12-.29c.08-.08.18-.12.29-.12s.21.04.29.12c.16.16.16.42,0,.58ZM484.44,691.5c0-1.05-.86-1.91-1.91-1.91s-1.91.86-1.91,1.91.86,1.91,1.91,1.91,1.91-.86,1.91-1.91ZM482.13,691.5c0-.22.18-.41.41-.41s.41.18.41.41-.18.41-.41.41-.41-.18-.41-.41ZM479.42,696.52c0-1.05-.86-1.91-1.91-1.91s-1.91.86-1.91,1.91.86,1.91,1.91,1.91,1.91-.86,1.91-1.91ZM477.11,696.52c0-.22.18-.41.41-.41s.41.18.41.41-.18.41-.41.41-.41-.18-.41-.41ZM458.53,681.45c-.74.74-.74,1.95,0,2.7.37.37.86.56,1.35.56s.98-.19,1.35-.56h0c.74-.74.74-1.95,0-2.7-.74-.74-1.95-.74-2.7,0ZM460.17,683.09c-.16.16-.42.16-.58,0-.16-.16-.16-.42,0-.58.08-.08.18-.12.29-.12s.21.04.29.12c.16.16.16.42,0,.58ZM461.23,691.25c.74-.74.74-1.95,0-2.7-.74-.74-1.95-.74-2.7,0-.74.74-.74,1.95,0,2.7.37.37.86.56,1.35.56s.98-.19,1.35-.56ZM459.59,689.61c.08-.08.18-.12.29-.12s.21.04.29.12c.16.16.16.42,0,.58s-.42.16-.58,0-.16-.42,0-.58ZM236.75,409.69h-6.65v6.65h6.65v-6.65ZM235.25,414.84h-3.65v-3.65h3.65v3.65ZM236.75,417.41h-6.65v6.65h6.65v-6.65ZM235.25,422.56h-3.65v-3.65h3.65v3.65ZM236.75,425.13h-6.65v6.65h6.65v-6.65ZM235.25,430.28h-3.65v-3.65h3.65v3.65ZM236.75,432.84h-6.65v6.65h6.65v-6.65ZM235.25,438h-3.65v-3.65h3.65v3.65ZM236.75,440.56h-6.65v6.65h6.65v-6.65ZM235.25,445.71h-3.65v-3.65h3.65v3.65ZM244.03,417.41h-6.65v6.65h6.65v-6.65ZM242.53,422.56h-3.65v-3.65h3.65v3.65ZM244.03,425.13h-6.65v6.65h6.65v-6.65ZM242.53,430.28h-3.65v-3.65h3.65v3.65ZM244.03,432.84h-6.65v6.65h6.65v-6.65ZM242.53,438h-3.65v-3.65h3.65v3.65ZM244.03,440.56h-6.65v6.65h6.65v-6.65ZM242.53,445.71h-3.65v-3.65h3.65v3.65ZM236.75,448.28h-6.65v6.65h6.65v-6.65ZM235.25,453.43h-3.65v-3.65h3.65v3.65ZM228.98,409.69h-6.65v6.65h6.65v-6.65ZM227.48,414.84h-3.65v-3.65h3.65v3.65ZM228.98,417.41h-6.65v6.65h6.65v-6.65ZM227.48,422.56h-3.65v-3.65h3.65v3.65ZM228.98,425.13h-6.65v6.65h6.65v-6.65ZM227.48,430.28h-3.65v-3.65h3.65v3.65ZM228.98,432.84h-6.65v6.65h6.65v-6.65ZM227.48,438h-3.65v-3.65h3.65v3.65ZM228.98,440.56h-6.65v6.65h6.65v-6.65ZM227.48,445.71h-3.65v-3.65h3.65v3.65ZM228.98,448.28h-6.65v6.65h6.65v-6.65ZM227.48,453.43h-3.65v-3.65h3.65v3.65ZM221.2,409.69h-6.65v6.65h6.65v-6.65ZM219.7,414.84h-3.65v-3.65h3.65v3.65ZM221.2,417.41h-6.65v6.65h6.65v-6.65ZM219.7,422.56h-3.65v-3.65h3.65v3.65ZM221.2,425.13h-6.65v6.65h6.65v-6.65ZM219.7,430.28h-3.65v-3.65h3.65v3.65ZM221.2,432.84h-6.65v6.65h6.65v-6.65ZM219.7,438h-3.65v-3.65h3.65v3.65ZM221.2,440.56h-6.65v6.65h6.65v-6.65ZM219.7,445.71h-3.65v-3.65h3.65v3.65ZM221.2,448.28h-6.65v6.65h6.65v-6.65ZM219.7,453.43h-3.65v-3.65h3.65v3.65ZM213.43,409.69h-6.65v6.65h6.65v-6.65ZM211.93,414.84h-3.65v-3.65h3.65v3.65ZM213.43,417.41h-6.65v6.65h6.65v-6.65ZM211.93,422.56h-3.65v-3.65h3.65v3.65ZM213.43,425.13h-6.65v6.65h6.65v-6.65ZM211.93,430.28h-3.65v-3.65h3.65v3.65ZM213.43,432.84h-6.65v6.65h6.65v-6.65ZM211.93,438h-3.65v-3.65h3.65v3.65ZM213.43,440.56h-6.65v6.65h6.65v-6.65ZM211.93,445.71h-3.65v-3.65h3.65v3.65ZM213.43,448.28h-6.65v6.65h6.65v-6.65ZM211.93,453.43h-3.65v-3.65h3.65v3.65ZM205.66,409.69h-6.65v6.65h6.65v-6.65ZM204.16,414.84h-3.65v-3.65h3.65v3.65ZM205.66,417.41h-6.65v6.65h6.65v-6.65ZM204.16,422.56h-3.65v-3.65h3.65v3.65ZM205.66,425.13h-6.65v6.65h6.65v-6.65ZM204.16,430.28h-3.65v-3.65h3.65v3.65ZM205.66,432.84h-6.65v6.65h6.65v-6.65ZM204.16,438h-3.65v-3.65h3.65v3.65ZM205.66,440.56h-6.65v6.65h6.65v-6.65ZM204.16,445.71h-3.65v-3.65h3.65v3.65ZM205.66,448.28h-6.65v6.65h6.65v-6.65ZM204.16,453.43h-3.65v-3.65h3.65v3.65ZM197.89,409.69h-6.65v6.65h6.65v-6.65ZM196.39,414.84h-3.65v-3.65h3.65v3.65ZM197.89,417.41h-6.65v6.65h6.65v-6.65ZM196.39,422.56h-3.65v-3.65h3.65v3.65ZM197.89,425.13h-6.65v6.65h6.65v-6.65ZM196.39,430.28h-3.65v-3.65h3.65v3.65ZM197.89,432.84h-6.65v6.65h6.65v-6.65ZM196.39,438h-3.65v-3.65h3.65v3.65ZM197.89,440.56h-6.65v6.65h6.65v-6.65ZM196.39,445.71h-3.65v-3.65h3.65v3.65ZM197.89,448.28h-6.65v6.65h6.65v-6.65ZM196.39,453.43h-3.65v-3.65h3.65v3.65ZM228.98,456.07h-6.65v6.65h6.65v-6.65ZM227.48,461.22h-3.65v-3.65h3.65v3.65ZM221.2,456.07h-6.65v6.65h6.65v-6.65ZM219.7,461.22h-3.65v-3.65h3.65v3.65ZM213.43,456.07h-6.65v6.65h6.65v-6.65ZM211.93,461.22h-3.65v-3.65h3.65v3.65ZM205.66,456.07h-6.65v6.65h6.65v-6.65ZM204.16,461.22h-3.65v-3.65h3.65v3.65ZM221.2,463.71h-6.65v6.65h6.65v-6.65ZM219.7,468.86h-3.65v-3.65h3.65v3.65ZM213.43,463.71h-6.65v6.65h6.65v-6.65ZM211.93,468.86h-3.65v-3.65h3.65v3.65ZM205.66,463.71h-6.65v6.65h6.65v-6.65ZM204.16,468.86h-3.65v-3.65h3.65v3.65ZM197.89,456.07h-6.65v6.65h6.65v-6.65ZM196.39,461.22h-3.65v-3.65h3.65v3.65ZM197.89,401.61h-6.65v6.65h6.65v-6.65ZM196.39,406.76h-3.65v-3.65h3.65v3.65ZM205.66,401.61h-6.65v6.65h6.65v-6.65ZM204.16,406.76h-3.65v-3.65h3.65v3.65ZM213.43,401.61h-6.65v6.65h6.65v-6.65ZM211.93,406.76h-3.65v-3.65h3.65v3.65ZM221.2,401.61h-6.65v6.65h6.65v-6.65ZM219.7,406.76h-3.65v-3.65h3.65v3.65ZM205.66,393.97h-6.65v6.65h6.65v-6.65ZM204.16,399.12h-3.65v-3.65h3.65v3.65ZM213.43,393.97h-6.65v6.65h6.65v-6.65ZM211.93,399.12h-3.65v-3.65h3.65v3.65ZM221.2,393.97h-6.65v6.65h6.65v-6.65ZM219.7,399.12h-3.65v-3.65h3.65v3.65ZM228.98,401.61h-6.65v6.65h6.65v-6.65ZM227.48,406.76h-3.65v-3.65h3.65v3.65ZM190.11,409.69h-6.65v6.65h6.65v-6.65ZM188.61,414.84h-3.65v-3.65h3.65v3.65ZM190.11,417.41h-6.65v6.65h6.65v-6.65ZM188.61,422.56h-3.65v-3.65h3.65v3.65ZM190.11,425.13h-6.65v6.65h6.65v-6.65ZM188.61,430.28h-3.65v-3.65h3.65v3.65ZM190.11,432.84h-6.65v6.65h6.65v-6.65ZM188.61,438h-3.65v-3.65h3.65v3.65ZM190.11,440.56h-6.65v6.65h6.65v-6.65ZM188.61,445.71h-3.65v-3.65h3.65v3.65ZM190.11,448.28h-6.65v6.65h6.65v-6.65ZM188.61,453.43h-3.65v-3.65h3.65v3.65ZM295.83,441.77v27.05l-66.61,38.46v76.62h0v15.4l67.11,38.74,67.11-38.74v-14.52h0v-76.49l23.79-13.74-89.83-51.86v-19.57l-25.09-13.96c.1-.32.17-.65.17-1,0-1.83-1.49-3.32-3.32-3.32s-3.32,1.49-3.32,3.32,1.49,3.32,3.32,3.32c.94,0,1.79-.4,2.39-1.03l24.35,13.55v17.82l-.08-.04ZM269.16,409.97c-1,0-1.82-.82-1.82-1.82s.82-1.82,1.82-1.82,1.82.82,1.82,1.82-.82,1.82-1.82,1.82ZM230.72,508.14l65.11-37.59v8.46l-57.78,33.36v11.05l-7.33-4.23v-11.05ZM342.33,584.97l-23,13.1.06-41.15-22.33,12.48.04-29.41,45.33-25.17-.1,70.15ZM353.86,580.1l7.33,4.23-64.11,37.01v-8.46l56.78-32.78ZM297.05,571.13l20.83-11.64-.06,39.69-21.49,12.41-21.63-12.49.06-39.67,20.79,11.7.75.42.75-.42ZM295.55,569.4l-22.29-12.54-.06,41.15-22.97-13.17.1-70.15,45.26,25.31-.04,29.41ZM295.58,612.89v8.46l-64.11-37.02,7.33-4.23,56.78,32.78ZM230.72,520.92l7.33,4.23v53.65l-7.33,4.23v-62.11ZM361.94,598.43l-65.61,37.88-65.61-37.88v-12.8l65.62,37.88,65.61-37.88v12.79ZM361.94,583.03l-7.33-4.23v-65.43l7.33-4.23v73.89ZM297.33,444.37l86.91,50.18-30.25,17.46-56.66-32.71v-34.93ZM296.33,480.45l56.78,32.78v65.57l-9.29,5.36.1-71.9-47.59,26.42-47.51-26.56-.11,71.98-9.18-5.3v-65.57l56.78-32.78ZM504.23,387.88h15.87v-15.87h-15.87v15.87ZM505.73,373.51h12.87v12.87h-12.87v-12.87ZM504.23,444.28h15.87v-15.87h-15.87v15.87ZM505.73,429.91h12.87v12.87h-12.87v-12.87ZM328.71,414.76c.92,0,1.68-.75,1.68-1.68s-.75-1.68-1.68-1.68-1.68.75-1.68,1.68.75,1.68,1.68,1.68ZM328.71,412.91c.1,0,.18.08.18.18,0,.19-.35.19-.35,0,0-.1.08-.18.18-.18ZM339.72,415.66h-7.71v15.48h7.71v-15.48ZM338.22,429.64h-4.71v-12.48h4.71v12.48ZM343.02,435.39c.92,0,1.68-.75,1.68-1.68s-.75-1.68-1.68-1.68-1.68.75-1.68,1.68.75,1.68,1.68,1.68ZM343.02,433.54c.1,0,.18.08.18.18,0,.19-.35.19-.35,0,0-.1.08-.18.18-.18ZM343.02,414.76c.92,0,1.68-.75,1.68-1.68s-.75-1.68-1.68-1.68-1.68.75-1.68,1.68.75,1.68,1.68,1.68ZM343.02,412.91c.1,0,.18.08.18.18,0,.19-.35.19-.35,0,0-.1.08-.18.18-.18ZM328.71,435.39c.92,0,1.68-.75,1.68-1.68s-.75-1.68-1.68-1.68-1.68.75-1.68,1.68.75,1.68,1.68,1.68ZM328.71,433.54c.1,0,.18.08.18.18,0,.19-.35.19-.35,0,0-.1.08-.18.18-.18ZM324.33,408.14v30.51h23.07v-30.51h-23.07ZM345.74,437h-19.75v-27.2h19.75v27.2ZM357.37,436.12c.92,0,1.68-.75,1.68-1.68s-.75-1.68-1.68-1.68-1.68.75-1.68,1.68.75,1.68,1.68,1.68ZM357.37,434.27c.1,0,.18.08.18.18,0,.19-.35.19-.35,0,0-.1.08-.18.18-.18ZM368.38,437.01h-7.71v15.48h7.71v-15.48ZM366.88,451h-4.71v-12.48h4.71v12.48ZM371.68,456.75c.92,0,1.68-.75,1.68-1.68s-.75-1.68-1.68-1.68-1.68.75-1.68,1.68.75,1.68,1.68,1.68ZM371.68,454.89c.1,0,.18.08.18.18,0,.19-.35.19-.35,0,0-.1.08-.18.18-.18ZM371.68,436.12c.92,0,1.68-.75,1.68-1.68s-.75-1.68-1.68-1.68-1.68.75-1.68,1.68.75,1.68,1.68,1.68ZM371.68,434.27c.1,0,.18.08.18.18,0,.19-.35.19-.35,0,0-.1.08-.18.18-.18ZM357.37,456.75c.92,0,1.68-.75,1.68-1.68s-.75-1.68-1.68-1.68-1.68.75-1.68,1.68.75,1.68,1.68,1.68ZM357.37,454.89c.1,0,.18.08.18.18,0,.19-.35.19-.35,0,0-.1.08-.18.18-.18ZM352.99,429.5v30.51h23.07v-30.51h-23.07ZM374.4,458.35h-19.75v-27.2h19.75v27.2ZM157.5,768.5l-10.59-23.84-.66.24c-6.77,2.43-14.29,2.63-21.19.54l-.67-.2-9.37,24.35.74.25c6.13,2.06,12.55,3.11,19.08,3.11,7.57,0,14.95-1.4,21.93-4.15l.73-.29ZM134.84,771.44c-6.1,0-12.1-.94-17.86-2.79l8.31-21.59c6.8,1.91,14.14,1.72,20.81-.53l9.39,21.14c-6.59,2.5-13.53,3.76-20.65,3.76ZM105.09,729.06l-.33-.61-23.84,10.59.35.7c6.27,12.61,16.83,22.64,29.73,28.26l.72.31,9.37-24.34-.63-.3c-6.51-3.07-11.96-8.26-15.37-14.61ZM110.89,766.3c-12.01-5.42-21.88-14.8-27.91-26.53l21.13-9.39c3.46,6.15,8.77,11.2,15.09,14.34l-8.3,21.58ZM161.44,766.71c12.61-6.27,22.64-16.83,28.26-29.73l.31-.72-24.34-9.37-.3.63c-3.07,6.51-8.26,11.97-14.61,15.37l-.61.33,10.59,23.84.7-.35ZM166.42,728.79l21.58,8.31c-5.42,12.01-14.8,21.88-26.53,27.91l-9.39-21.13c6.15-3.46,11.2-8.78,14.34-15.09ZM158.68,658.29l-.72-.31-9.37,24.34.63.3c6.51,3.07,11.96,8.26,15.37,14.61l.33.61,23.84-10.59-.35-.7c-6.27-12.61-16.83-22.64-29.73-28.26ZM165.58,695.91c-3.46-6.15-8.77-11.2-15.09-14.34l8.3-21.58c12.01,5.42,21.88,14.8,27.91,26.53l-21.13,9.39ZM191.53,732.22c2.06-6.13,3.11-12.55,3.11-19.08,0-7.57-1.4-14.95-4.15-21.93l-.29-.73-23.84,10.59.24.66c1.32,3.66,1.98,7.5,1.98,11.41,0,3.32-.49,6.61-1.45,9.78l-.2.67,24.35,9.37.25-.74ZM168.77,722.69c.87-3.1,1.31-6.31,1.31-9.55,0-3.85-.62-7.63-1.84-11.26l21.14-9.39c2.5,6.59,3.76,13.53,3.76,20.65,0,6.1-.94,12.1-2.79,17.86l-21.59-8.31ZM134.84,653.34c-7.57,0-14.95,1.4-21.93,4.15l-.73.29,10.59,23.84.66-.24c6.77-2.43,14.29-2.63,21.19-.54l.67.2,9.37-24.35-.74-.25c-6.13-2.06-12.55-3.11-19.08-3.11ZM144.39,679.22c-6.8-1.91-14.14-1.72-20.81.53l-9.39-21.14c6.59-2.5,13.53-3.76,20.65-3.76,6.1,0,12.1.94,17.85,2.79l-8.31,21.59ZM128.81,780.62l-.13,1.49c-33.45-2.95-59.86-29.37-62.81-62.81l1.49-.13c2.89,32.72,28.73,58.56,61.45,61.45ZM78.16,694.06c-2.06,6.13-3.11,12.55-3.11,19.08,0,7.57,1.4,14.95,4.15,21.93l.29.73,23.84-10.59-.24-.66c-1.32-3.66-1.98-7.5-1.98-11.41,0-3.32.49-6.61,1.45-9.78l.2-.67-24.35-9.37-.25.74ZM100.92,703.59c-.87,3.1-1.31,6.31-1.31,9.55,0,3.85.62,7.63,1.84,11.26l-21.14,9.39c-2.5-6.59-3.76-13.53-3.76-20.65,0-6.1.94-12.1,2.79-17.85l21.59,8.31ZM125.19,739.8c3.1,1.12,6.35,1.69,9.66,1.69,3.81,0,7.5-.74,10.99-2.21l.4-.18c6.88-3.02,12.37-8.77,15.07-15.78l.2-.52c1.12-3.09,1.69-6.34,1.69-9.66,0-3.81-.74-7.5-2.21-10.99l-.18-.4c-3.02-6.88-8.77-12.37-15.78-15.07l-.53-.2c-3.1-1.12-6.35-1.69-9.66-1.69-3.8,0-7.5.74-11,2.21l-.4.18c-6.88,3.02-12.37,8.77-15.06,15.77l-.2.53c-1.12,3.09-1.69,6.34-1.69,9.66,0,3.81.74,7.5,2.21,10.99l.18.4c3.02,6.88,8.77,12.37,15.78,15.07l.53.2ZM110.25,723.93l-.17-.39c-1.39-3.3-2.09-6.8-2.09-10.4,0-3.14.54-6.22,1.59-9.13l.2-.52c2.56-6.63,7.76-12.08,14.27-14.94l.39-.17c3.3-1.39,6.8-2.09,10.4-2.09,3.14,0,6.22.54,9.13,1.6l.52.2c6.63,2.56,12.08,7.76,14.94,14.27l.17.39c1.39,3.3,2.09,6.8,2.09,10.4,0,3.14-.54,6.21-1.6,9.14l-.19.5c-2.56,6.64-7.76,12.08-14.28,14.95l-.39.17c-3.3,1.39-6.8,2.09-10.4,2.09-3.14,0-6.22-.54-9.13-1.6l-.51-.2c-6.64-2.56-12.08-7.76-14.95-14.27ZM108.25,659.57c-12.61,6.27-22.64,16.83-28.26,29.73l-.31.72,24.34,9.37.3-.63c3.07-6.51,8.26-11.97,14.61-15.37l.61-.33-10.59-23.84-.7.35ZM103.27,697.49l-21.58-8.3c5.42-12.01,14.8-21.88,26.53-27.91l9.39,21.13c-6.15,3.46-11.2,8.77-14.34,15.09ZM529.41,297.69h0c0-14.55-11.83-26.38-26.38-26.38-7.43,0-14.14,3.09-18.94,8.04h-61.1v-4.61h-12.18v4.61h-52.47v-4.61h-12.17v4.61h-52.47v-4.61h-12.17v4.61h-52.47v-4.61h-12.17v4.61h-52.47v-4.61h-12.17v4.61h-41.06c-4.8-4.96-11.51-8.04-18.94-8.04-14.54,0-26.38,11.83-26.38,26.38v58.66h1.5c0-6.45,5.25-11.7,11.7-11.7s11.7,5.25,11.7,11.7v36.83c0,7.79,6.33,14.12,14.12,14.12s14.12-6.33,14.12-14.12v-5.72c0-6.45,5.24-11.69,11.69-11.69s11.69,5.24,11.69,11.69v74.84c-.17,7.78,6.03,14.25,13.82,14.42,3.75.07,7.35-1.31,10.07-3.92,2.72-2.61,4.27-6.12,4.35-9.89l.07-3.16c8.74,12.55,22.87,20.16,38.25,20.48.34,0,.68.01,1.02.01,24.51,0,45.34-18.84,47.65-43.32l.04-.47-5.23-3.18,5.37-2.95-.02-.47c-.82-15.98-9.59-29.9-22.36-37.96h19.36v1.68h126.43c8.33,30.14,17.48,79.03,17.16,147.87v.75s.46,0,.46,0v50.46l2.92,9.61,2.92-9.5v-50.57h.39v-.75c.32-67.63-8.49-116.81-16.72-147.88h27.19c8.33,30.14,17.48,79.03,17.16,147.87v.75s.46,0,.46,0v50.46l2.92,9.61,2.92-9.5v-50.57h.39v-.75c.32-67.63-8.49-116.81-16.72-147.88h29.35v-1.98h9.94c6.04,0,11.88,1.11,16.9,3.2l21.45,8.93v16.33h22.29v4.5h-22.29v23.79h22.29v26.94h-7.74v9.56h-14.55v24.94h14.55v3.87h7.74v21.6h-22.29v23.79h22.29v4.5h-22.29v23.79h22.29v4.5h-22.29v23.79h22.94v3.15h-135.4l-9.61,2.92,9.5,2.92h135.51v3.29h-105.39l-9.61,2.92,9.5,2.92h105.51v49.96c-10.16-22.29-31.65-38.2-57.25-40.46l-.82-.07v6.38h-10.78v-6.38l-.82.07c-20.03,1.77-37.55,11.89-49.09,26.88h-215.32c-11.46-14.45-28.59-24.19-48.12-25.91l-.82-.07v6.33h-10.7v-6.33l-.82.07c-30.22,2.67-54.69,24.49-61.31,53.34v-55.25h26.26v-7.93h12.23c4.45,0,8.07-3.62,8.07-8.07s-3.62-8.07-8.07-8.07h-12.23v-9.96h32.48c4.45,0,8.07-3.62,8.07-8.07s-3.62-8.07-8.07-8.07h-32.48v-9.96h47.26c4.45,0,8.07-3.62,8.07-8.07s-3.62-8.07-8.07-8.07h-47.26v-36.5h-26.26v-157.4h-1.5v194.65h.75v.75h74.28c3.62,0,6.57,2.95,6.57,6.57s-2.95,6.57-6.57,6.57h-74.28v.75h-.75v11.46h.75v.75h59.5c3.62,0,6.57,2.95,6.57,6.57s-2.95,6.57-6.57,6.57h-59.5v.75h-.75v11.46h.75v.75h39.25c3.62,0,6.57,2.95,6.57,6.57s-2.95,6.57-6.57,6.57h-39.25v.74h-.75v73.39s0,0,0,0h0v.07h.77l.72.06c2.86-32.45,28.3-58.13,60.64-61.38v6.19h13.7v-6.19c32.06,3.21,57.35,28.5,60.56,60.56h-6.19v13.7h6.19c-3.24,32.33-28.93,57.77-61.38,60.64l.07.75v.75h312.65l.07-1.5c-32.69-2.88-58.56-28.51-61.82-61.08h6.23v-13.78h-6.23c3.23-32.3,28.7-57.77,61-61v6.23h13.78v-6.23c32.57,3.26,58.19,29.13,61.08,61.82l.06.68h1.64v-409.57h0ZM92.13,565.97h-24.76v-35h24.76v35ZM92.13,592.08h-24.76v-9.96h24.76v9.96ZM92.13,618.18h-24.76v-9.96h24.76v9.96ZM67.37,634.33h24.76v6.43h-24.76v-6.43ZM390.27,706.45l-.07.82h6.38v10.78h-6.38l.07.82c2.69,30.44,24.68,55.1,53.76,61.76H150.47c28.86-6.62,50.69-31.09,53.36-61.32l.07-.82h-6.33v-10.7h6.33l-.07-.82c-1.17-13.25-6.03-25.38-13.54-35.4h213.05c-7.24,9.94-11.91,21.87-13.06,34.87ZM503.03,272.81c13.72,0,24.88,11.16,24.88,24.88s-11.16,24.88-24.88,24.88c-6.47,0-12.37-2.48-16.8-6.54h16.8c10.11,0,18.33-8.22,18.33-18.33s-8.22-18.33-18.33-18.33h-16.8c4.43-4.06,10.33-6.54,16.8-6.54ZM410.81,309.92v4.61h-52.47v-4.61h-12.17v4.61h-52.47v-4.61h-12.17v4.61h-52.47v-4.61h-12.17v4.61h-52.47v-4.61h-12.17v4.61h-39.71c3.65-4.39,5.9-9.98,6.07-16.08h358.07c.17,6.1,2.42,11.69,6.07,16.08h-59.75v-4.61h-12.18ZM421.49,311.42v3.11h-9.18v-3.11h9.18ZM356.85,311.42v3.11h-9.17v-3.11h9.17ZM292.2,311.42v3.11h-9.17v-3.11h9.17ZM227.56,311.42v3.11h-9.17v-3.11h9.17ZM162.92,311.42v3.11h-9.17v-3.11h9.17ZM110.54,298.44h6.56c-.18,6.19-2.64,11.82-6.56,16.08h-11.05c6.29-2.72,10.75-8.87,11.05-16.08ZM92.24,314.52c-9.28,0-16.83-7.55-16.83-16.83s7.55-16.83,16.83-16.83,16.83,7.55,16.83,16.83-7.55,16.83-16.83,16.83ZM186.07,296.94v-3.11h9.17v3.11h-9.17ZM250.71,296.94v-3.11h9.17v3.11h-9.17ZM315.35,296.94v-3.11h9.17v3.11h-9.17ZM379.99,296.94v-3.11h9.17v3.11h-9.17ZM478.17,298.44h6.56c.29,7.21,4.75,13.36,11.05,16.08h-11.05c-3.92-4.26-6.38-9.89-6.56-16.08ZM486.2,297.69c0-9.28,7.55-16.83,16.83-16.83s16.83,7.55,16.83,16.83-7.55,16.83-16.83,16.83-16.83-7.55-16.83-16.83ZM484.73,280.86h11.05c-6.29,2.72-10.75,8.87-11.05,16.08h-6.56c.18-6.19,2.64-11.82,6.56-16.08ZM412.31,276.25h9.18v3.11h-9.18v-3.11ZM347.67,276.25h9.17v3.11h-9.17v-3.11ZM283.03,276.25h9.17v3.11h-9.17v-3.11ZM218.39,276.25h9.17v3.11h-9.17v-3.11ZM153.75,276.25h9.17v3.11h-9.17v-3.11ZM152.25,280.86h330.5c-3.65,4.39-5.9,9.98-6.07,16.08h-86.01v-4.61h-12.17v4.61h-52.47v-4.61h-12.17v4.61h-52.47v-4.61h-12.17v4.61h-52.47v-4.61h-12.17v4.61h-65.97c-.17-6.1-2.42-11.69-6.07-16.08h39.71ZM117.1,296.94h-6.56c-.29-7.21-4.75-13.36-11.05-16.08h11.05c3.92,4.26,6.38,9.89,6.56,16.08ZM92.24,272.81c6.47,0,12.37,2.48,16.8,6.54h-16.8c-10.11,0-18.33,8.22-18.33,18.33s8.22,18.33,18.33,18.33h16.8c-4.43,4.06-10.33,6.54-16.8,6.54-13.72,0-24.88-11.16-24.88-24.88s11.16-24.88,24.88-24.88ZM254.76,390.39h-21.89c-2.82-1.55-5.82-2.82-8.94-3.78h30.83v3.78ZM254.76,385.11h-37.27c-2.13-.34-4.3-.55-6.51-.59-16.19-.34-31.33,7.43-40.51,20.8l-.13.18-.27,12.64,1.5.03.26-12.19c8.9-12.84,23.52-20.3,39.11-19.97,1.98.04,3.92.22,5.84.51v.09h.61c21.02,3.43,37.5,21.14,38.84,42.85l-6.81,3.74,6.65,4.03c-2.45,23.48-22.52,41.49-46.11,41.49-.33,0-.66,0-.98-.01-15.69-.33-30.02-8.48-38.35-21.8l-1.33-2.13-.17,8.07c-.07,3.37-1.45,6.51-3.88,8.84-2.43,2.33-5.67,3.58-9,3.51-6.96-.15-12.5-5.93-12.35-12.9v-74.86c0-7.27-5.92-13.19-13.19-13.19s-13.19,5.92-13.19,13.19v5.72c0,6.96-5.66,12.62-12.62,12.62s-12.62-5.66-12.62-12.62v-37.19h-.02c-.02-.69-.09-1.36-.21-2.01h41.91c.37,2.61,2.6,4.64,5.31,4.64h23.15c2.71,0,4.94-2.02,5.31-4.64h55.14v6.62h3.57v7.24h1.5v-7.24h3.44v7.24h1.5v-7.24h3.44v7.24h1.5v-7.24h3.44v7.24h1.5v-7.24h3.44v7.24h1.5v-7.24h3.44v7.24h1.5v-7.24h3.44v7.24h1.5v-7.24h3.57v-6.62h47.26c.37,2.61,2.6,4.64,5.31,4.64h23.15c2.65,0,4.85-1.93,5.29-4.45h25.79v2.33l.09.16c.12.22,4.57,8.85,10.03,26.25h-123.29v2.21ZM150.84,349.88c-1.59,0-2.91,1.11-3.26,2.6h-12.13c.35-1.78,1.92-3.14,3.81-3.14h23.15c1.89,0,3.46,1.35,3.81,3.14h-12.13c-.34-1.49-1.67-2.6-3.26-2.6ZM152.69,353.23c0,1.02-.83,1.85-1.85,1.85s-1.85-.83-1.85-1.85.83-1.85,1.85-1.85,1.85.83,1.85,1.85ZM147.58,353.98c.34,1.49,1.67,2.6,3.26,2.6s2.91-1.11,3.26-2.6h12.13c-.35,1.78-1.92,3.14-3.81,3.14h-23.15c-1.89,0-3.46-1.35-3.81-3.14h12.13ZM255.28,357.17l2.74,1.93h-32.03l2.74-1.93h26.56ZM229.23,355.67v-4.99h25.53v4.99h-25.53ZM256.26,356.03v-5.71l3.37-2.37v10.45l-3.37-2.37ZM255.28,349.18h-26.56l-2.74-1.93h32.03l-2.74,1.93ZM227.73,350.32v5.71l-3.37,2.37v-10.45l3.37,2.37ZM325.46,350.06c-1.52,0-2.79,1.03-3.2,2.42h-12.36c.35-1.78,1.92-3.14,3.81-3.14h23.15c1.95,0,3.55,1.44,3.83,3.32h-11.96c-.34-1.49-1.67-2.6-3.26-2.6ZM327.31,353.41c0,1.02-.83,1.85-1.85,1.85s-1.85-.83-1.85-1.85.83-1.85,1.85-1.85,1.85.83,1.85,1.85ZM322.17,353.98c.27,1.57,1.64,2.78,3.29,2.78s2.91-1.11,3.26-2.6h11.9c-.42,1.69-1.94,2.95-3.76,2.95h-23.15c-1.89,0-3.46-1.35-3.81-3.14h12.27ZM373.22,354.16c.28.57,4.94,10.11,10.54,28.74h-4.13c-5.19-16.63-9.52-25.46-10.19-26.78v-1.96h3.78ZM369.43,352.66v-23.09c0-.99.8-1.79,1.79-1.79s1.79.8,1.79,1.79v21.58s.06,1.51.06,1.51h-3.64ZM402.33,356.65c.12.22,4.57,8.85,10.03,26.25h-27.05c-4.96-16.61-9.22-26.17-10.43-28.74h27.36v2.33l.09.16ZM407.52,354.16c.28.57,5.39,11.61,10.98,30.24h-4.11c-5.19-16.63-9.98-26.96-10.65-28.28v-1.96h3.78ZM403.74,352.66v-23.09c0-.99.8-1.79,1.79-1.79s1.79.8,1.79,1.79v21.27s.07,1.82.07,1.82h-3.64ZM256.26,392.07v-7.67h122.26c.74,2.4,1.49,4.96,2.26,7.67h-124.52ZM380.09,384.4h4.11c.71,2.41,1.44,4.97,2.17,7.67h-4.03c-.76-2.71-1.51-5.27-2.25-7.67ZM403.15,592.54l-1.42,4.61-1.42-4.61v-50.34h2.83v50.34ZM403.54,540.7h-3.68c.25-68.27-8.8-116.93-17.11-147.13h4.02c8.2,30.8,17.02,79.73,16.78,147.13ZM387.91,392.07c-.73-2.7-1.45-5.26-2.16-7.67h27.07c.74,2.4,1.49,4.96,2.26,7.67h-27.18ZM414.39,384.4h4.11c.71,2.41,1.84,6.47,2.57,9.17h-4.02c-.76-2.71-1.93-6.77-2.66-9.17ZM437.46,592.54l-1.42,4.61-1.42-4.61v-50.34h2.83v50.34ZM437.85,540.7h-3.68c.25-68.27-8.8-116.93-17.11-147.13h4.02c8.2,30.8,17.02,79.73,16.77,147.13ZM450.47,385.11l-.08.56v6.48l.08-.56v.48h-28.25c-.73-2.7-1.45-5.26-2.16-7.67h30.4v.71ZM500.25,402.09l-20.87-8.69c-5.2-2.17-11.24-3.31-17.47-3.31h-9.94v-3.48h11.91c8.14,0,15.8,1.99,21.57,5.59l14.81,9.24v.65ZM500.25,399.67l-14.01-8.74c-6-3.75-13.95-5.82-22.36-5.82h-11.91v-2.21h-32.35c-4.96-16.61-9.22-26.17-10.43-28.74h49.08v6.67h3.57v7.24h1.5v-7.24h3.44v7.24h1.5v-7.24h3.44v7.24h1.5v-7.24h3.44v7.24h1.5v-7.24h3.44v7.24h1.5v-7.24h3.44v7.24h1.5v-7.24h3.44v7.24h1.5v-7.24h3.57v-6.67h23.5c.29,1.24,1.26,2.22,2.51,2.51v11.3h-22.29v23.79h22.29v4.5h-22.29v3.42ZM490.68,357.4l2.74,1.93h-32.03l2.74-1.93h26.56ZM464.64,355.9v-4.99h25.53v4.99h-25.53ZM491.67,356.26v-5.71l3.37-2.37v10.45l-3.37-2.37ZM490.68,349.41h-26.56l-2.74-1.93h32.03l-2.74,1.93ZM463.14,350.55v5.71l-3.37,2.37v-10.45l3.37,2.37ZM521.45,353.41c0-1.02.83-1.85,1.85-1.85s1.85.83,1.85,1.85-.83,1.85-1.85,1.85-1.85-.83-1.85-1.85ZM501.75,402.38l1.62,1.01-1.62-.67v-.34ZM516.31,512.13v-3.87h-14.55v-21.94h14.55v-9.56h6.24v13.36h-2.96v18.04h2.96v3.96h-6.24ZM522.54,491.62v15.04h-1.46v-15.04h1.46ZM527.91,697.88c-.79-3.69-1.87-7.27-3.22-10.71v-54.98h-106.78l-4.61-1.42,4.61-1.42h106.78v-6.29h-136.79l-4.61-1.42,4.61-1.42h136.79v-6.15h-22.94v-20.79h22.29v-7.5h-22.29v-20.79h22.29v-7.5h-22.29v-20.79h21.54v-.75h.75v-89.15h-22.29v-20.79h22.29v-7.5h-22.29v-14.2l2.48,1.03v10.71h15.87v-15.87h-15.87v1.95l-2.48-1.55v-2.86h22.29v-7.5h-22.29v-20.79h22.29v-12.8c1.49-.34,2.6-1.67,2.6-3.26,0-1.85-1.5-3.35-3.35-3.35-1.59,0-2.91,1.11-3.26,2.6h-23.5v-6.67h-3.57v-7.24h-1.5v7.24h-3.44v-7.24h-1.5v7.24h-3.44v-7.24h-1.5v7.24h-3.44v-7.24h-1.5v7.24h-3.44v-7.24h-1.5v7.24h-3.44v-7.24h-1.5v7.24h-3.44v-7.24h-1.5v7.24h-3.57v6.67h-49.38l-.07-1.85v-21.25c0-1.81-1.48-3.29-3.29-3.29s-3.29,1.48-3.29,3.29v23.09h-27.67l-.06-1.54v-21.55c0-1.81-1.48-3.29-3.29-3.29s-3.29,1.48-3.29,3.29v23.09h-25.76c-.29-2.7-2.55-4.82-5.33-4.82h-23.15c-2.71,0-4.94,2.02-5.31,4.64h-47.26v-6.73h-3.57v-7.24h-1.5v7.24h-3.44v-7.24h-1.5v7.24h-3.44v-7.24h-1.5v7.24h-3.44v-7.24h-1.5v7.24h-3.44v-7.24h-1.5v7.24h-3.44v-7.24h-1.5v7.24h-3.44v-7.24h-1.5v7.24h-3.57v6.73h-55.14c-.37-2.61-2.6-4.64-5.31-4.64h-23.15c-2.71,0-4.94,2.02-5.31,4.64h-42.27c-1.66-5.39-6.69-9.32-12.62-9.32-5.08,0-9.5,2.89-11.7,7.11v-43.82c3.62,10.25,13.4,17.62,24.88,17.62,7.43,0,14.14-3.09,18.94-8.04h372.91c4.8,4.96,11.51,8.04,18.94,8.04,11.48,0,21.26-7.37,24.88-17.62v391.43ZM505.73,403.09v-1.38h12.87v12.87h-12.87v-8.58l5.51,2.3.69-1.33-6.2-3.87ZM349.92,481.98c-.81-.47-1.75-.59-2.65-.35-.9.24-1.65.82-2.12,1.63-.47.81-.59,1.75-.35,2.65.24.9.82,1.65,1.63,2.12.54.31,1.14.47,1.74.47.3,0,.61-.04.91-.12.9-.24,1.65-.82,2.12-1.63.47-.81.59-1.75.35-2.65-.24-.9-.82-1.65-1.63-2.12ZM349.9,486c-.27.46-.7.79-1.21.93-.51.14-1.05.07-1.51-.2s-.79-.7-.93-1.21-.07-1.05.2-1.51.7-.79,1.21-.93c.17-.05.35-.07.52-.07.35,0,.69.09.99.27.46.27.79.7.93,1.21s.07,1.05-.2,1.51ZM350.87,480.32c-1.25-.72-2.71-.91-4.1-.54-1.39.37-2.56,1.27-3.28,2.52-.72,1.25-.91,2.71-.54,4.1.37,1.39,1.27,2.56,2.52,3.28.83.48,1.76.73,2.69.73.47,0,.94-.06,1.41-.19,1.39-.37,2.56-1.27,3.28-2.52.72-1.25.91-2.71.54-4.1s-1.27-2.56-2.52-3.28ZM351.55,486.96c-.52.9-1.36,1.55-2.37,1.82-1.01.27-2.06.13-2.96-.39-.9-.52-1.55-1.36-1.82-2.37-.27-1.01-.13-2.06.39-2.96s1.36-1.55,2.37-1.82c.34-.09.68-.13,1.02-.13.68,0,1.34.18,1.95.52.9.52,1.55,1.36,1.82,2.37.27,1.01.13,2.06-.39,2.96ZM333.06,480.31c.54.31,1.14.47,1.74.47.3,0,.61-.04.91-.12.9-.24,1.65-.82,2.12-1.63.47-.81.59-1.75.35-2.65-.24-.9-.82-1.65-1.63-2.12-1.67-.96-3.81-.39-4.77,1.28-.47.81-.59,1.75-.35,2.65.24.9.82,1.65,1.63,2.12ZM333.08,476.29c.27-.46.7-.79,1.21-.93.17-.05.35-.07.52-.07.35,0,.69.09.99.27.46.27.79.7.93,1.21s.07,1.05-.2,1.51-.7.79-1.21.93c-.51.14-1.05.07-1.51-.2-.95-.55-1.28-1.77-.73-2.72ZM332.1,481.96c.85.49,1.78.72,2.69.72,1.87,0,3.69-.97,4.69-2.7.72-1.25.91-2.71.54-4.1-.37-1.39-1.27-2.56-2.52-3.28-1.25-.72-2.71-.91-4.1-.54-1.39.37-2.56,1.27-3.28,2.52s-.91,2.71-.54,4.1,1.27,2.56,2.52,3.28ZM331.42,475.33c.52-.9,1.36-1.55,2.37-1.82.34-.09.68-.13,1.02-.13.68,0,1.34.18,1.95.52.9.52,1.55,1.36,1.82,2.37.27,1.01.13,2.06-.39,2.96-1.08,1.86-3.47,2.5-5.33,1.43-.9-.52-1.55-1.36-1.82-2.37-.27-1.01-.13-2.06.39-2.96ZM319.69,472.59c.55.32,1.15.47,1.74.47,1.21,0,2.38-.63,3.03-1.75.47-.81.59-1.75.35-2.65-.24-.9-.82-1.65-1.63-2.12-.81-.47-1.75-.59-2.65-.35-.9.24-1.65.82-2.12,1.63-.96,1.67-.39,3.81,1.28,4.77ZM319.71,468.57c.27-.46.7-.79,1.21-.93.51-.14,1.05-.07,1.51.2.46.27.79.7.93,1.21s.07,1.05-.2,1.51-.7.79-1.21.93-1.05.07-1.51-.2c-.95-.55-1.28-1.77-.73-2.72ZM318.73,474.25c.83.48,1.76.73,2.69.73.47,0,.94-.06,1.41-.19,1.39-.37,2.56-1.27,3.28-2.52s.91-2.71.54-4.1c-.37-1.39-1.27-2.56-2.52-3.28-2.58-1.49-5.89-.6-7.38,1.98-1.49,2.58-.6,5.89,1.98,7.38ZM318.05,467.61c1.08-1.86,3.47-2.51,5.33-1.43.9.52,1.55,1.36,1.82,2.37.27,1.01.13,2.06-.39,2.96s-1.36,1.55-2.37,1.82c-1.01.27-2.06.13-2.96-.39-1.86-1.08-2.5-3.47-1.43-5.33ZM337.38,488.26c-.81-.47-1.75-.59-2.65-.35-.9.24-1.65.82-2.12,1.63-.47.81-.59,1.75-.35,2.65.24.9.82,1.65,1.63,2.12.54.31,1.14.47,1.74.47.3,0,.61-.04.91-.12.9-.24,1.65-.82,2.12-1.63.96-1.67.39-3.81-1.28-4.77ZM337.36,492.28c-.27.46-.7.79-1.21.93-.51.14-1.05.07-1.51-.2-.46-.27-.79-.7-.93-1.21s-.07-1.05.2-1.51.7-.79,1.21-.93c.17-.05.35-.07.52-.07.35,0,.69.09.99.27.46.27.79.7.93,1.21s.07,1.05-.2,1.51ZM338.34,486.6c-1.25-.72-2.71-.91-4.1-.54-1.39.37-2.56,1.27-3.28,2.52-.72,1.25-.91,2.71-.54,4.1.37,1.39,1.27,2.56,2.52,3.28.83.48,1.76.73,2.69.73.47,0,.94-.06,1.41-.19,1.39-.37,2.56-1.27,3.28-2.52.72-1.25.91-2.71.54-4.1s-1.27-2.56-2.52-3.28ZM339.01,493.23c-.52.9-1.36,1.55-2.37,1.82-1.01.27-2.06.13-2.96-.39-.9-.52-1.55-1.36-1.82-2.37-.27-1.01-.13-2.06.39-2.96s1.36-1.55,2.37-1.82c.34-.09.68-.13,1.02-.13.68,0,1.34.18,1.95.52.9.52,1.55,1.36,1.82,2.37.27,1.01.13,2.06-.39,2.96ZM324.01,480.54c-1.67-.96-3.81-.39-4.77,1.28-.47.81-.59,1.75-.35,2.65.24.9.82,1.65,1.63,2.12.55.32,1.15.47,1.74.47,1.21,0,2.38-.63,3.03-1.75.47-.81.59-1.75.35-2.65-.24-.9-.82-1.65-1.63-2.12ZM323.99,484.56c-.27.46-.7.79-1.21.93-.51.14-1.05.07-1.51-.2-.95-.55-1.28-1.77-.73-2.72.27-.46.7-.79,1.21-.93.17-.05.35-.07.52-.07.35,0,.69.09.99.27.46.27.79.7.93,1.21s.07,1.05-.2,1.51ZM324.97,478.88c-2.58-1.49-5.89-.6-7.38,1.98-.72,1.25-.91,2.71-.54,4.1s1.27,2.56,2.52,3.28c.85.49,1.78.72,2.69.72,1.87,0,3.69-.97,4.69-2.7.72-1.25.91-2.71.54-4.1s-1.27-2.56-2.52-3.28ZM325.64,485.52c-1.08,1.86-3.47,2.5-5.33,1.43-.9-.52-1.55-1.36-1.82-2.37-.27-1.01-.13-2.06.39-2.96.72-1.25,2.04-1.95,3.39-1.95.66,0,1.33.17,1.95.52.9.52,1.55,1.36,1.82,2.37.27,1.01.13,2.06-.39,2.96ZM82.34,479.38h42.87v-42.87h-42.87v42.87ZM84.9,477.88l3.18-3.18h31.4l3.18,3.18h-37.75ZM88.52,473.2v-30.52h30.52v30.52h-30.52ZM123.71,476.82l-3.18-3.18v-31.4l3.18-3.18v37.75ZM122.65,438.01l-3.18,3.18h-31.4l-3.18-3.18h37.75ZM83.84,439.07l3.18,3.18v31.4l-3.18,3.18v-37.75ZM124.39,484.01h-1.5v8.72l86.93,73.58c-.08.27-.14.55-.14.84,0,1.62,1.32,2.94,2.94,2.94s2.94-1.32,2.94-2.94-1.32-2.94-2.94-2.94c-.78,0-1.48.31-2,.8l-86.22-72.98v-8.03ZM212.62,565.72c.79,0,1.44.64,1.44,1.44s-.64,1.44-1.44,1.44-1.44-.64-1.44-1.44.64-1.44,1.44-1.44ZM156.89,454.4c-4.59,0-8.32,3.73-8.32,8.32s3.73,8.32,8.32,8.32,8.32-3.73,8.32-8.32-3.73-8.32-8.32-8.32ZM156.89,469.55c-3.76,0-6.82-3.06-6.82-6.82s3.06-6.82,6.82-6.82,6.82,3.06,6.82,6.82-3.06,6.82-6.82,6.82ZM105.05,385.11c-4.59,0-8.32,3.73-8.32,8.32s3.73,8.32,8.32,8.32,8.32-3.73,8.32-8.32-3.73-8.32-8.32-8.32ZM105.05,400.25c-3.76,0-6.82-3.06-6.82-6.82s3.06-6.82,6.82-6.82,6.82,3.06,6.82,6.82-3.06,6.82-6.82,6.82ZM153.56,466.05h6.65v-6.65h-6.65v6.65ZM155.06,460.9h3.65v3.65h-3.65v-3.65ZM101.72,396.76h6.65v-6.65h-6.65v6.65ZM103.22,391.61h3.65v3.65h-3.65v-3.65ZM460.36,575.51h18.62v-18.62h-18.62v18.62ZM461.86,558.39h15.62v15.62h-15.62v-15.62ZM469.67,559.32c-3.79,0-6.88,3.09-6.88,6.88s3.09,6.88,6.88,6.88,6.88-3.09,6.88-6.88-3.09-6.88-6.88-6.88ZM469.67,571.58c-2.97,0-5.38-2.41-5.38-5.38s2.41-5.38,5.38-5.38,5.38,2.41,5.38,5.38-2.41,5.38-5.38,5.38ZM467.15,562.28l3.08,3.42-1.12,1-3.08-3.42,1.12-1ZM204.68,754.26l-15.3,13.79h213.91l-15.3-13.79h-183.3ZM193.28,766.55l11.97-10.79h182.15l11.97,10.79h-206.1ZM216.81,733.36l-13.27,13.79h185.57l-13.27-13.79h-159.04ZM207.07,745.65l10.38-10.79h157.76l10.38,10.79h-178.52ZM221,725.48h64.89c2.83,0,5.13-2.3,5.13-5.13v-36.63c0-2.83-2.3-5.13-5.13-5.13h-64.89c-2.83,0-5.13,2.3-5.13,5.13v36.63c0,2.83,2.3,5.13,5.13,5.13ZM217.37,683.72c0-2,1.63-3.63,3.63-3.63h64.89c2,0,3.63,1.63,3.63,3.63v36.63c0,2-1.63,3.63-3.63,3.63h-64.89c-2,0-3.63-1.63-3.63-3.63v-36.63ZM224.9,722.02h57.1c2.5,0,4.53-2.03,4.53-4.53v-30.91c0-2.5-2.03-4.53-4.53-4.53h-57.1c-2.5,0-4.53,2.03-4.53,4.53v30.91c0,2.5,2.03,4.53,4.53,4.53ZM280.71,683.55h1.29c1.67,0,3.03,1.36,3.03,3.03v30.91c0,1.67-1.36,3.03-3.03,3.03h-1.29v-36.97ZM227.68,683.55h51.53v36.97h-51.53v-36.97ZM221.87,686.58c0-1.67,1.36-3.03,3.03-3.03h1.29v36.97h-1.29c-1.67,0-3.03-1.36-3.03-3.03v-30.91ZM230.61,701.87c0,1.62.89,2.49,2,2.49.9,0,1.6-.58,1.77-1.39h.59c-.2,1.1-1.1,1.94-2.36,1.94-1.5,0-2.58-1.19-2.58-3.04s1.07-3.04,2.58-3.04c1.25,0,2.15.82,2.36,1.94h-.59c-.16-.81-.87-1.39-1.77-1.39-1.11,0-2.01.88-2,2.49ZM237.73,700.32c-1.17,0-1.98.94-1.97,2.31,0,1.36.81,2.29,1.97,2.29,1.16,0,1.97-.93,1.96-2.29,0-1.37-.8-2.3-1.96-2.31ZM237.73,704.42c-.92,0-1.41-.82-1.41-1.79s.5-1.8,1.41-1.8c.91,0,1.41.82,1.41,1.8s-.5,1.79-1.41,1.79ZM246.35,701.85v2.98h-.56v-2.97c0-.69-.38-1.03-.96-1.02-.67,0-1.04.45-1.04,1.08v2.91h-.56v-3.02c0-.58-.35-.98-.94-.97-.6,0-1.06.48-1.06,1.16v2.83h-.56v-4.44h.54v.69h.05c.18-.47.61-.74,1.19-.74.61,0,1,.3,1.2.8h.03c.2-.49.67-.8,1.32-.8.82,0,1.35.52,1.35,1.52ZM253.24,701.85v2.98h-.56v-2.97c0-.69-.38-1.03-.96-1.02-.67,0-1.04.45-1.04,1.08v2.91h-.56v-3.02c0-.58-.35-.98-.94-.97-.6,0-1.06.48-1.05,1.16v2.83h-.56v-4.44h.54v.69h.05c.18-.47.61-.74,1.19-.74.61,0,1,.3,1.2.8h.03c.2-.49.67-.8,1.32-.8.82,0,1.35.52,1.35,1.52ZM254.45,700.39h.56v4.44h-.56v-4.44ZM255.15,699.24c0,.22-.19.39-.41.38-.23,0-.41-.17-.41-.38s.18-.39.41-.39c.22,0,.4.18.41.39ZM257.72,704.36l.37-.02v.52c-.09,0-.23.02-.42.02-.58,0-1.16-.38-1.16-1.11v-2.92h-.66v-.47h.66v-1.06h.56v1.06h.93v.47h-.93v2.78c0,.56.31.72.65.72ZM264.69,701.85v2.98h-.56v-2.97c0-.69-.38-1.03-.96-1.02-.67,0-1.04.45-1.04,1.08v2.91h-.56v-3.02c0-.58-.35-.98-.94-.97-.6,0-1.06.48-1.05,1.16v2.83h-.56v-4.44h.54v.69h.05c.18-.47.61-.74,1.19-.74.61,0,1,.3,1.2.8h.03c.2-.49.67-.8,1.32-.8.82,0,1.35.52,1.35,1.52ZM267.63,700.32c-1.16,0-1.96.96-1.95,2.31,0,1.35.78,2.29,2.04,2.28.9,0,1.53-.48,1.73-1.1h-.6c-.16.28-.52.6-1.13.6-.88,0-1.46-.64-1.48-1.64h3.3v-.26c0-1.51-.93-2.19-1.9-2.19ZM266.23,702.29c.05-.8.6-1.47,1.4-1.46.78,0,1.32.63,1.32,1.46h-2.72ZM273.9,701.96v2.87h-.56v-2.83c0-.72-.43-1.17-1.1-1.16-.69,0-1.19.47-1.19,1.23v2.76h-.56v-4.44h.54v.7h.05c.21-.46.65-.76,1.31-.76.9,0,1.5.57,1.5,1.63ZM276.6,704.36l.37-.02v.52c-.09,0-.23.02-.42.02-.58,0-1.16-.38-1.16-1.11v-2.92h-.66v-.47h.66v-1.06h.56v1.06h.93v.47h-.93v2.78c0,.56.31.72.65.72ZM306.77,725.48h64.89c2.83,0,5.13-2.3,5.13-5.13v-36.63c0-2.83-2.3-5.13-5.13-5.13h-64.89c-2.83,0-5.13,2.3-5.13,5.13v36.63c0,2.83,2.3,5.13,5.13,5.13ZM303.14,683.72c0-2,1.63-3.63,3.63-3.63h64.89c2,0,3.63,1.63,3.63,3.63v36.63c0,2-1.63,3.63-3.63,3.63h-64.89c-2,0-3.63-1.63-3.63-3.63v-36.63ZM310.66,722.02h57.1c2.5,0,4.53-2.03,4.53-4.53v-30.91c0-2.5-2.03-4.53-4.53-4.53h-57.1c-2.5,0-4.53,2.03-4.53,4.53v30.91c0,2.5,2.03,4.53,4.53,4.53ZM366.48,683.55h1.29c1.67,0,3.03,1.36,3.03,3.03v30.91c0,1.67-1.36,3.03-3.03,3.03h-1.29v-36.97ZM313.45,683.55h51.53v36.97h-51.53v-36.97ZM307.63,686.58c0-1.67,1.36-3.03,3.03-3.03h1.29v36.97h-1.29c-1.67,0-3.03-1.36-3.03-3.03v-30.91ZM330.16,698.91h4.33v.52h-1.86v5.4h-.59v-5.4h-1.87v-.52ZM336.76,700.32c.09,0,.22,0,.29,0v.56s-.18-.04-.33-.03c-.68,0-1.18.47-1.18,1.11v2.85h-.56v-4.44h.54v.69h.04c.18-.45.65-.75,1.2-.75ZM340.6,700.39h.56v4.44h-.56v-.74h-.04c-.2.45-.66.79-1.32.79-.85,0-1.46-.57-1.46-1.63v-2.87h.56v2.83c0,.68.44,1.13,1.06,1.13.58,0,1.2-.43,1.19-1.23v-2.72ZM345.44,703.62c0,.76-.61,1.3-1.66,1.3-.95,0-1.53-.43-1.64-1.22h.58c.09.48.45.73,1.06.73.67,0,1.1-.3,1.1-.78,0-.35-.25-.6-.77-.72l-.68-.16c-.75-.18-1.14-.59-1.15-1.18,0-.74.64-1.27,1.57-1.27.87,0,1.43.48,1.53,1.17h-.56c-.1-.42-.43-.68-.97-.68-.59,0-1.01.32-1.01.75,0,.34.25.58.79.71l.68.16c.75.18,1.12.58,1.12,1.18ZM347.93,704.36l.37-.02v.52c-.09,0-.23.02-.42.02-.58,0-1.16-.38-1.16-1.11v-2.92h-.66v-.47h.66v-1.06h.56v1.06h.93v.47h-.93v2.78c0,.56.31.72.65.72ZM518.25,575.28l-1.15-2.39,1.38-3.93-3.93,1.38-2.4-1.15-2.4,1.15-3.93-1.38,1.38,3.93-1.15,2.4,1.15,2.4-1.38,3.93,3.93-1.38,2.4,1.15,2.4-1.15,3.94,1.38-1.38-3.9,1.15-2.44ZM516.02,579.16l-1.56-.55-2.31,1.11-2.31-1.11-1.58.55.55-1.57-1.11-2.31,1.11-2.31-.55-1.58,1.57.55,2.31-1.11,2.31,1.11,1.58-.55-.55,1.57,1.11,2.31-1.11,2.36.54,1.52ZM518.25,547.06l-1.15-2.39,1.38-3.93-3.93,1.38-2.4-1.15-2.4,1.15-3.93-1.38,1.38,3.93-1.15,2.4,1.15,2.4-1.38,3.93,3.93-1.38,2.4,1.15,2.4-1.15,3.94,1.38-1.38-3.9,1.15-2.44ZM516.02,550.95l-1.56-.55-2.31,1.11-2.31-1.11-1.58.55.55-1.57-1.11-2.31,1.11-2.31-.55-1.58,1.57.55,2.31-1.11,2.31,1.11,1.58-.55-.55,1.57,1.11,2.31-1.11,2.36.54,1.52ZM518.25,604l-1.15-2.39,1.38-3.93-3.93,1.38-2.4-1.15-2.4,1.15-3.93-1.38,1.38,3.93-1.15,2.4,1.15,2.4-1.38,3.93,3.93-1.38,2.4,1.15,2.4-1.15,3.94,1.38-1.38-3.9,1.15-2.44ZM516.02,607.89l-1.56-.55-2.31,1.11-2.31-1.11-1.58.55.55-1.57-1.11-2.31,1.11-2.31-.55-1.58,1.57.55,2.31-1.11,2.31,1.11,1.58-.55-.55,1.57,1.11,2.31-1.11,2.36.54,1.52ZM469.46,531.21v4.87h1.5v-4.87c2.75-.37,4.88-2.72,4.88-5.57h-.75l.74-.15c-1.42-6.96-1.42-14.03,0-20.99l-.73-.15h.75c0-2.85-2.13-5.2-4.88-5.57v-3.91h-1.5v3.91c-2.75.37-4.88,2.72-4.88,5.57h.75l-.73.15c1.42,6.96,1.42,14.03,0,20.99l.74.15h-.75c0,2.85,2.13,5.2,4.88,5.57ZM470.21,529.77c-2.02,0-3.7-1.46-4.05-3.38h8.1c-.35,1.92-2.03,3.38-4.05,3.38ZM473.71,521.85h-7c.63-4.88.6-9.79-.12-14.66h7.25c-.72,4.88-.75,9.78-.12,14.66ZM473.92,523.35c.08.51.18,1.03.27,1.54h-7.96c.1-.51.19-1.03.27-1.54h7.41ZM470.21,500.22c1.8,0,3.31,1.16,3.88,2.77h-7.76c.56-1.61,2.08-2.77,3.88-2.77ZM474.3,504.49c-.08.4-.14.8-.21,1.19h-7.75c-.07-.4-.13-.8-.21-1.19h8.18ZM469.46,474.36v4.87h1.5v-4.87c2.75-.37,4.88-2.72,4.88-5.57h-.75l.73-.15c-1.42-6.96-1.42-14.03,0-20.99l-.74-.15h.75c0-2.85-2.13-5.2-4.88-5.57v-3.91h-1.5v3.91c-2.75.37-4.88,2.72-4.88,5.57h.75l-.74.15c1.42,6.96,1.42,14.03,0,20.99l.73.15h-.75c0,2.85,2.13,5.2,4.88,5.57ZM470.21,472.92c-2.02,0-3.7-1.46-4.05-3.38h8.1c-.35,1.92-2.03,3.38-4.05,3.38ZM473.71,465h-7c.63-4.88.6-9.79-.12-14.66h7.25c-.72,4.88-.75,9.78-.12,14.66ZM473.92,466.5c.08.51.18,1.03.27,1.54h-7.96c.1-.51.19-1.03.27-1.54h7.41ZM470.21,443.37c1.8,0,3.31,1.16,3.88,2.77h-7.76c.56-1.61,2.08-2.77,3.88-2.77ZM474.3,447.64c-.08.4-.14.8-.21,1.19h-7.75c-.07-.4-.13-.8-.21-1.19h8.18ZM91.17,531.77h-22.83v11.98h22.83v-11.98ZM89.67,542.25h-19.83v-8.98h19.83v8.98ZM91.17,545.16h-22.83v11.98h22.83v-11.98ZM89.67,555.64h-19.83v-8.98h19.83v8.98ZM200.45,623.81c-.81-.47-1.75-.59-2.65-.35-.9.24-1.65.82-2.12,1.63-.96,1.67-.39,3.81,1.28,4.77.55.32,1.15.47,1.74.47,1.21,0,2.38-.63,3.03-1.75.47-.81.59-1.75.35-2.65-.24-.9-.82-1.65-1.63-2.12ZM200.43,627.83c-.27.46-.7.79-1.21.93-.51.14-1.05.07-1.51-.2-.95-.55-1.28-1.77-.73-2.72.27-.46.7-.79,1.21-.93.51-.14,1.05-.07,1.51.2.46.27.79.7.93,1.21s.07,1.05-.2,1.51ZM201.4,622.15c-2.58-1.49-5.89-.6-7.38,1.98-.72,1.25-.91,2.71-.54,4.1.37,1.39,1.27,2.56,2.52,3.28.83.48,1.76.73,2.69.73.47,0,.94-.06,1.41-.19,1.39-.37,2.56-1.27,3.28-2.52s.91-2.71.54-4.1c-.37-1.39-1.27-2.56-2.52-3.28ZM202.08,628.78c-.52.9-1.36,1.55-2.37,1.82-1.01.27-2.06.13-2.96-.39-.9-.52-1.55-1.36-1.82-2.37-.27-1.01-.13-2.06.39-2.96,1.08-1.86,3.47-2.5,5.33-1.43.9.52,1.55,1.36,1.82,2.37.27,1.01.13,2.06-.39,2.96ZM183.59,622.14c.54.31,1.14.47,1.74.47.3,0,.61-.04.91-.12.9-.24,1.65-.82,2.12-1.63.96-1.67.39-3.81-1.28-4.77-1.67-.96-3.81-.39-4.77,1.28-.96,1.67-.39,3.81,1.28,4.77ZM183.61,618.11c.55-.95,1.77-1.28,2.72-.73.46.27.79.7.93,1.21s.07,1.05-.2,1.51c-.55.95-1.77,1.28-2.72.73-.46-.27-.79-.7-.93-1.21s-.07-1.05.2-1.51ZM182.63,623.79c.83.48,1.76.73,2.69.73.47,0,.94-.06,1.41-.19,1.39-.37,2.56-1.27,3.28-2.52,1.49-2.58.6-5.89-1.98-7.38-1.25-.72-2.71-.91-4.1-.54-1.39.37-2.56,1.27-3.28,2.52-.72,1.25-.91,2.71-.54,4.1s1.27,2.56,2.52,3.28ZM181.95,617.16c.52-.9,1.36-1.55,2.37-1.82.34-.09.68-.13,1.02-.13.68,0,1.34.18,1.95.52,1.86,1.08,2.5,3.47,1.43,5.33-.52.9-1.36,1.55-2.37,1.82-1.01.27-2.06.13-2.96-.39-.9-.52-1.55-1.36-1.82-2.37-.27-1.01-.13-2.06.39-2.96ZM170.22,614.42c.55.32,1.15.47,1.74.47,1.21,0,2.38-.63,3.03-1.75.96-1.67.39-3.81-1.28-4.77-1.67-.96-3.81-.39-4.77,1.28-.96,1.67-.39,3.81,1.28,4.77ZM170.24,610.4c.27-.46.7-.79,1.21-.93.51-.14,1.05-.07,1.51.2.95.55,1.28,1.77.73,2.72-.55.95-1.77,1.28-2.72.73-.95-.55-1.28-1.77-.73-2.72ZM169.26,616.07c.83.48,1.76.73,2.69.73.47,0,.94-.06,1.41-.19,1.39-.37,2.56-1.27,3.28-2.52,1.49-2.58.6-5.89-1.98-7.38-2.58-1.49-5.89-.6-7.38,1.98s-.6,5.89,1.98,7.38ZM168.58,609.44c1.08-1.86,3.47-2.51,5.33-1.43,1.86,1.08,2.5,3.47,1.43,5.33-.52.9-1.36,1.55-2.37,1.82-1.01.27-2.06.13-2.96-.39-1.86-1.08-2.5-3.47-1.43-5.33ZM184.42,636.13c.54.31,1.14.47,1.74.47.3,0,.61-.04.91-.12.9-.24,1.65-.82,2.12-1.63.47-.81.59-1.75.35-2.65-.24-.9-.82-1.65-1.63-2.12-.81-.47-1.75-.59-2.65-.35-.9.24-1.65.82-2.12,1.63-.47.81-.59,1.75-.35,2.65.24.9.82,1.65,1.63,2.12ZM184.44,632.11c.27-.46.7-.79,1.21-.93.17-.05.35-.07.52-.07.35,0,.69.09.99.27.46.27.79.7.93,1.21s.07,1.05-.2,1.51-.7.79-1.21.93c-.51.14-1.05.07-1.51-.2-.46-.27-.79-.7-.93-1.21s-.07-1.05.2-1.51ZM183.46,637.79c.83.48,1.76.73,2.69.73.47,0,.94-.06,1.41-.19,1.39-.37,2.56-1.27,3.28-2.52.72-1.25.91-2.71.54-4.1s-1.27-2.56-2.52-3.28c-1.25-.72-2.71-.91-4.1-.54-1.39.37-2.56,1.27-3.28,2.52s-.91,2.71-.54,4.1c.37,1.39,1.27,2.56,2.52,3.28ZM182.78,631.16c.52-.9,1.36-1.55,2.37-1.82,1.01-.27,2.06-.13,2.96.39.9.52,1.55,1.36,1.82,2.37.27,1.01.13,2.06-.39,2.96s-1.36,1.55-2.37,1.82c-1.01.27-2.06.13-2.96-.39-.9-.52-1.55-1.36-1.82-2.37-.27-1.01-.13-2.06.39-2.96ZM171.05,628.41c.54.31,1.14.47,1.74.47.3,0,.61-.04.91-.12.9-.24,1.65-.82,2.12-1.63s.59-1.75.35-2.65-.82-1.65-1.63-2.12c-1.67-.96-3.81-.39-4.77,1.28-.96,1.67-.39,3.81,1.28,4.77ZM171.07,624.39c.55-.95,1.77-1.28,2.72-.73.46.27.79.7.93,1.21s.07,1.05-.2,1.51c-.55.95-1.77,1.28-2.72.73-.46-.27-.79-.7-.93-1.21s-.07-1.05.2-1.51ZM170.09,630.07c.83.48,1.76.73,2.69.73.47,0,.94-.06,1.41-.19,1.39-.37,2.56-1.27,3.28-2.52,1.49-2.58.6-5.89-1.98-7.38-2.58-1.49-5.89-.6-7.38,1.98-.72,1.25-.91,2.71-.54,4.1s1.27,2.56,2.52,3.28ZM169.41,623.44c.72-1.25,2.04-1.95,3.39-1.95.66,0,1.33.17,1.94.52,1.86,1.08,2.5,3.47,1.43,5.33-.52.9-1.36,1.55-2.37,1.82-1.01.27-2.06.13-2.96-.39-.9-.52-1.55-1.36-1.82-2.37-.27-1.01-.13-2.06.39-2.96ZM213.56,517.28c0-5.78-4.7-10.48-10.48-10.48s-10.48,4.7-10.48,10.48,4.7,10.48,10.48,10.48,10.48-4.7,10.48-10.48ZM203.83,526.23v-4.04c.81-.12,1.56-.44,2.19-.91l2.85,2.85c-1.39,1.17-3.13,1.93-5.04,2.09ZM209.93,523.08l-2.85-2.85c.47-.63.78-1.38.91-2.19h4.04c-.16,1.91-.92,3.66-2.09,5.04ZM212.02,516.53h-4.04c-.12-.81-.44-1.56-.91-2.19l2.85-2.85c1.17,1.39,1.93,3.13,2.09,5.04ZM203.83,508.34c1.91.16,3.66.92,5.04,2.09l-2.85,2.85c-.63-.47-1.38-.78-2.19-.91v-4.04ZM206.56,517.28c0,1.92-1.56,3.48-3.48,3.48s-3.48-1.56-3.48-3.48,1.56-3.48,3.48-3.48,3.48,1.56,3.48,3.48ZM202.33,508.34v4.04c-.81.12-1.56.44-2.19.91l-2.85-2.85c1.39-1.17,3.13-1.93,5.04-2.09ZM196.22,511.49l2.85,2.85c-.47.63-.78,1.38-.91,2.19h-4.04c.16-1.91.92-3.66,2.09-5.04ZM194.13,518.03h4.04c.12.81.44,1.56.91,2.19l-2.85,2.85c-1.17-1.39-1.93-3.13-2.09-5.04ZM202.33,526.23c-1.91-.16-3.66-.92-5.04-2.09l2.85-2.85c.63.47,1.38.78,2.19.91v4.04ZM212.62,574.49c-.73,0-1.39.28-1.91.72l-95.87-82.29v-8.92h-1.5v9.61l96.52,82.85c-.11.3-.18.63-.18.97,0,1.62,1.32,2.94,2.94,2.94s2.94-1.32,2.94-2.94-1.32-2.94-2.94-2.94ZM212.62,578.87c-.79,0-1.44-.64-1.44-1.44s.64-1.44,1.44-1.44,1.44.64,1.44,1.44-.64,1.44-1.44,1.44ZM212.62,584.77c-.69,0-1.31.25-1.82.65l-105.51-91.6v-9.81h-1.5v10.5l106.11,92.12c-.14.34-.22.7-.22,1.09,0,1.62,1.32,2.94,2.94,2.94s2.94-1.32,2.94-2.94-1.32-2.94-2.94-2.94ZM212.62,589.15c-.79,0-1.44-.64-1.44-1.44s.64-1.44,1.44-1.44,1.44.64,1.44,1.44-.64,1.44-1.44,1.44ZM212.62,595.05c-.65,0-1.24.22-1.72.57l-115.16-100.92v-10.7h-1.5v11.38l115.71,101.4c-.17.37-.26.77-.26,1.2,0,1.62,1.32,2.94,2.94,2.94s2.94-1.32,2.94-2.94-1.32-2.94-2.94-2.94ZM212.62,599.43c-.79,0-1.44-.64-1.44-1.44s.64-1.44,1.44-1.44,1.44.64,1.44,1.44-.64,1.44-1.44,1.44ZM212.62,611.21c1.62,0,2.94-1.32,2.94-2.94s-1.32-2.94-2.94-2.94c-.6,0-1.17.18-1.63.5l-124.8-110.23v-11.59h-1.5v12.27l125.32,110.69c-.2.4-.32.84-.32,1.31,0,1.62,1.32,2.94,2.94,2.94ZM212.62,606.83c.79,0,1.44.64,1.44,1.44s-.64,1.44-1.44,1.44-1.44-.64-1.44-1.44.64-1.44,1.44-1.44ZM241.75,648.71c-2.97,0-5.39,2.42-5.39,5.39s2.42,5.39,5.39,5.39h23.15c2.97,0,5.39-2.42,5.39-5.39s-2.42-5.39-5.39-5.39h-23.15ZM268.78,654.09c0,2.14-1.74,3.89-3.89,3.89h-23.15c-2.14,0-3.89-1.74-3.89-3.89s1.74-3.89,3.89-3.89h23.15c2.14,0,3.89,1.74,3.89,3.89ZM327.76,648.71c-2.97,0-5.38,2.42-5.38,5.39s2.42,5.39,5.38,5.39h23.15c2.97,0,5.38-2.42,5.38-5.39s-2.42-5.39-5.38-5.39h-23.15ZM354.79,654.09c0,2.14-1.74,3.89-3.88,3.89h-23.15c-2.14,0-3.88-1.74-3.88-3.89s1.74-3.89,3.88-3.89h23.15c2.14,0,3.88,1.74,3.88,3.89ZM318.64,650.21h-45.72v-1.5h45.72v1.5ZM318.64,654.75h-45.72v-1.5h45.72v1.5ZM272.91,657.79h45.72v1.5h-45.72v-1.5Z"/>
    <text class="uuid-fb998d75-1121-4b4e-9d65-1ef8517f643e" transform="translate(69.16 172.17)"><tspan class="uuid-b649e338-7d71-45d0-b1b2-14eafc59cebc"><tspan class="uuid-ee54d83f-f382-47fb-9bce-7e3599797dba" x="0" y="0">P</tspan><tspan class="uuid-e47dba6e-bc6d-43f1-a763-ca956b361802" x="22.58" y="0">r</tspan><tspan class="uuid-ee54d83f-f382-47fb-9bce-7e3599797dba" x="34.28" y="0">o</tspan><tspan class="uuid-b1b48178-7338-49df-b249-5f8e7b2a711f" x="55.38" y="0">f</tspan><tspan class="uuid-ee54d83f-f382-47fb-9bce-7e3599797dba" x="66.37" y="0">essional</tspan></tspan><tspan class="uuid-d7e05826-7196-4015-8a75-a61cb092ab5b"><tspan class="uuid-0e109916-9197-44af-97c8-50d0279a7594" x="0" y="45.85">T</tspan><tspan class="uuid-ac263179-a8fe-4048-927d-2ecd59003e55" x="21.9" y="45.85">r</tspan><tspan class="uuid-ee54d83f-f382-47fb-9bce-7e3599797dba" x="35.3" y="45.85">ading Se</tspan><tspan class="uuid-2439a554-a80b-4b64-a634-cb3a32d8c18f" x="185.15" y="45.85">r</tspan><tspan class="uuid-76fa2093-a3d7-4633-83ab-7e3443292264" x="199.8" y="45.85">vice</tspan></tspan></text>
    <text class="uuid-6d25f5a8-725f-4ba1-a099-fa065f0f0336" transform="translate(69.16 118.6)"><tspan x="0" y="0">Commitment &amp; </tspan><tspan class="uuid-ef5d04ec-74ab-44e0-aa43-eacd8c96fc2e" x="121.69" y="0">T</tspan><tspan x="131.51" y="0">rust</tspan></text>
    <text class="uuid-5e9a4b12-23d8-4684-bde7-175b531bd6f6" transform="translate(69.16 59.06)"><tspan class="uuid-2613e096-976c-41d3-ba32-d2f42a0afc1d" x="0" y="0">MEMP</tspan><tspan class="uuid-e73bfa18-5519-428b-a3b5-e569e023a582" x="41.25" y="0">r</tspan><tspan class="uuid-2613e096-976c-41d3-ba32-d2f42a0afc1d" x="45.85" y="0">o Corp</tspan><tspan class="uuid-243fd782-12f2-4dba-ad0b-2cb47173d9f9" x="87.96" y="0">.</tspan></text>
    <rect class="uuid-e747e875-526c-489c-a326-248612b43fec" x="374.4" y="384.4" width="16.3" height="7.67"/>
    <g>
      <circle class="uuid-e747e875-526c-489c-a326-248612b43fec" cx="357.37" cy="434.43" r=".78"/>
      <circle class="uuid-e747e875-526c-489c-a326-248612b43fec" cx="371.68" cy="434.43" r=".78"/>
      <circle class="uuid-e747e875-526c-489c-a326-248612b43fec" cx="357.37" cy="455.05" r=".78"/>
      <circle class="uuid-e747e875-526c-489c-a326-248612b43fec" cx="371.68" cy="455.05" r=".78"/>
    </g>
    <g>
      <circle class="uuid-e747e875-526c-489c-a326-248612b43fec" cx="328.71" cy="413.09" r=".78"/>
      <circle class="uuid-e747e875-526c-489c-a326-248612b43fec" cx="343.02" cy="413.09" r=".78"/>
      <circle class="uuid-e747e875-526c-489c-a326-248612b43fec" cx="328.71" cy="433.71" r=".78"/>
      <circle class="uuid-e747e875-526c-489c-a326-248612b43fec" cx="343.02" cy="433.71" r=".78"/>
    </g>
  </g>
</svg>