<?xml version="1.0" encoding="UTF-8"?>
<svg id="uuid-958f82b1-b06f-4b61-8276-b8d5c905d039" data-name="레이어 1" xmlns="http://www.w3.org/2000/svg" viewBox="0 0 1084.72 735.96">
  <defs>
    <style>
      .uuid-d5d2fc86-1fdd-4703-ade7-3370d13c7e64 {
        fill: #000;
        stroke-width: 0px;
      }
    </style>
  </defs>
  <path class="uuid-d5d2fc86-1fdd-4703-ade7-3370d13c7e64" d="M841.69,95.75l2.32-2.22-3-1.73.07-6.31-4.33-3.48,8.23-5.23-3.89-2.22v-8.23s-47.39-28.77-47.39-28.77l-7.71-.98-9.73,6.11-.21-5.13-1.84-1.07-3.48,1.77-.03,7.39-5.29,2.81v7.89l-2.86,2.17c-7.39-.25-14.87.65-21.57,2.71l-.91-36.16-30.46-18.52-27.45,14.87.07,4.34-3.25-1.98-27.45,14.87,2.5,71.63-13.95,8.11c-15.96,9.27-41.91,9.28-57.97.01l-47.7-27.54c-8.26-4.77-19.13-7.08-29.91-6.95-2.07-2.55-5.77-5.56-11.04-4.11-8.13,2.25-6.64,6.2-6.46,6.62-3.82,1.11-7.4,2.59-10.58,4.44l-25.55,14.85c-15.96,9.27-41.91,9.29-57.97.01l-12.15-7.01c-.76-2.97-1.99-5.92-3.97-8.33-6.94-8.43-12.33-1.84-12.33-1.84l-.69,1.12c-4.01-1.49-8.36-2.54-12.86-3.14l1.7-54.31L296.91,0l-55.68,32.16.31,101.98-2.5,1.45-48.1,27.95c-15.96,9.28-15.85,24.31.19,33.57l22.3,12.87.24.15,297.99,168.52,35.12-20.02,377.51-215.2-82.6-47.69Z"/>
</svg>