<?xml version="1.0" encoding="UTF-8"?>
<svg id="uuid-bbc321c7-ce59-4124-8c1b-48d06cf9183d" data-name="레이어 2" xmlns="http://www.w3.org/2000/svg" xmlns:xlink="http://www.w3.org/1999/xlink" viewBox="0 0 618.4 874.07">
  <defs>
    <style>
      .uuid-11d42a69-91f1-4725-b38d-69d12523f3dd {
        letter-spacing: -.04em;
      }

      .uuid-dac1939a-b346-486e-85b6-342d3aa5380d {
        letter-spacing: -.04em;
      }

      .uuid-ab3ea3d3-a9e1-4cdd-a7e2-18436fb42219 {
        letter-spacing: -.04em;
      }

      .uuid-0fa592dc-52b9-4233-b0e3-bbc187b1b9c1 {
        letter-spacing: -.02em;
      }

      .uuid-e511fa62-9b6b-4cdd-9841-b1a0b593ad6f, .uuid-3ebf45a9-1929-482a-91a6-2378542934b5, .uuid-65464419-bcf3-43f1-ada4-180a069e60c3, .uuid-d5cfaa9b-3615-4655-bcc5-baf027d6b732, .uuid-8594e8d6-7067-4c9d-9204-400916ea7444, .uuid-9ee6f0d2-7432-4bf4-a868-9324e2306437 {
        stroke-width: 0px;
      }

      .uuid-e511fa62-9b6b-4cdd-9841-b1a0b593ad6f, .uuid-72d7c590-5bcb-4675-936b-1eeaea015dd0 {
        fill: none;
      }

      .uuid-287984c9-1293-4ad6-b451-57461ba92508 {
        font-size: 40px;
      }

      .uuid-287984c9-1293-4ad6-b451-57461ba92508, .uuid-e266b538-e0c9-4af2-b172-92eeeff2c8c5, .uuid-e32e71d5-bfee-4400-b4c8-759341c764d4 {
        fill: #fff;
      }

      .uuid-c1b369e7-432c-4865-bf4a-af3748c917f1 {
        opacity: .09;
      }

      .uuid-3ebf45a9-1929-482a-91a6-2378542934b5 {
        fill: #08204c;
      }

      .uuid-d07d8535-143f-4606-82c1-f77ea95b8ff0 {
        font-family: Pretendard-Bold-KSCpc-EUC-H, Pretendard;
        font-weight: 700;
      }

      .uuid-fc6bb62b-9d6d-46dd-834c-44bf7bef0d41 {
        letter-spacing: -.05em;
      }

      .uuid-991b8346-3e9b-4d11-a197-15a3d0f927bb {
        letter-spacing: -.1em;
      }

      .uuid-ba9ecf31-f359-4d02-945f-bfc3fe2dccc4 {
        clip-path: url(#uuid-a0ca2fea-5dd1-4965-856b-4b96e9738960);
      }

      .uuid-0d9ea72c-f3ff-428e-b8e0-1353bd8cce74 {
        font-family: Pretendard-Regular-KSCpc-EUC-H, Pretendard;
      }

      .uuid-5175c4d7-d545-4553-abf6-b9ea368eb21e {
        letter-spacing: -.06em;
      }

      .uuid-a832ccfe-2586-4353-947a-931e0c23be0e {
        letter-spacing: -.05em;
      }

      .uuid-e266b538-e0c9-4af2-b172-92eeeff2c8c5 {
        font-family: Pretendard-Light-KSCpc-EUC-H, Pretendard;
        font-size: 18px;
        font-weight: 300;
      }

      .uuid-37c3f6ab-88f8-4aa2-a4fb-ac5b902f3cc3 {
        letter-spacing: -.06em;
      }

      .uuid-65464419-bcf3-43f1-ada4-180a069e60c3 {
        fill: url(#uuid-93dab632-a09b-4b0f-8e0f-4442a633b9a8);
      }

      .uuid-cac274ae-c098-44d8-9f4a-4adca55bed76 {
        letter-spacing: -.06em;
      }

      .uuid-033a6b23-fa8f-4d9b-89c8-28bb74df7702 {
        letter-spacing: -.06em;
      }

      .uuid-d5cfaa9b-3615-4655-bcc5-baf027d6b732 {
        fill: #02abe2;
      }

      .uuid-8594e8d6-7067-4c9d-9204-400916ea7444 {
        fill: #f2f2f2;
      }

      .uuid-72d7c590-5bcb-4675-936b-1eeaea015dd0 {
        stroke: #000;
        stroke-miterlimit: 10;
        stroke-width: .5px;
      }

      .uuid-9ee6f0d2-7432-4bf4-a868-9324e2306437 {
        fill: #05193a;
      }

      .uuid-e32e71d5-bfee-4400-b4c8-759341c764d4 {
        font-family: Pretendard-Medium-KSCpc-EUC-H, Pretendard;
        font-size: 15px;
        font-weight: 500;
      }
    </style>
    <linearGradient id="uuid-93dab632-a09b-4b0f-8e0f-4442a633b9a8" data-name="무제 그라디언트 77" x1="320.76" y1="814.3" x2="320.76" y2="303.49" gradientUnits="userSpaceOnUse">
      <stop offset="0" stop-color="#5dc2ca"/>
      <stop offset="1" stop-color="#f69cd1"/>
    </linearGradient>
    <clipPath id="uuid-a0ca2fea-5dd1-4965-856b-4b96e9738960">
      <polygon class="uuid-e511fa62-9b6b-4cdd-9841-b1a0b593ad6f" points="595.28 0 0 0 23.12 31.61 618.4 31.61 595.28 0"/>
    </clipPath>
  </defs>
  <g id="uuid-0e73a854-2aff-474d-b74e-a55c9576ae3b" data-name="레이어 1">
    <rect class="uuid-3ebf45a9-1929-482a-91a6-2378542934b5" x="23.12" y="32.18" width="595.28" height="841.89"/>
    <path class="uuid-d5cfaa9b-3615-4655-bcc5-baf027d6b732" d="M319.21,572.29l-.05,31.03-22.22-12.5-.06,41.02-24.39-13.98.1-71.62,46.6,26.05h0ZM319.21,572.29l-.02,15.71-.02,15.31,22.25-12.44-.06,41.02,24.42-13.91.1-71.62-46.67,25.92h0Z"/>
    <path class="uuid-65464419-bcf3-43f1-ada4-180a069e60c3" d="M115.36,322.25c-4.2,0-7.62,3.42-7.62,7.62s3.42,7.62,7.62,7.62,7.62-3.42,7.62-7.62-3.42-7.62-7.62-7.62ZM115.36,335.99c-3.37,0-6.12-2.75-6.12-6.12s2.75-6.12,6.12-6.12,6.12,2.75,6.12,6.12-2.75,6.12-6.12,6.12ZM526.15,337.49c4.2,0,7.62-3.42,7.62-7.62s-3.42-7.62-7.62-7.62-7.62,3.42-7.62,7.62,3.42,7.62,7.62,7.62ZM526.15,323.75c3.37,0,6.12,2.75,6.12,6.12s-2.75,6.12-6.12,6.12-6.12-2.75-6.12-6.12,2.75-6.12,6.12-6.12ZM550.83,750.91l1.49.13c-2.97,33.68-29.57,60.29-63.26,63.26l-.13-1.49c32.96-2.91,58.99-28.94,61.89-61.89ZM483.83,758.85c6.72,0,12.18-5.46,12.18-12.18s-5.46-12.18-12.18-12.18-12.18,5.46-12.18,12.18,5.46,12.18,12.18,12.18ZM483.83,736c5.89,0,10.68,4.79,10.68,10.68s-4.79,10.68-10.68,10.68-10.68-4.79-10.68-10.68,4.79-10.68,10.68-10.68ZM441.64,704.31l-.53.53,13.8,13.8.53-.53c7.04-7.05,16.41-10.93,26.38-10.93h.75v-19.51h-.75c-15.17,0-29.44,5.91-40.18,16.64ZM481.07,705.69c-9.84.19-19.07,4.01-26.15,10.84l-11.68-11.68c10.21-9.94,23.59-15.48,37.84-15.67v16.52ZM483.9,687.67h-.75v19.51h.75c9.97,0,19.34,3.88,26.38,10.93l.53.53,13.8-13.8-.53-.53c-10.73-10.73-25-16.64-40.18-16.64ZM510.81,716.53c-7.08-6.83-16.32-10.65-26.15-10.84v-16.52c14.25.19,27.63,5.73,37.84,15.67l-11.68,11.68ZM541.87,745.63c0-15.19-5.91-29.46-16.64-40.18l-.53-.53-13.8,13.8.53.53c7.05,7.04,10.93,16.41,10.93,26.38v.75h19.51v-.75ZM523.85,744.88c-.19-9.84-4.01-19.07-10.84-26.15l11.68-11.68c9.94,10.2,15.48,23.58,15.67,37.84h-16.52ZM510.89,774.63l13.8,13.8.53-.53c10.73-10.73,16.64-25,16.64-40.18v-.75h-19.51v.75c0,9.97-3.88,19.34-10.93,26.38l-.53.53ZM523.85,748.47h16.52c-.19,14.25-5.73,27.63-15.67,37.84l-11.68-11.68c6.83-7.08,10.65-16.32,10.84-26.15ZM524.61,788.51l-13.8-13.8-.53.53c-7.04,7.05-16.41,10.93-26.38,10.93h-.75v19.51h.75c15.18,0,29.45-5.91,40.18-16.64l.53-.53ZM484.65,804.18v-16.52c9.84-.19,19.07-4.01,26.15-10.84l11.68,11.68c-10.21,9.94-23.59,15.48-37.84,15.67ZM455.44,775.24l-.53-.53-13.8,13.8.53.53c10.74,10.73,25.01,16.64,40.18,16.64h.75v-19.51h-.75c-9.97,0-19.34-3.88-26.38-10.93ZM481.07,804.18c-14.24-.19-27.62-5.73-37.84-15.67l11.68-11.68c7.08,6.83,16.32,10.65,26.15,10.84v16.52ZM423.85,747.72c0,15.17,5.91,29.44,16.64,40.18l.53.53,13.8-13.8-.53-.53c-7.05-7.04-10.93-16.41-10.93-26.38v-.75h-19.51v.75ZM441.87,748.47c.19,9.84,4.01,19.07,10.84,26.15l-11.68,11.68c-9.94-10.21-15.48-23.59-15.67-37.84h16.52ZM440.49,705.45c-10.73,10.73-16.64,25-16.64,40.18v.75h19.51v-.75c0-9.97,3.88-19.34,10.93-26.38l.53-.53-13.8-13.8-.53.53ZM452.71,718.73c-6.83,7.08-10.65,16.32-10.84,26.15h-16.52c.19-14.25,5.73-27.63,15.67-37.84l11.68,11.68ZM483.83,762.5c8.73,0,15.82-7.1,15.82-15.82s-7.1-15.82-15.82-15.82-15.82,7.1-15.82,15.82,7.1,15.82,15.82,15.82ZM483.83,732.35c7.9,0,14.32,6.43,14.32,14.32s-6.43,14.32-14.32,14.32-14.32-6.43-14.32-14.32,6.43-14.32,14.32-14.32ZM490.63,741.97h-13.6v9.41h13.6v-9.41ZM489.13,749.88h-10.6v-6.41h10.6v6.41ZM460.83,726.76c1.05,0,1.91-.86,1.91-1.91s-.86-1.91-1.91-1.91-1.91.86-1.91,1.91.86,1.91,1.91,1.91ZM460.83,724.44c.22,0,.41.18.41.41s-.18.41-.41.41-.41-.18-.41-.41.18-.41.41-.41ZM467.76,729.87c0-1.05-.86-1.91-1.91-1.91s-1.91.86-1.91,1.91.86,1.91,1.91,1.91,1.91-.86,1.91-1.91ZM465.45,729.87c0-.22.18-.41.41-.41s.41.18.41.41-.18.41-.41.41-.41-.18-.41-.41ZM450.78,746.15c-.74.74-.74,1.95,0,2.7.36.36.84.56,1.35.56s.99-.2,1.35-.56.56-.84.56-1.35-.2-.99-.56-1.35c-.74-.74-1.95-.74-2.7,0ZM452.42,747.21c.08.08.12.18.12.29s-.04.21-.12.29c-.15.15-.42.15-.58,0-.16-.16-.16-.42,0-.58.08-.08.18-.12.29-.12s.21.04.29.12ZM457.88,748.85c.37.37.86.56,1.35.56s.98-.19,1.35-.56c.74-.74.74-1.95,0-2.7h0c-.74-.74-1.95-.74-2.7,0-.74.74-.74,1.95,0,2.7ZM458.94,747.22c.08-.08.18-.12.29-.12s.21.04.29.12c.16.16.16.42,0,.58-.16.16-.42.16-.58,0s-.16-.42,0-.58ZM462,771.58c1.05,0,1.91-.86,1.91-1.91s-.86-1.91-1.91-1.91-1.91.86-1.91,1.91.86,1.91,1.91,1.91ZM462,769.27c.22,0,.41.18.41.41s-.18.41-.41.41-.41-.18-.41-.41.18-.41.41-.41ZM467.02,766.56c1.05,0,1.91-.86,1.91-1.91s-.86-1.91-1.91-1.91-1.91.86-1.91,1.91.86,1.91,1.91,1.91ZM467.02,764.25c.22,0,.41.18.41.41s-.18.41-.41.41-.41-.18-.41-.41.18-.41.41-.41ZM484.65,780.28c.49,0,.98-.19,1.35-.56.74-.74.74-1.95,0-2.7-.74-.74-1.95-.74-2.7,0-.74.74-.74,1.95,0,2.7.37.37.86.56,1.35.56ZM484.37,778.09c.08-.08.18-.12.29-.12s.21.04.29.12c.16.16.16.42,0,.58-.16.16-.42.16-.58,0-.16-.16-.16-.42,0-.58ZM484.65,773.18c.49,0,.98-.19,1.35-.56.74-.74.74-1.95,0-2.7-.74-.74-1.95-.74-2.7,0h0c-.74.74-.74,1.95,0,2.7.37.37.86.56,1.35.56ZM484.37,770.99c.16-.16.42-.16.58,0s.16.42,0,.58-.42.16-.58,0c-.16-.16-.16-.42,0-.58ZM506.83,770.41c1.05,0,1.91-.86,1.91-1.91s-.86-1.91-1.91-1.91-1.91.86-1.91,1.91.86,1.91,1.91,1.91ZM506.83,768.1c.22,0,.41.18.41.41s-.18.41-.41.41-.41-.18-.41-.41.18-.41.41-.41ZM501.81,765.39c1.05,0,1.91-.86,1.91-1.91s-.86-1.91-1.91-1.91-1.91.86-1.91,1.91.86,1.91,1.91,1.91ZM501.81,763.08c.22,0,.41.18.41.41s-.18.41-.41.41-.41-.18-.41-.41.18-.41.41-.41ZM515.53,747.76c.51,0,.99-.2,1.35-.56s.56-.84.56-1.35-.2-.99-.56-1.35c-.74-.74-1.95-.74-2.7,0-.74.74-.74,1.95,0,2.7h0c.36.36.84.56,1.35.56ZM515.24,745.57c.08-.08.18-.12.29-.12s.21.04.29.12c.08.08.12.18.12.29s-.04.21-.12.29c-.15.15-.42.15-.57,0h0c-.16-.16-.16-.42,0-.58ZM509.77,744.5c-.74-.74-1.95-.74-2.7,0-.36.36-.56.84-.56,1.35s.2.99.56,1.35h0c.36.36.84.56,1.35.56s.99-.2,1.35-.56c.74-.74.74-1.95,0-2.7ZM508.71,746.14c-.15.15-.42.15-.58,0h0c-.08-.08-.12-.18-.12-.29s.04-.21.12-.29c.08-.08.18-.12.29-.12s.21.04.29.12c.16.16.16.42,0,.58ZM507.57,723.68c0-1.05-.86-1.91-1.91-1.91s-1.91.86-1.91,1.91.86,1.91,1.91,1.91,1.91-.86,1.91-1.91ZM505.25,723.68c0-.22.18-.41.41-.41s.41.18.41.41-.18.41-.41.41-.41-.18-.41-.41ZM502.55,728.7c0-1.05-.86-1.91-1.91-1.91s-1.91.86-1.91,1.91.86,1.91,1.91,1.91,1.91-.86,1.91-1.91ZM500.23,728.7c0-.22.18-.41.41-.41s.41.18.41.41-.18.41-.41.41-.41-.18-.41-.41ZM481.66,713.63c-.74.74-.74,1.95,0,2.7.37.37.86.56,1.35.56s.98-.19,1.35-.56h0c.74-.74.74-1.95,0-2.7-.74-.74-1.95-.74-2.7,0ZM483.29,715.27c-.16.16-.42.16-.58,0-.16-.16-.16-.42,0-.58.08-.08.18-.12.29-.12s.21.04.29.12c.16.16.16.42,0,.58ZM484.35,723.43c.74-.74.74-1.95,0-2.7-.74-.74-1.95-.74-2.7,0-.74.74-.74,1.95,0,2.7.37.37.86.56,1.35.56s.98-.19,1.35-.56ZM482.72,721.79c.08-.08.18-.12.29-.12s.21.04.29.12c.16.16.16.42,0,.58s-.42.16-.58,0-.16-.42,0-.58ZM259.87,441.87h-6.65v6.65h6.65v-6.65ZM258.37,447.02h-3.65v-3.65h3.65v3.65ZM259.87,449.59h-6.65v6.65h6.65v-6.65ZM258.37,454.74h-3.65v-3.65h3.65v3.65ZM259.87,457.31h-6.65v6.65h6.65v-6.65ZM258.37,462.46h-3.65v-3.65h3.65v3.65ZM259.87,465.02h-6.65v6.65h6.65v-6.65ZM258.37,470.18h-3.65v-3.65h3.65v3.65ZM259.87,472.74h-6.65v6.65h6.65v-6.65ZM258.37,477.89h-3.65v-3.65h3.65v3.65ZM267.16,449.59h-6.65v6.65h6.65v-6.65ZM265.66,454.74h-3.65v-3.65h3.65v3.65ZM267.16,457.31h-6.65v6.65h6.65v-6.65ZM265.66,462.46h-3.65v-3.65h3.65v3.65ZM267.16,465.02h-6.65v6.65h6.65v-6.65ZM265.66,470.18h-3.65v-3.65h3.65v3.65ZM267.16,472.74h-6.65v6.65h6.65v-6.65ZM265.66,477.89h-3.65v-3.65h3.65v3.65ZM259.87,480.46h-6.65v6.65h6.65v-6.65ZM258.37,485.61h-3.65v-3.65h3.65v3.65ZM252.1,441.87h-6.65v6.65h6.65v-6.65ZM250.6,447.02h-3.65v-3.65h3.65v3.65ZM252.1,449.59h-6.65v6.65h6.65v-6.65ZM250.6,454.74h-3.65v-3.65h3.65v3.65ZM252.1,457.31h-6.65v6.65h6.65v-6.65ZM250.6,462.46h-3.65v-3.65h3.65v3.65ZM252.1,465.02h-6.65v6.65h6.65v-6.65ZM250.6,470.18h-3.65v-3.65h3.65v3.65ZM252.1,472.74h-6.65v6.65h6.65v-6.65ZM250.6,477.89h-3.65v-3.65h3.65v3.65ZM252.1,480.46h-6.65v6.65h6.65v-6.65ZM250.6,485.61h-3.65v-3.65h3.65v3.65ZM244.33,441.87h-6.65v6.65h6.65v-6.65ZM242.83,447.02h-3.65v-3.65h3.65v3.65ZM244.33,449.59h-6.65v6.65h6.65v-6.65ZM242.83,454.74h-3.65v-3.65h3.65v3.65ZM244.33,457.31h-6.65v6.65h6.65v-6.65ZM242.83,462.46h-3.65v-3.65h3.65v3.65ZM244.33,465.02h-6.65v6.65h6.65v-6.65ZM242.83,470.18h-3.65v-3.65h3.65v3.65ZM244.33,472.74h-6.65v6.65h6.65v-6.65ZM242.83,477.89h-3.65v-3.65h3.65v3.65ZM244.33,480.46h-6.65v6.65h6.65v-6.65ZM242.83,485.61h-3.65v-3.65h3.65v3.65ZM236.55,441.87h-6.65v6.65h6.65v-6.65ZM235.05,447.02h-3.65v-3.65h3.65v3.65ZM236.55,449.59h-6.65v6.65h6.65v-6.65ZM235.05,454.74h-3.65v-3.65h3.65v3.65ZM236.55,457.31h-6.65v6.65h6.65v-6.65ZM235.05,462.46h-3.65v-3.65h3.65v3.65ZM236.55,465.02h-6.65v6.65h6.65v-6.65ZM235.05,470.18h-3.65v-3.65h3.65v3.65ZM236.55,472.74h-6.65v6.65h6.65v-6.65ZM235.05,477.89h-3.65v-3.65h3.65v3.65ZM236.55,480.46h-6.65v6.65h6.65v-6.65ZM235.05,485.61h-3.65v-3.65h3.65v3.65ZM228.78,441.87h-6.65v6.65h6.65v-6.65ZM227.28,447.02h-3.65v-3.65h3.65v3.65ZM228.78,449.59h-6.65v6.65h6.65v-6.65ZM227.28,454.74h-3.65v-3.65h3.65v3.65ZM228.78,457.31h-6.65v6.65h6.65v-6.65ZM227.28,462.46h-3.65v-3.65h3.65v3.65ZM228.78,465.02h-6.65v6.65h6.65v-6.65ZM227.28,470.18h-3.65v-3.65h3.65v3.65ZM228.78,472.74h-6.65v6.65h6.65v-6.65ZM227.28,477.89h-3.65v-3.65h3.65v3.65ZM228.78,480.46h-6.65v6.65h6.65v-6.65ZM227.28,485.61h-3.65v-3.65h3.65v3.65ZM221.01,441.87h-6.65v6.65h6.65v-6.65ZM219.51,447.02h-3.65v-3.65h3.65v3.65ZM221.01,449.59h-6.65v6.65h6.65v-6.65ZM219.51,454.74h-3.65v-3.65h3.65v3.65ZM221.01,457.31h-6.65v6.65h6.65v-6.65ZM219.51,462.46h-3.65v-3.65h3.65v3.65ZM221.01,465.02h-6.65v6.65h6.65v-6.65ZM219.51,470.18h-3.65v-3.65h3.65v3.65ZM221.01,472.74h-6.65v6.65h6.65v-6.65ZM219.51,477.89h-3.65v-3.65h3.65v3.65ZM221.01,480.46h-6.65v6.65h6.65v-6.65ZM219.51,485.61h-3.65v-3.65h3.65v3.65ZM252.1,488.25h-6.65v6.65h6.65v-6.65ZM250.6,493.4h-3.65v-3.65h3.65v3.65ZM244.33,488.25h-6.65v6.65h6.65v-6.65ZM242.83,493.4h-3.65v-3.65h3.65v3.65ZM236.55,488.25h-6.65v6.65h6.65v-6.65ZM235.05,493.4h-3.65v-3.65h3.65v3.65ZM228.78,488.25h-6.65v6.65h6.65v-6.65ZM227.28,493.4h-3.65v-3.65h3.65v3.65ZM244.33,495.89h-6.65v6.65h6.65v-6.65ZM242.83,501.04h-3.65v-3.65h3.65v3.65ZM236.55,495.89h-6.65v6.65h6.65v-6.65ZM235.05,501.04h-3.65v-3.65h3.65v3.65ZM228.78,495.89h-6.65v6.65h6.65v-6.65ZM227.28,501.04h-3.65v-3.65h3.65v3.65ZM221.01,488.25h-6.65v6.65h6.65v-6.65ZM219.51,493.4h-3.65v-3.65h3.65v3.65ZM221.01,433.79h-6.65v6.65h6.65v-6.65ZM219.51,438.94h-3.65v-3.65h3.65v3.65ZM228.78,433.79h-6.65v6.65h6.65v-6.65ZM227.28,438.94h-3.65v-3.65h3.65v3.65ZM236.55,433.79h-6.65v6.65h6.65v-6.65ZM235.05,438.94h-3.65v-3.65h3.65v3.65ZM244.33,433.79h-6.65v6.65h6.65v-6.65ZM242.83,438.94h-3.65v-3.65h3.65v3.65ZM228.78,426.15h-6.65v6.65h6.65v-6.65ZM227.28,431.3h-3.65v-3.65h3.65v3.65ZM236.55,426.15h-6.65v6.65h6.65v-6.65ZM235.05,431.3h-3.65v-3.65h3.65v3.65ZM244.33,426.15h-6.65v6.65h6.65v-6.65ZM242.83,431.3h-3.65v-3.65h3.65v3.65ZM252.1,433.79h-6.65v6.65h6.65v-6.65ZM250.6,438.94h-3.65v-3.65h3.65v3.65ZM213.24,441.87h-6.65v6.65h6.65v-6.65ZM211.74,447.02h-3.65v-3.65h3.65v3.65ZM213.24,449.59h-6.65v6.65h6.65v-6.65ZM211.74,454.74h-3.65v-3.65h3.65v3.65ZM213.24,457.31h-6.65v6.65h6.65v-6.65ZM211.74,462.46h-3.65v-3.65h3.65v3.65ZM213.24,465.02h-6.65v6.65h6.65v-6.65ZM211.74,470.18h-3.65v-3.65h3.65v3.65ZM213.24,472.74h-6.65v6.65h6.65v-6.65ZM211.74,477.89h-3.65v-3.65h3.65v3.65ZM213.24,480.46h-6.65v6.65h6.65v-6.65ZM211.74,485.61h-3.65v-3.65h3.65v3.65ZM318.95,473.95v27.05l-66.61,38.46v76.62h0v15.4l67.11,38.74,67.11-38.74v-14.52h0v-76.49l23.79-13.74-89.83-51.86v-19.57l-25.09-13.96c.1-.32.17-.65.17-1,0-1.83-1.49-3.32-3.32-3.32s-3.32,1.49-3.32,3.32,1.49,3.32,3.32,3.32c.94,0,1.79-.4,2.39-1.03l24.35,13.55v17.82l-.08-.04ZM292.29,442.15c-1,0-1.82-.82-1.82-1.82s.82-1.82,1.82-1.82,1.82.82,1.82,1.82-.82,1.82-1.82,1.82ZM253.84,540.32l65.11-37.59v8.46l-57.78,33.36v11.05l-7.33-4.23v-11.05ZM365.45,617.15l-23,13.1.06-41.15-22.33,12.48.04-29.41,45.33-25.17-.1,70.15ZM376.99,612.28l7.33,4.23-64.11,37.01v-8.46l56.78-32.78ZM320.17,603.31l20.83-11.64-.06,39.69-21.49,12.41-21.63-12.49.06-39.67,20.79,11.7.75.42.75-.42ZM318.67,601.58l-22.29-12.54-.06,41.15-22.97-13.17.1-70.15,45.26,25.31-.04,29.41ZM318.7,645.07v8.46l-64.11-37.02,7.33-4.23,56.78,32.78ZM253.84,553.1l7.33,4.23v53.65l-7.33,4.23v-62.11ZM385.06,630.61l-65.61,37.88-65.61-37.88v-12.8l65.62,37.88,65.61-37.88v12.79ZM385.06,615.21l-7.33-4.23v-65.43l7.33-4.23v73.89ZM320.45,476.55l86.91,50.18-30.25,17.46-56.66-32.71v-34.93ZM319.45,512.63l56.78,32.78v65.57l-9.29,5.36.1-71.9-47.59,26.42-47.51-26.56-.11,71.98-9.18-5.3v-65.57l56.78-32.78ZM527.35,420.06h15.87v-15.87h-15.87v15.87ZM528.85,405.69h12.87v12.87h-12.87v-12.87ZM527.35,476.46h15.87v-15.87h-15.87v15.87ZM528.85,462.09h12.87v12.87h-12.87v-12.87ZM351.83,446.94c.92,0,1.68-.75,1.68-1.68s-.75-1.68-1.68-1.68-1.68.75-1.68,1.68.75,1.68,1.68,1.68ZM351.83,445.09c.1,0,.18.08.18.18,0,.19-.35.19-.35,0,0-.1.08-.18.18-.18ZM362.84,447.84h-7.71v15.48h7.71v-15.48ZM361.34,461.82h-4.71v-12.48h4.71v12.48ZM366.14,467.57c.92,0,1.68-.75,1.68-1.68s-.75-1.68-1.68-1.68-1.68.75-1.68,1.68.75,1.68,1.68,1.68ZM366.14,465.72c.1,0,.18.08.18.18,0,.19-.35.19-.35,0,0-.1.08-.18.18-.18ZM366.14,446.94c.92,0,1.68-.75,1.68-1.68s-.75-1.68-1.68-1.68-1.68.75-1.68,1.68.75,1.68,1.68,1.68ZM366.14,445.09c.1,0,.18.08.18.18,0,.19-.35.19-.35,0,0-.1.08-.18.18-.18ZM351.83,467.57c.92,0,1.68-.75,1.68-1.68s-.75-1.68-1.68-1.68-1.68.75-1.68,1.68.75,1.68,1.68,1.68ZM351.83,465.72c.1,0,.18.08.18.18,0,.19-.35.19-.35,0,0-.1.08-.18.18-.18ZM347.45,440.32v30.51h23.07v-30.51h-23.07ZM368.86,469.18h-19.75v-27.2h19.75v27.2ZM380.49,468.3c.92,0,1.68-.75,1.68-1.68s-.75-1.68-1.68-1.68-1.68.75-1.68,1.68.75,1.68,1.68,1.68ZM380.49,466.45c.1,0,.18.08.18.18,0,.19-.35.19-.35,0,0-.1.08-.18.18-.18ZM391.5,469.19h-7.71v15.48h7.71v-15.48ZM390,483.18h-4.71v-12.48h4.71v12.48ZM394.81,488.93c.92,0,1.68-.75,1.68-1.68s-.75-1.68-1.68-1.68-1.68.75-1.68,1.68.75,1.68,1.68,1.68ZM394.81,487.07c.1,0,.18.08.18.18,0,.19-.35.19-.35,0,0-.1.08-.18.18-.18ZM394.81,468.3c.92,0,1.68-.75,1.68-1.68s-.75-1.68-1.68-1.68-1.68.75-1.68,1.68.75,1.68,1.68,1.68ZM394.81,466.45c.1,0,.18.08.18.18,0,.19-.35.19-.35,0,0-.1.08-.18.18-.18ZM380.49,488.93c.92,0,1.68-.75,1.68-1.68s-.75-1.68-1.68-1.68-1.68.75-1.68,1.68.75,1.68,1.68,1.68ZM380.49,487.07c.1,0,.18.08.18.18,0,.19-.35.19-.35,0,0-.1.08-.18.18-.18ZM376.12,461.68v30.51h23.07v-30.51h-23.07ZM397.53,490.53h-19.75v-27.2h19.75v27.2ZM180.62,800.68l-10.59-23.84-.66.24c-6.77,2.43-14.29,2.63-21.19.54l-.67-.2-9.37,24.35.74.25c6.13,2.06,12.55,3.11,19.08,3.11,7.57,0,14.95-1.4,21.93-4.15l.73-.29ZM157.97,803.62c-6.1,0-12.1-.94-17.86-2.79l8.31-21.59c6.8,1.91,14.14,1.72,20.81-.53l9.39,21.14c-6.59,2.5-13.53,3.76-20.65,3.76ZM128.21,761.24l-.33-.61-23.84,10.59.35.7c6.27,12.61,16.83,22.64,29.73,28.26l.72.31,9.37-24.34-.63-.3c-6.51-3.07-11.96-8.26-15.37-14.61ZM134.01,798.48c-12.01-5.42-21.88-14.8-27.91-26.53l21.13-9.39c3.46,6.15,8.77,11.2,15.09,14.34l-8.3,21.58ZM184.56,798.89c12.61-6.27,22.64-16.83,28.26-29.73l.31-.72-24.34-9.37-.3.63c-3.07,6.51-8.26,11.97-14.61,15.37l-.61.33,10.59,23.84.7-.35ZM189.54,760.97l21.58,8.31c-5.42,12.01-14.8,21.88-26.53,27.91l-9.39-21.13c6.15-3.46,11.2-8.78,14.34-15.09ZM181.81,690.47l-.72-.31-9.37,24.34.63.3c6.51,3.07,11.96,8.26,15.37,14.61l.33.61,23.84-10.59-.35-.7c-6.27-12.61-16.83-22.64-29.73-28.26ZM188.71,728.09c-3.46-6.15-8.77-11.2-15.09-14.34l8.3-21.58c12.01,5.42,21.88,14.8,27.91,26.53l-21.13,9.39ZM214.65,764.4c2.06-6.13,3.11-12.55,3.11-19.08,0-7.57-1.4-14.95-4.15-21.93l-.29-.73-23.84,10.59.24.66c1.32,3.66,1.98,7.5,1.98,11.41,0,3.32-.49,6.61-1.45,9.78l-.2.67,24.35,9.37.25-.74ZM191.89,754.87c.87-3.1,1.31-6.31,1.31-9.55,0-3.85-.62-7.63-1.84-11.26l21.14-9.39c2.5,6.59,3.76,13.53,3.76,20.65,0,6.1-.94,12.1-2.79,17.86l-21.59-8.31ZM157.97,685.52c-7.57,0-14.95,1.4-21.93,4.15l-.73.29,10.59,23.84.66-.24c6.77-2.43,14.29-2.63,21.19-.54l.67.2,9.37-24.35-.74-.25c-6.13-2.06-12.55-3.11-19.08-3.11ZM167.52,711.4c-6.8-1.91-14.14-1.72-20.81.53l-9.39-21.14c6.59-2.5,13.53-3.76,20.65-3.76,6.1,0,12.1.94,17.85,2.79l-8.31,21.59ZM151.93,812.8l-.13,1.49c-33.45-2.95-59.86-29.37-62.81-62.81l1.49-.13c2.89,32.72,28.73,58.56,61.45,61.45ZM101.28,726.24c-2.06,6.13-3.11,12.55-3.11,19.08,0,7.57,1.4,14.95,4.15,21.93l.29.73,23.84-10.59-.24-.66c-1.32-3.66-1.98-7.5-1.98-11.41,0-3.32.49-6.61,1.45-9.78l.2-.67-24.35-9.37-.25.74ZM124.04,735.77c-.87,3.1-1.31,6.31-1.31,9.55,0,3.85.62,7.63,1.84,11.26l-21.14,9.39c-2.5-6.59-3.76-13.53-3.76-20.65,0-6.1.94-12.1,2.79-17.85l21.59,8.31ZM148.31,771.98c3.1,1.12,6.35,1.69,9.66,1.69,3.81,0,7.5-.74,10.99-2.21l.4-.18c6.88-3.02,12.37-8.77,15.07-15.78l.2-.52c1.12-3.09,1.69-6.34,1.69-9.66,0-3.81-.74-7.5-2.21-10.99l-.18-.4c-3.02-6.88-8.77-12.37-15.78-15.07l-.53-.2c-3.1-1.12-6.35-1.69-9.66-1.69-3.8,0-7.5.74-11,2.21l-.4.18c-6.88,3.02-12.37,8.77-15.06,15.77l-.2.53c-1.12,3.09-1.69,6.34-1.69,9.66,0,3.81.74,7.5,2.21,10.99l.18.4c3.02,6.88,8.77,12.37,15.78,15.07l.53.2ZM133.37,756.11l-.17-.39c-1.39-3.3-2.09-6.8-2.09-10.4,0-3.14.54-6.22,1.59-9.13l.2-.52c2.56-6.63,7.76-12.08,14.27-14.94l.39-.17c3.3-1.39,6.8-2.09,10.4-2.09,3.14,0,6.22.54,9.13,1.6l.52.2c6.63,2.56,12.08,7.76,14.94,14.27l.17.39c1.39,3.3,2.09,6.8,2.09,10.4,0,3.14-.54,6.21-1.6,9.14l-.19.5c-2.56,6.64-7.76,12.08-14.28,14.95l-.39.17c-3.3,1.39-6.8,2.09-10.4,2.09-3.14,0-6.22-.54-9.13-1.6l-.51-.2c-6.64-2.56-12.08-7.76-14.95-14.27ZM131.37,691.75c-12.61,6.27-22.64,16.83-28.26,29.73l-.31.72,24.34,9.37.3-.63c3.07-6.51,8.26-11.97,14.61-15.37l.61-.33-10.59-23.84-.7.35ZM126.39,729.67l-21.58-8.3c5.42-12.01,14.8-21.88,26.53-27.91l9.39,21.13c-6.15,3.46-11.2,8.77-14.34,15.09ZM552.53,329.87h0c0-14.55-11.83-26.38-26.38-26.38-7.43,0-14.14,3.09-18.94,8.04h-61.1v-4.61h-12.18v4.61h-52.47v-4.61h-12.17v4.61h-52.47v-4.61h-12.17v4.61h-52.47v-4.61h-12.17v4.61h-52.47v-4.61h-12.17v4.61h-41.06c-4.8-4.96-11.51-8.04-18.94-8.04-14.54,0-26.38,11.83-26.38,26.38v58.66h1.5c0-6.45,5.25-11.7,11.7-11.7s11.7,5.25,11.7,11.7v36.83c0,7.79,6.33,14.12,14.12,14.12s14.12-6.33,14.12-14.12v-5.72c0-6.45,5.24-11.69,11.69-11.69s11.69,5.24,11.69,11.69v74.84c-.17,7.78,6.03,14.25,13.82,14.42,3.75.07,7.35-1.31,10.07-3.92,2.72-2.61,4.27-6.12,4.35-9.89l.07-3.16c8.74,12.55,22.87,20.16,38.25,20.48.34,0,.68.01,1.02.01,24.51,0,45.34-18.84,47.65-43.32l.04-.47-5.23-3.18,5.37-2.95-.02-.47c-.82-15.98-9.59-29.9-22.36-37.96h19.36v1.68h126.43c8.33,30.14,17.48,79.03,17.16,147.87v.75s.46,0,.46,0v50.46l2.92,9.61,2.92-9.5v-50.57h.39v-.75c.32-67.63-8.49-116.81-16.72-147.88h27.19c8.33,30.14,17.48,79.03,17.16,147.87v.75s.46,0,.46,0v50.46l2.92,9.61,2.92-9.5v-50.57h.39v-.75c.32-67.63-8.49-116.81-16.72-147.88h29.35v-1.98h9.94c6.04,0,11.88,1.11,16.9,3.2l21.45,8.93v16.33h22.29v4.5h-22.29v23.79h22.29v26.94h-7.74v9.56h-14.55v24.94h14.55v3.87h7.74v21.6h-22.29v23.79h22.29v4.5h-22.29v23.79h22.29v4.5h-22.29v23.79h22.94v3.15h-135.4l-9.61,2.92,9.5,2.92h135.51v3.29h-105.39l-9.61,2.92,9.5,2.92h105.51v49.96c-10.16-22.29-31.65-38.2-57.25-40.46l-.82-.07v6.38h-10.78v-6.38l-.82.07c-20.03,1.77-37.55,11.89-49.09,26.88h-215.32c-11.46-14.45-28.59-24.19-48.12-25.91l-.82-.07v6.33h-10.7v-6.33l-.82.07c-30.22,2.67-54.69,24.49-61.31,53.34v-55.25h26.26v-7.93h12.23c4.45,0,8.07-3.62,8.07-8.07s-3.62-8.07-8.07-8.07h-12.23v-9.96h32.48c4.45,0,8.07-3.62,8.07-8.07s-3.62-8.07-8.07-8.07h-32.48v-9.96h47.26c4.45,0,8.07-3.62,8.07-8.07s-3.62-8.07-8.07-8.07h-47.26v-36.5h-26.26v-157.4h-1.5v194.65h.75v.75h74.28c3.62,0,6.57,2.95,6.57,6.57s-2.95,6.57-6.57,6.57h-74.28v.75h-.75v11.46h.75v.75h59.5c3.62,0,6.57,2.95,6.57,6.57s-2.95,6.57-6.57,6.57h-59.5v.75h-.75v11.46h.75v.75h39.25c3.62,0,6.57,2.95,6.57,6.57s-2.95,6.57-6.57,6.57h-39.25v.74h-.75v73.39s0,0,0,0h0v.07h.77l.72.06c2.86-32.45,28.3-58.13,60.64-61.38v6.19h13.7v-6.19c32.06,3.21,57.35,28.5,60.56,60.56h-6.19v13.7h6.19c-3.24,32.33-28.93,57.77-61.38,60.64l.07.75v.75h312.65l.07-1.5c-32.69-2.88-58.56-28.51-61.82-61.08h6.23v-13.78h-6.23c3.23-32.3,28.7-57.77,61-61v6.23h13.78v-6.23c32.57,3.26,58.19,29.13,61.08,61.82l.06.68h1.64v-409.57h0ZM115.25,598.15h-24.76v-35h24.76v35ZM115.25,624.26h-24.76v-9.96h24.76v9.96ZM115.25,650.36h-24.76v-9.96h24.76v9.96ZM90.49,666.51h24.76v6.43h-24.76v-6.43ZM413.4,738.63l-.07.82h6.38v10.78h-6.38l.07.82c2.69,30.44,24.68,55.1,53.76,61.76H173.59c28.86-6.62,50.69-31.09,53.36-61.32l.07-.82h-6.33v-10.7h6.33l-.07-.82c-1.17-13.25-6.03-25.38-13.54-35.4h213.05c-7.24,9.94-11.91,21.87-13.06,34.87ZM526.15,304.99c13.72,0,24.88,11.16,24.88,24.88s-11.16,24.88-24.88,24.88c-6.47,0-12.37-2.48-16.8-6.54h16.8c10.11,0,18.33-8.22,18.33-18.33s-8.22-18.33-18.33-18.33h-16.8c4.43-4.06,10.33-6.54,16.8-6.54ZM433.94,342.1v4.61h-52.47v-4.61h-12.17v4.61h-52.47v-4.61h-12.17v4.61h-52.47v-4.61h-12.17v4.61h-52.47v-4.61h-12.17v4.61h-39.71c3.65-4.39,5.9-9.98,6.07-16.08h358.07c.17,6.1,2.42,11.69,6.07,16.08h-59.75v-4.61h-12.18ZM444.61,343.6v3.11h-9.18v-3.11h9.18ZM379.97,343.6v3.11h-9.17v-3.11h9.17ZM315.33,343.6v3.11h-9.17v-3.11h9.17ZM250.68,343.6v3.11h-9.17v-3.11h9.17ZM186.04,343.6v3.11h-9.17v-3.11h9.17ZM133.66,330.62h6.56c-.18,6.19-2.64,11.82-6.56,16.08h-11.05c6.29-2.72,10.75-8.87,11.05-16.08ZM115.36,346.7c-9.28,0-16.83-7.55-16.83-16.83s7.55-16.83,16.83-16.83,16.83,7.55,16.83,16.83-7.55,16.83-16.83,16.83ZM209.19,329.12v-3.11h9.17v3.11h-9.17ZM273.83,329.12v-3.11h9.17v3.11h-9.17ZM338.47,329.12v-3.11h9.17v3.11h-9.17ZM403.12,329.12v-3.11h9.17v3.11h-9.17ZM501.3,330.62h6.56c.29,7.21,4.75,13.36,11.05,16.08h-11.05c-3.92-4.26-6.38-9.89-6.56-16.08ZM509.32,329.87c0-9.28,7.55-16.83,16.83-16.83s16.83,7.55,16.83,16.83-7.55,16.83-16.83,16.83-16.83-7.55-16.83-16.83ZM507.86,313.04h11.05c-6.29,2.72-10.75,8.87-11.05,16.08h-6.56c.18-6.19,2.64-11.82,6.56-16.08ZM435.44,308.43h9.18v3.11h-9.18v-3.11ZM370.79,308.43h9.17v3.11h-9.17v-3.11ZM306.15,308.43h9.17v3.11h-9.17v-3.11ZM241.51,308.43h9.17v3.11h-9.17v-3.11ZM176.87,308.43h9.17v3.11h-9.17v-3.11ZM175.37,313.04h330.5c-3.65,4.39-5.9,9.98-6.07,16.08h-86.01v-4.61h-12.17v4.61h-52.47v-4.61h-12.17v4.61h-52.47v-4.61h-12.17v4.61h-52.47v-4.61h-12.17v4.61h-65.97c-.17-6.1-2.42-11.69-6.07-16.08h39.71ZM140.22,329.12h-6.56c-.29-7.21-4.75-13.36-11.05-16.08h11.05c3.92,4.26,6.38,9.89,6.56,16.08ZM115.36,304.99c6.47,0,12.37,2.48,16.8,6.54h-16.8c-10.11,0-18.33,8.22-18.33,18.33s8.22,18.33,18.33,18.33h16.8c-4.43,4.06-10.33,6.54-16.8,6.54-13.72,0-24.88-11.16-24.88-24.88s11.16-24.88,24.88-24.88ZM277.89,422.57h-21.89c-2.82-1.55-5.82-2.82-8.94-3.78h30.83v3.78ZM277.89,417.29h-37.27c-2.13-.34-4.3-.55-6.51-.59-16.19-.34-31.33,7.43-40.51,20.8l-.13.18-.27,12.64,1.5.03.26-12.19c8.9-12.84,23.52-20.3,39.11-19.97,1.98.04,3.92.22,5.84.51v.09h.61c21.02,3.43,37.5,21.14,38.84,42.85l-6.81,3.74,6.65,4.03c-2.45,23.48-22.52,41.49-46.11,41.49-.33,0-.66,0-.98-.01-15.69-.33-30.02-8.48-38.35-21.8l-1.33-2.13-.17,8.07c-.07,3.37-1.45,6.51-3.88,8.84-2.43,2.33-5.67,3.58-9,3.51-6.96-.15-12.5-5.93-12.35-12.9v-74.86c0-7.27-5.92-13.19-13.19-13.19s-13.19,5.92-13.19,13.19v5.72c0,6.96-5.66,12.62-12.62,12.62s-12.62-5.66-12.62-12.62v-37.19h-.02c-.02-.69-.09-1.36-.21-2.01h41.91c.37,2.61,2.6,4.64,5.31,4.64h23.15c2.71,0,4.94-2.02,5.31-4.64h55.14v6.62h3.57v7.24h1.5v-7.24h3.44v7.24h1.5v-7.24h3.44v7.24h1.5v-7.24h3.44v7.24h1.5v-7.24h3.44v7.24h1.5v-7.24h3.44v7.24h1.5v-7.24h3.44v7.24h1.5v-7.24h3.57v-6.62h47.26c.37,2.61,2.6,4.64,5.31,4.64h23.15c2.65,0,4.85-1.93,5.29-4.45h25.79v2.33l.09.16c.12.22,4.57,8.85,10.03,26.25h-123.29v2.21ZM173.96,382.06c-1.59,0-2.91,1.11-3.26,2.6h-12.13c.35-1.78,1.92-3.14,3.81-3.14h23.15c1.89,0,3.46,1.35,3.81,3.14h-12.13c-.34-1.49-1.67-2.6-3.26-2.6ZM175.81,385.41c0,1.02-.83,1.85-1.85,1.85s-1.85-.83-1.85-1.85.83-1.85,1.85-1.85,1.85.83,1.85,1.85ZM170.71,386.16c.34,1.49,1.67,2.6,3.26,2.6s2.91-1.11,3.26-2.6h12.13c-.35,1.78-1.92,3.14-3.81,3.14h-23.15c-1.89,0-3.46-1.35-3.81-3.14h12.13ZM278.4,389.35l2.74,1.93h-32.03l2.74-1.93h26.56ZM252.35,387.85v-4.99h25.53v4.99h-25.53ZM279.39,388.21v-5.71l3.37-2.37v10.45l-3.37-2.37ZM278.4,381.36h-26.56l-2.74-1.93h32.03l-2.74,1.93ZM250.85,382.5v5.71l-3.37,2.37v-10.45l3.37,2.37ZM348.58,382.24c-1.52,0-2.79,1.03-3.2,2.42h-12.36c.35-1.78,1.92-3.14,3.81-3.14h23.15c1.95,0,3.55,1.44,3.83,3.32h-11.96c-.34-1.49-1.67-2.6-3.26-2.6ZM350.43,385.59c0,1.02-.83,1.85-1.85,1.85s-1.85-.83-1.85-1.85.83-1.85,1.85-1.85,1.85.83,1.85,1.85ZM345.29,386.16c.27,1.57,1.64,2.78,3.29,2.78s2.91-1.11,3.26-2.6h11.9c-.42,1.69-1.94,2.95-3.76,2.95h-23.15c-1.89,0-3.46-1.35-3.81-3.14h12.27ZM396.34,386.34c.28.57,4.94,10.11,10.54,28.74h-4.13c-5.19-16.63-9.52-25.46-10.19-26.78v-1.96h3.78ZM392.56,384.84v-23.09c0-.99.8-1.79,1.79-1.79s1.79.8,1.79,1.79v21.58s.06,1.51.06,1.51h-3.64ZM425.45,388.83c.12.22,4.57,8.85,10.03,26.25h-27.05c-4.96-16.61-9.22-26.17-10.43-28.74h27.36v2.33l.09.16ZM430.65,386.34c.28.57,5.39,11.61,10.98,30.24h-4.11c-5.19-16.63-9.98-26.96-10.65-28.28v-1.96h3.78ZM426.87,384.84v-23.09c0-.99.8-1.79,1.79-1.79s1.79.8,1.79,1.79v21.27s.07,1.82.07,1.82h-3.64ZM279.39,424.25v-7.67h122.26c.74,2.4,1.49,4.96,2.26,7.67h-124.52ZM403.21,416.58h4.11c.71,2.41,1.44,4.97,2.17,7.67h-4.03c-.76-2.71-1.51-5.27-2.25-7.67ZM426.27,624.72l-1.42,4.61-1.42-4.61v-50.34h2.83v50.34ZM426.66,572.88h-3.68c.25-68.27-8.8-116.93-17.11-147.13h4.02c8.2,30.8,17.02,79.73,16.78,147.13ZM411.04,424.25c-.73-2.7-1.45-5.26-2.16-7.67h27.07c.74,2.4,1.49,4.96,2.26,7.67h-27.18ZM437.52,416.58h4.11c.71,2.41,1.84,6.47,2.57,9.17h-4.02c-.76-2.71-1.93-6.77-2.66-9.17ZM460.58,624.72l-1.42,4.61-1.42-4.61v-50.34h2.83v50.34ZM460.97,572.88h-3.68c.25-68.27-8.8-116.93-17.11-147.13h4.02c8.2,30.8,17.02,79.73,16.77,147.13ZM473.59,417.29l-.08.56v6.48l.08-.56v.48h-28.25c-.73-2.7-1.45-5.26-2.16-7.67h30.4v.71ZM523.37,434.27l-20.87-8.69c-5.2-2.17-11.24-3.31-17.47-3.31h-9.94v-3.48h11.91c8.14,0,15.8,1.99,21.57,5.59l14.81,9.24v.65ZM523.37,431.85l-14.01-8.74c-6-3.75-13.95-5.82-22.36-5.82h-11.91v-2.21h-32.35c-4.96-16.61-9.22-26.17-10.43-28.74h49.08v6.67h3.57v7.24h1.5v-7.24h3.44v7.24h1.5v-7.24h3.44v7.24h1.5v-7.24h3.44v7.24h1.5v-7.24h3.44v7.24h1.5v-7.24h3.44v7.24h1.5v-7.24h3.44v7.24h1.5v-7.24h3.57v-6.67h23.5c.29,1.24,1.26,2.22,2.51,2.51v11.3h-22.29v23.79h22.29v4.5h-22.29v3.42ZM513.81,389.58l2.74,1.93h-32.03l2.74-1.93h26.56ZM487.76,388.08v-4.99h25.53v4.99h-25.53ZM514.79,388.44v-5.71l3.37-2.37v10.45l-3.37-2.37ZM513.81,381.59h-26.56l-2.74-1.93h32.03l-2.74,1.93ZM486.26,382.73v5.71l-3.37,2.37v-10.45l3.37,2.37ZM544.57,385.59c0-1.02.83-1.85,1.85-1.85s1.85.83,1.85,1.85-.83,1.85-1.85,1.85-1.85-.83-1.85-1.85ZM524.87,434.56l1.62,1.01-1.62-.67v-.34ZM539.43,544.31v-3.87h-14.55v-21.94h14.55v-9.56h6.24v13.36h-2.96v18.04h2.96v3.96h-6.24ZM545.67,523.8v15.04h-1.46v-15.04h1.46ZM551.03,730.06c-.79-3.69-1.87-7.27-3.22-10.71v-54.98h-106.78l-4.61-1.42,4.61-1.42h106.78v-6.29h-136.79l-4.61-1.42,4.61-1.42h136.79v-6.15h-22.94v-20.79h22.29v-7.5h-22.29v-20.79h22.29v-7.5h-22.29v-20.79h21.54v-.75h.75v-89.15h-22.29v-20.79h22.29v-7.5h-22.29v-14.2l2.48,1.03v10.71h15.87v-15.87h-15.87v1.95l-2.48-1.55v-2.86h22.29v-7.5h-22.29v-20.79h22.29v-12.8c1.49-.34,2.6-1.67,2.6-3.26,0-1.85-1.5-3.35-3.35-3.35-1.59,0-2.91,1.11-3.26,2.6h-23.5v-6.67h-3.57v-7.24h-1.5v7.24h-3.44v-7.24h-1.5v7.24h-3.44v-7.24h-1.5v7.24h-3.44v-7.24h-1.5v7.24h-3.44v-7.24h-1.5v7.24h-3.44v-7.24h-1.5v7.24h-3.44v-7.24h-1.5v7.24h-3.57v6.67h-49.38l-.07-1.85v-21.25c0-1.81-1.48-3.29-3.29-3.29s-3.29,1.48-3.29,3.29v23.09h-27.67l-.06-1.54v-21.55c0-1.81-1.48-3.29-3.29-3.29s-3.29,1.48-3.29,3.29v23.09h-25.76c-.29-2.7-2.55-4.82-5.33-4.82h-23.15c-2.71,0-4.94,2.02-5.31,4.64h-47.26v-6.73h-3.57v-7.24h-1.5v7.24h-3.44v-7.24h-1.5v7.24h-3.44v-7.24h-1.5v7.24h-3.44v-7.24h-1.5v7.24h-3.44v-7.24h-1.5v7.24h-3.44v-7.24h-1.5v7.24h-3.44v-7.24h-1.5v7.24h-3.57v6.73h-55.14c-.37-2.61-2.6-4.64-5.31-4.64h-23.15c-2.71,0-4.94,2.02-5.31,4.64h-42.27c-1.66-5.39-6.69-9.32-12.62-9.32-5.08,0-9.5,2.89-11.7,7.11v-43.82c3.62,10.25,13.4,17.62,24.88,17.62,7.43,0,14.14-3.09,18.94-8.04h372.91c4.8,4.96,11.51,8.04,18.94,8.04,11.48,0,21.26-7.37,24.88-17.62v391.43ZM528.85,435.27v-1.38h12.87v12.87h-12.87v-8.58l5.51,2.3.69-1.33-6.2-3.87ZM373.04,514.16c-.81-.47-1.75-.59-2.65-.35-.9.24-1.65.82-2.12,1.63-.47.81-.59,1.75-.35,2.65.24.9.82,1.65,1.63,2.12.54.31,1.14.47,1.74.47.3,0,.61-.04.91-.12.9-.24,1.65-.82,2.12-1.63.47-.81.59-1.75.35-2.65-.24-.9-.82-1.65-1.63-2.12ZM373.02,518.18c-.27.46-.7.79-1.21.93-.51.14-1.05.07-1.51-.2s-.79-.7-.93-1.21-.07-1.05.2-1.51.7-.79,1.21-.93c.17-.05.35-.07.52-.07.35,0,.69.09.99.27.46.27.79.7.93,1.21s.07,1.05-.2,1.51ZM374,512.5c-1.25-.72-2.71-.91-4.1-.54-1.39.37-2.56,1.27-3.28,2.52-.72,1.25-.91,2.71-.54,4.1.37,1.39,1.27,2.56,2.52,3.28.83.48,1.76.73,2.69.73.47,0,.94-.06,1.41-.19,1.39-.37,2.56-1.27,3.28-2.52.72-1.25.91-2.71.54-4.1s-1.27-2.56-2.52-3.28ZM374.67,519.14c-.52.9-1.36,1.55-2.37,1.82-1.01.27-2.06.13-2.96-.39-.9-.52-1.55-1.36-1.82-2.37-.27-1.01-.13-2.06.39-2.96s1.36-1.55,2.37-1.82c.34-.09.68-.13,1.02-.13.68,0,1.34.18,1.95.52.9.52,1.55,1.36,1.82,2.37.27,1.01.13,2.06-.39,2.96ZM356.18,512.49c.54.31,1.14.47,1.74.47.3,0,.61-.04.91-.12.9-.24,1.65-.82,2.12-1.63.47-.81.59-1.75.35-2.65-.24-.9-.82-1.65-1.63-2.12-1.67-.96-3.81-.39-4.77,1.28-.47.81-.59,1.75-.35,2.65.24.9.82,1.65,1.63,2.12ZM356.2,508.47c.27-.46.7-.79,1.21-.93.17-.05.35-.07.52-.07.35,0,.69.09.99.27.46.27.79.7.93,1.21s.07,1.05-.2,1.51-.7.79-1.21.93c-.51.14-1.05.07-1.51-.2-.95-.55-1.28-1.77-.73-2.72ZM355.22,514.14c.85.49,1.78.72,2.69.72,1.87,0,3.69-.97,4.69-2.7.72-1.25.91-2.71.54-4.1-.37-1.39-1.27-2.56-2.52-3.28-1.25-.72-2.71-.91-4.1-.54-1.39.37-2.56,1.27-3.28,2.52s-.91,2.71-.54,4.1,1.27,2.56,2.52,3.28ZM354.54,507.51c.52-.9,1.36-1.55,2.37-1.82.34-.09.68-.13,1.02-.13.68,0,1.34.18,1.95.52.9.52,1.55,1.36,1.82,2.37.27,1.01.13,2.06-.39,2.96-1.08,1.86-3.47,2.5-5.33,1.43-.9-.52-1.55-1.36-1.82-2.37-.27-1.01-.13-2.06.39-2.96ZM342.81,504.77c.55.32,1.15.47,1.74.47,1.21,0,2.38-.63,3.03-1.75.47-.81.59-1.75.35-2.65-.24-.9-.82-1.65-1.63-2.12-.81-.47-1.75-.59-2.65-.35-.9.24-1.65.82-2.12,1.63-.96,1.67-.39,3.81,1.28,4.77ZM342.83,500.75c.27-.46.7-.79,1.21-.93.51-.14,1.05-.07,1.51.2.46.27.79.7.93,1.21s.07,1.05-.2,1.51-.7.79-1.21.93-1.05.07-1.51-.2c-.95-.55-1.28-1.77-.73-2.72ZM341.85,506.43c.83.48,1.76.73,2.69.73.47,0,.94-.06,1.41-.19,1.39-.37,2.56-1.27,3.28-2.52s.91-2.71.54-4.1c-.37-1.39-1.27-2.56-2.52-3.28-2.58-1.49-5.89-.6-7.38,1.98-1.49,2.58-.6,5.89,1.98,7.38ZM341.17,499.79c1.08-1.86,3.47-2.51,5.33-1.43.9.52,1.55,1.36,1.82,2.37.27,1.01.13,2.06-.39,2.96s-1.36,1.55-2.37,1.82c-1.01.27-2.06.13-2.96-.39-1.86-1.08-2.5-3.47-1.43-5.33ZM360.5,520.44c-.81-.47-1.75-.59-2.65-.35-.9.24-1.65.82-2.12,1.63-.47.81-.59,1.75-.35,2.65.24.9.82,1.65,1.63,2.12.54.31,1.14.47,1.74.47.3,0,.61-.04.91-.12.9-.24,1.65-.82,2.12-1.63.96-1.67.39-3.81-1.28-4.77ZM360.48,524.46c-.27.46-.7.79-1.21.93-.51.14-1.05.07-1.51-.2-.46-.27-.79-.7-.93-1.21s-.07-1.05.2-1.51.7-.79,1.21-.93c.17-.05.35-.07.52-.07.35,0,.69.09.99.27.46.27.79.7.93,1.21s.07,1.05-.2,1.51ZM361.46,518.78c-1.25-.72-2.71-.91-4.1-.54-1.39.37-2.56,1.27-3.28,2.52-.72,1.25-.91,2.71-.54,4.1.37,1.39,1.27,2.56,2.52,3.28.83.48,1.76.73,2.69.73.47,0,.94-.06,1.41-.19,1.39-.37,2.56-1.27,3.28-2.52.72-1.25.91-2.71.54-4.1s-1.27-2.56-2.52-3.28ZM362.14,525.41c-.52.9-1.36,1.55-2.37,1.82-1.01.27-2.06.13-2.96-.39-.9-.52-1.55-1.36-1.82-2.37-.27-1.01-.13-2.06.39-2.96s1.36-1.55,2.37-1.82c.34-.09.68-.13,1.02-.13.68,0,1.34.18,1.95.52.9.52,1.55,1.36,1.82,2.37.27,1.01.13,2.06-.39,2.96ZM347.13,512.72c-1.67-.96-3.81-.39-4.77,1.28-.47.81-.59,1.75-.35,2.65.24.9.82,1.65,1.63,2.12.55.32,1.15.47,1.74.47,1.21,0,2.38-.63,3.03-1.75.47-.81.59-1.75.35-2.65-.24-.9-.82-1.65-1.63-2.12ZM347.11,516.74c-.27.46-.7.79-1.21.93-.51.14-1.05.07-1.51-.2-.95-.55-1.28-1.77-.73-2.72.27-.46.7-.79,1.21-.93.17-.05.35-.07.52-.07.35,0,.69.09.99.27.46.27.79.7.93,1.21s.07,1.05-.2,1.51ZM348.09,511.06c-2.58-1.49-5.89-.6-7.38,1.98-.72,1.25-.91,2.71-.54,4.1s1.27,2.56,2.52,3.28c.85.49,1.78.72,2.69.72,1.87,0,3.69-.97,4.69-2.7.72-1.25.91-2.71.54-4.1s-1.27-2.56-2.52-3.28ZM348.77,517.7c-1.08,1.86-3.47,2.5-5.33,1.43-.9-.52-1.55-1.36-1.82-2.37-.27-1.01-.13-2.06.39-2.96.72-1.25,2.04-1.95,3.39-1.95.66,0,1.33.17,1.95.52.9.52,1.55,1.36,1.82,2.37.27,1.01.13,2.06-.39,2.96ZM105.47,511.56h42.87v-42.87h-42.87v42.87ZM108.03,510.06l3.18-3.18h31.4l3.18,3.18h-37.75ZM111.64,505.38v-30.52h30.52v30.52h-30.52ZM146.83,509l-3.18-3.18v-31.4l3.18-3.18v37.75ZM145.77,470.19l-3.18,3.18h-31.4l-3.18-3.18h37.75ZM106.97,471.25l3.18,3.18v31.4l-3.18,3.18v-37.75ZM147.51,516.19h-1.5v8.72l86.93,73.58c-.08.27-.14.55-.14.84,0,1.62,1.32,2.94,2.94,2.94s2.94-1.32,2.94-2.94-1.32-2.94-2.94-2.94c-.78,0-1.48.31-2,.8l-86.22-72.98v-8.03ZM235.74,597.9c.79,0,1.44.64,1.44,1.44s-.64,1.44-1.44,1.44-1.44-.64-1.44-1.44.64-1.44,1.44-1.44ZM180.01,486.58c-4.59,0-8.32,3.73-8.32,8.32s3.73,8.32,8.32,8.32,8.32-3.73,8.32-8.32-3.73-8.32-8.32-8.32ZM180.01,501.73c-3.76,0-6.82-3.06-6.82-6.82s3.06-6.82,6.82-6.82,6.82,3.06,6.82,6.82-3.06,6.82-6.82,6.82ZM128.17,417.29c-4.59,0-8.32,3.73-8.32,8.32s3.73,8.32,8.32,8.32,8.32-3.73,8.32-8.32-3.73-8.32-8.32-8.32ZM128.17,432.43c-3.76,0-6.82-3.06-6.82-6.82s3.06-6.82,6.82-6.82,6.82,3.06,6.82,6.82-3.06,6.82-6.82,6.82ZM176.69,498.23h6.65v-6.65h-6.65v6.65ZM178.19,493.08h3.65v3.65h-3.65v-3.65ZM124.84,428.94h6.65v-6.65h-6.65v6.65ZM126.34,423.79h3.65v3.65h-3.65v-3.65ZM483.48,607.69h18.62v-18.62h-18.62v18.62ZM484.98,590.57h15.62v15.62h-15.62v-15.62ZM492.79,591.5c-3.79,0-6.88,3.09-6.88,6.88s3.09,6.88,6.88,6.88,6.88-3.09,6.88-6.88-3.09-6.88-6.88-6.88ZM492.79,603.76c-2.97,0-5.38-2.41-5.38-5.38s2.41-5.38,5.38-5.38,5.38,2.41,5.38,5.38-2.41,5.38-5.38,5.38ZM490.27,594.46l3.08,3.42-1.12,1-3.08-3.42,1.12-1ZM227.8,786.44l-15.3,13.79h213.91l-15.3-13.79h-183.3ZM216.4,798.73l11.97-10.79h182.15l11.97,10.79h-206.1ZM239.93,765.54l-13.27,13.79h185.57l-13.27-13.79h-159.04ZM230.19,777.83l10.38-10.79h157.76l10.38,10.79h-178.52ZM244.12,757.66h64.89c2.83,0,5.13-2.3,5.13-5.13v-36.63c0-2.83-2.3-5.13-5.13-5.13h-64.89c-2.83,0-5.13,2.3-5.13,5.13v36.63c0,2.83,2.3,5.13,5.13,5.13ZM240.49,715.9c0-2,1.63-3.63,3.63-3.63h64.89c2,0,3.63,1.63,3.63,3.63v36.63c0,2-1.63,3.63-3.63,3.63h-64.89c-2,0-3.63-1.63-3.63-3.63v-36.63ZM248.02,754.2h57.1c2.5,0,4.53-2.03,4.53-4.53v-30.91c0-2.5-2.03-4.53-4.53-4.53h-57.1c-2.5,0-4.53,2.03-4.53,4.53v30.91c0,2.5,2.03,4.53,4.53,4.53ZM303.83,715.73h1.29c1.67,0,3.03,1.36,3.03,3.03v30.91c0,1.67-1.36,3.03-3.03,3.03h-1.29v-36.97ZM250.8,715.73h51.53v36.97h-51.53v-36.97ZM244.99,718.76c0-1.67,1.36-3.03,3.03-3.03h1.29v36.97h-1.29c-1.67,0-3.03-1.36-3.03-3.03v-30.91ZM253.74,734.05c0,1.62.89,2.49,2,2.49.9,0,1.6-.58,1.77-1.39h.59c-.2,1.1-1.1,1.94-2.36,1.94-1.5,0-2.58-1.19-2.58-3.04s1.07-3.04,2.58-3.04c1.25,0,2.15.82,2.36,1.94h-.59c-.16-.81-.87-1.39-1.77-1.39-1.11,0-2.01.88-2,2.49ZM260.85,732.5c-1.17,0-1.98.94-1.97,2.31,0,1.36.81,2.29,1.97,2.29,1.16,0,1.97-.93,1.96-2.29,0-1.37-.8-2.3-1.96-2.31ZM260.85,736.6c-.92,0-1.41-.82-1.41-1.79s.5-1.8,1.41-1.8c.91,0,1.41.82,1.41,1.8s-.5,1.79-1.41,1.79ZM269.48,734.03v2.98h-.56v-2.97c0-.69-.38-1.03-.96-1.02-.67,0-1.04.45-1.04,1.08v2.91h-.56v-3.02c0-.58-.35-.98-.94-.97-.6,0-1.06.48-1.06,1.16v2.83h-.56v-4.44h.54v.69h.05c.18-.47.61-.74,1.19-.74.61,0,1,.3,1.2.8h.03c.2-.49.67-.8,1.32-.8.82,0,1.35.52,1.35,1.52ZM276.36,734.03v2.98h-.56v-2.97c0-.69-.38-1.03-.96-1.02-.67,0-1.04.45-1.04,1.08v2.91h-.56v-3.02c0-.58-.35-.98-.94-.97-.6,0-1.06.48-1.05,1.16v2.83h-.56v-4.44h.54v.69h.05c.18-.47.61-.74,1.19-.74.61,0,1,.3,1.2.8h.03c.2-.49.67-.8,1.32-.8.82,0,1.35.52,1.35,1.52ZM277.57,732.57h.56v4.44h-.56v-4.44ZM278.27,731.42c0,.22-.19.39-.41.38-.23,0-.41-.17-.41-.38s.18-.39.41-.39c.22,0,.4.18.41.39ZM280.84,736.54l.37-.02v.52c-.09,0-.23.02-.42.02-.58,0-1.16-.38-1.16-1.11v-2.92h-.66v-.47h.66v-1.06h.56v1.06h.93v.47h-.93v2.78c0,.56.31.72.65.72ZM287.81,734.03v2.98h-.56v-2.97c0-.69-.38-1.03-.96-1.02-.67,0-1.04.45-1.04,1.08v2.91h-.56v-3.02c0-.58-.35-.98-.94-.97-.6,0-1.06.48-1.05,1.16v2.83h-.56v-4.44h.54v.69h.05c.18-.47.61-.74,1.19-.74.61,0,1,.3,1.2.8h.03c.2-.49.67-.8,1.32-.8.82,0,1.35.52,1.35,1.52ZM290.75,732.5c-1.16,0-1.96.96-1.95,2.31,0,1.35.78,2.29,2.04,2.28.9,0,1.53-.48,1.73-1.1h-.6c-.16.28-.52.6-1.13.6-.88,0-1.46-.64-1.48-1.64h3.3v-.26c0-1.51-.93-2.19-1.9-2.19ZM289.35,734.47c.05-.8.6-1.47,1.4-1.46.78,0,1.32.63,1.32,1.46h-2.72ZM297.02,734.14v2.87h-.56v-2.83c0-.72-.43-1.17-1.1-1.16-.69,0-1.19.47-1.19,1.23v2.76h-.56v-4.44h.54v.7h.05c.21-.46.65-.76,1.31-.76.9,0,1.5.57,1.5,1.63ZM299.72,736.54l.37-.02v.52c-.09,0-.23.02-.42.02-.58,0-1.16-.38-1.16-1.11v-2.92h-.66v-.47h.66v-1.06h.56v1.06h.93v.47h-.93v2.78c0,.56.31.72.65.72ZM329.89,757.66h64.89c2.83,0,5.13-2.3,5.13-5.13v-36.63c0-2.83-2.3-5.13-5.13-5.13h-64.89c-2.83,0-5.13,2.3-5.13,5.13v36.63c0,2.83,2.3,5.13,5.13,5.13ZM326.26,715.9c0-2,1.63-3.63,3.63-3.63h64.89c2,0,3.63,1.63,3.63,3.63v36.63c0,2-1.63,3.63-3.63,3.63h-64.89c-2,0-3.63-1.63-3.63-3.63v-36.63ZM333.78,754.2h57.1c2.5,0,4.53-2.03,4.53-4.53v-30.91c0-2.5-2.03-4.53-4.53-4.53h-57.1c-2.5,0-4.53,2.03-4.53,4.53v30.91c0,2.5,2.03,4.53,4.53,4.53ZM389.6,715.73h1.29c1.67,0,3.03,1.36,3.03,3.03v30.91c0,1.67-1.36,3.03-3.03,3.03h-1.29v-36.97ZM336.57,715.73h51.53v36.97h-51.53v-36.97ZM330.75,718.76c0-1.67,1.36-3.03,3.03-3.03h1.29v36.97h-1.29c-1.67,0-3.03-1.36-3.03-3.03v-30.91ZM353.28,731.09h4.33v.52h-1.86v5.4h-.59v-5.4h-1.87v-.52ZM359.88,732.5c.09,0,.22,0,.29,0v.56s-.18-.04-.33-.03c-.68,0-1.18.47-1.18,1.11v2.85h-.56v-4.44h.54v.69h.04c.18-.45.65-.75,1.2-.75ZM363.72,732.57h.56v4.44h-.56v-.74h-.04c-.2.45-.66.79-1.32.79-.85,0-1.46-.57-1.46-1.63v-2.87h.56v2.83c0,.68.44,1.13,1.06,1.13.58,0,1.2-.43,1.19-1.23v-2.72ZM368.56,735.8c0,.76-.61,1.3-1.66,1.3-.95,0-1.53-.43-1.64-1.22h.58c.09.48.45.73,1.06.73.67,0,1.1-.3,1.1-.78,0-.35-.25-.6-.77-.72l-.68-.16c-.75-.18-1.14-.59-1.15-1.18,0-.74.64-1.27,1.57-1.27.87,0,1.43.48,1.53,1.17h-.56c-.1-.42-.43-.68-.97-.68-.59,0-1.01.32-1.01.75,0,.34.25.58.79.71l.68.16c.75.18,1.12.58,1.12,1.18ZM371.05,736.54l.37-.02v.52c-.09,0-.23.02-.42.02-.58,0-1.16-.38-1.16-1.11v-2.92h-.66v-.47h.66v-1.06h.56v1.06h.93v.47h-.93v2.78c0,.56.31.72.65.72ZM541.37,607.46l-1.15-2.39,1.38-3.93-3.93,1.38-2.4-1.15-2.4,1.15-3.93-1.38,1.38,3.93-1.15,2.4,1.15,2.4-1.38,3.93,3.93-1.38,2.4,1.15,2.4-1.15,3.94,1.38-1.38-3.9,1.15-2.44ZM539.15,611.34l-1.56-.55-2.31,1.11-2.31-1.11-1.58.55.55-1.57-1.11-2.31,1.11-2.31-.55-1.58,1.57.55,2.31-1.11,2.31,1.11,1.58-.55-.55,1.57,1.11,2.31-1.11,2.36.54,1.52ZM541.37,579.24l-1.15-2.39,1.38-3.93-3.93,1.38-2.4-1.15-2.4,1.15-3.93-1.38,1.38,3.93-1.15,2.4,1.15,2.4-1.38,3.93,3.93-1.38,2.4,1.15,2.4-1.15,3.94,1.38-1.38-3.9,1.15-2.44ZM539.15,583.13l-1.56-.55-2.31,1.11-2.31-1.11-1.58.55.55-1.57-1.11-2.31,1.11-2.31-.55-1.58,1.57.55,2.31-1.11,2.31,1.11,1.58-.55-.55,1.57,1.11,2.31-1.11,2.36.54,1.52ZM541.37,636.18l-1.15-2.39,1.38-3.93-3.93,1.38-2.4-1.15-2.4,1.15-3.93-1.38,1.38,3.93-1.15,2.4,1.15,2.4-1.38,3.93,3.93-1.38,2.4,1.15,2.4-1.15,3.94,1.38-1.38-3.9,1.15-2.44ZM539.15,640.07l-1.56-.55-2.31,1.11-2.31-1.11-1.58.55.55-1.57-1.11-2.31,1.11-2.31-.55-1.58,1.57.55,2.31-1.11,2.31,1.11,1.58-.55-.55,1.57,1.11,2.31-1.11,2.36.54,1.52ZM492.58,563.39v4.87h1.5v-4.87c2.75-.37,4.88-2.72,4.88-5.57h-.75l.74-.15c-1.42-6.96-1.42-14.03,0-20.99l-.73-.15h.75c0-2.85-2.13-5.2-4.88-5.57v-3.91h-1.5v3.91c-2.75.37-4.88,2.72-4.88,5.57h.75l-.73.15c1.42,6.96,1.42,14.03,0,20.99l.74.15h-.75c0,2.85,2.13,5.2,4.88,5.57ZM493.33,561.95c-2.02,0-3.7-1.46-4.05-3.38h8.1c-.35,1.92-2.03,3.38-4.05,3.38ZM496.83,554.03h-7c.63-4.88.6-9.79-.12-14.66h7.25c-.72,4.88-.75,9.78-.12,14.66ZM497.04,555.53c.08.51.18,1.03.27,1.54h-7.96c.1-.51.19-1.03.27-1.54h7.41ZM493.33,532.4c1.8,0,3.31,1.16,3.88,2.77h-7.76c.56-1.61,2.08-2.77,3.88-2.77ZM497.42,536.67c-.08.4-.14.8-.21,1.19h-7.75c-.07-.4-.13-.8-.21-1.19h8.18ZM492.58,506.54v4.87h1.5v-4.87c2.75-.37,4.88-2.72,4.88-5.57h-.75l.73-.15c-1.42-6.96-1.42-14.03,0-20.99l-.74-.15h.75c0-2.85-2.13-5.2-4.88-5.57v-3.91h-1.5v3.91c-2.75.37-4.88,2.72-4.88,5.57h.75l-.74.15c1.42,6.96,1.42,14.03,0,20.99l.73.15h-.75c0,2.85,2.13,5.2,4.88,5.57ZM493.33,505.1c-2.02,0-3.7-1.46-4.05-3.38h8.1c-.35,1.92-2.03,3.38-4.05,3.38ZM496.83,497.18h-7c.63-4.88.6-9.79-.12-14.66h7.25c-.72,4.88-.75,9.78-.12,14.66ZM497.04,498.68c.08.51.18,1.03.27,1.54h-7.96c.1-.51.19-1.03.27-1.54h7.41ZM493.33,475.55c1.8,0,3.31,1.16,3.88,2.77h-7.76c.56-1.61,2.08-2.77,3.88-2.77ZM497.42,479.82c-.08.4-.14.8-.21,1.19h-7.75c-.07-.4-.13-.8-.21-1.19h8.18ZM114.29,563.95h-22.83v11.98h22.83v-11.98ZM112.79,574.43h-19.83v-8.98h19.83v8.98ZM114.29,577.34h-22.83v11.98h22.83v-11.98ZM112.79,587.82h-19.83v-8.98h19.83v8.98ZM223.57,655.99c-.81-.47-1.75-.59-2.65-.35-.9.24-1.65.82-2.12,1.63-.96,1.67-.39,3.81,1.28,4.77.55.32,1.15.47,1.74.47,1.21,0,2.38-.63,3.03-1.75.47-.81.59-1.75.35-2.65-.24-.9-.82-1.65-1.63-2.12ZM223.55,660.01c-.27.46-.7.79-1.21.93-.51.14-1.05.07-1.51-.2-.95-.55-1.28-1.77-.73-2.72.27-.46.7-.79,1.21-.93.51-.14,1.05-.07,1.51.2.46.27.79.7.93,1.21s.07,1.05-.2,1.51ZM224.53,654.33c-2.58-1.49-5.89-.6-7.38,1.98-.72,1.25-.91,2.71-.54,4.1.37,1.39,1.27,2.56,2.52,3.28.83.48,1.76.73,2.69.73.47,0,.94-.06,1.41-.19,1.39-.37,2.56-1.27,3.28-2.52s.91-2.71.54-4.1c-.37-1.39-1.27-2.56-2.52-3.28ZM225.2,660.96c-.52.9-1.36,1.55-2.37,1.82-1.01.27-2.06.13-2.96-.39-.9-.52-1.55-1.36-1.82-2.37-.27-1.01-.13-2.06.39-2.96,1.08-1.86,3.47-2.5,5.33-1.43.9.52,1.55,1.36,1.82,2.37.27,1.01.13,2.06-.39,2.96ZM206.71,654.32c.54.31,1.14.47,1.74.47.3,0,.61-.04.91-.12.9-.24,1.65-.82,2.12-1.63.96-1.67.39-3.81-1.28-4.77-1.67-.96-3.81-.39-4.77,1.28-.96,1.67-.39,3.81,1.28,4.77ZM206.73,650.29c.55-.95,1.77-1.28,2.72-.73.46.27.79.7.93,1.21s.07,1.05-.2,1.51c-.55.95-1.77,1.28-2.72.73-.46-.27-.79-.7-.93-1.21s-.07-1.05.2-1.51ZM205.75,655.97c.83.48,1.76.73,2.69.73.47,0,.94-.06,1.41-.19,1.39-.37,2.56-1.27,3.28-2.52,1.49-2.58.6-5.89-1.98-7.38-1.25-.72-2.71-.91-4.1-.54-1.39.37-2.56,1.27-3.28,2.52-.72,1.25-.91,2.71-.54,4.1s1.27,2.56,2.52,3.28ZM205.07,649.34c.52-.9,1.36-1.55,2.37-1.82.34-.09.68-.13,1.02-.13.68,0,1.34.18,1.95.52,1.86,1.08,2.5,3.47,1.43,5.33-.52.9-1.36,1.55-2.37,1.82-1.01.27-2.06.13-2.96-.39-.9-.52-1.55-1.36-1.82-2.37-.27-1.01-.13-2.06.39-2.96ZM193.34,646.6c.55.32,1.15.47,1.74.47,1.21,0,2.38-.63,3.03-1.75.96-1.67.39-3.81-1.28-4.77-1.67-.96-3.81-.39-4.77,1.28-.96,1.67-.39,3.81,1.28,4.77ZM193.36,642.58c.27-.46.7-.79,1.21-.93.51-.14,1.05-.07,1.51.2.95.55,1.28,1.77.73,2.72-.55.95-1.77,1.28-2.72.73-.95-.55-1.28-1.77-.73-2.72ZM192.38,648.25c.83.48,1.76.73,2.69.73.47,0,.94-.06,1.41-.19,1.39-.37,2.56-1.27,3.28-2.52,1.49-2.58.6-5.89-1.98-7.38-2.58-1.49-5.89-.6-7.38,1.98s-.6,5.89,1.98,7.38ZM191.7,641.62c1.08-1.86,3.47-2.51,5.33-1.43,1.86,1.08,2.5,3.47,1.43,5.33-.52.9-1.36,1.55-2.37,1.82-1.01.27-2.06.13-2.96-.39-1.86-1.08-2.5-3.47-1.43-5.33ZM207.54,668.31c.54.31,1.14.47,1.74.47.3,0,.61-.04.91-.12.9-.24,1.65-.82,2.12-1.63.47-.81.59-1.75.35-2.65-.24-.9-.82-1.65-1.63-2.12-.81-.47-1.75-.59-2.65-.35-.9.24-1.65.82-2.12,1.63-.47.81-.59,1.75-.35,2.65.24.9.82,1.65,1.63,2.12ZM207.56,664.29c.27-.46.7-.79,1.21-.93.17-.05.35-.07.52-.07.35,0,.69.09.99.27.46.27.79.7.93,1.21s.07,1.05-.2,1.51-.7.79-1.21.93c-.51.14-1.05.07-1.51-.2-.46-.27-.79-.7-.93-1.21s-.07-1.05.2-1.51ZM206.58,669.97c.83.48,1.76.73,2.69.73.47,0,.94-.06,1.41-.19,1.39-.37,2.56-1.27,3.28-2.52.72-1.25.91-2.71.54-4.1s-1.27-2.56-2.52-3.28c-1.25-.72-2.71-.91-4.1-.54-1.39.37-2.56,1.27-3.28,2.52s-.91,2.71-.54,4.1c.37,1.39,1.27,2.56,2.52,3.28ZM205.91,663.34c.52-.9,1.36-1.55,2.37-1.82,1.01-.27,2.06-.13,2.96.39.9.52,1.55,1.36,1.82,2.37.27,1.01.13,2.06-.39,2.96s-1.36,1.55-2.37,1.82c-1.01.27-2.06.13-2.96-.39-.9-.52-1.55-1.36-1.82-2.37-.27-1.01-.13-2.06.39-2.96ZM194.17,660.59c.54.31,1.14.47,1.74.47.3,0,.61-.04.91-.12.9-.24,1.65-.82,2.12-1.63s.59-1.75.35-2.65-.82-1.65-1.63-2.12c-1.67-.96-3.81-.39-4.77,1.28-.96,1.67-.39,3.81,1.28,4.77ZM194.19,656.57c.55-.95,1.77-1.28,2.72-.73.46.27.79.7.93,1.21s.07,1.05-.2,1.51c-.55.95-1.77,1.28-2.72.73-.46-.27-.79-.7-.93-1.21s-.07-1.05.2-1.51ZM193.21,662.25c.83.48,1.76.73,2.69.73.47,0,.94-.06,1.41-.19,1.39-.37,2.56-1.27,3.28-2.52,1.49-2.58.6-5.89-1.98-7.38-2.58-1.49-5.89-.6-7.38,1.98-.72,1.25-.91,2.71-.54,4.1s1.27,2.56,2.52,3.28ZM192.54,655.62c.72-1.25,2.04-1.95,3.39-1.95.66,0,1.33.17,1.94.52,1.86,1.08,2.5,3.47,1.43,5.33-.52.9-1.36,1.55-2.37,1.82-1.01.27-2.06.13-2.96-.39-.9-.52-1.55-1.36-1.82-2.37-.27-1.01-.13-2.06.39-2.96ZM236.68,549.46c0-5.78-4.7-10.48-10.48-10.48s-10.48,4.7-10.48,10.48,4.7,10.48,10.48,10.48,10.48-4.7,10.48-10.48ZM226.95,558.41v-4.04c.81-.12,1.56-.44,2.19-.91l2.85,2.85c-1.39,1.17-3.13,1.93-5.04,2.09ZM233.05,555.26l-2.85-2.85c.47-.63.78-1.38.91-2.19h4.04c-.16,1.91-.92,3.66-2.09,5.04ZM235.14,548.71h-4.04c-.12-.81-.44-1.56-.91-2.19l2.85-2.85c1.17,1.39,1.93,3.13,2.09,5.04ZM226.95,540.52c1.91.16,3.66.92,5.04,2.09l-2.85,2.85c-.63-.47-1.38-.78-2.19-.91v-4.04ZM229.68,549.46c0,1.92-1.56,3.48-3.48,3.48s-3.48-1.56-3.48-3.48,1.56-3.48,3.48-3.48,3.48,1.56,3.48,3.48ZM225.45,540.52v4.04c-.81.12-1.56.44-2.19.91l-2.85-2.85c1.39-1.17,3.13-1.93,5.04-2.09ZM219.34,543.67l2.85,2.85c-.47.63-.78,1.38-.91,2.19h-4.04c.16-1.91.92-3.66,2.09-5.04ZM217.25,550.21h4.04c.12.81.44,1.56.91,2.19l-2.85,2.85c-1.17-1.39-1.93-3.13-2.09-5.04ZM225.45,558.41c-1.91-.16-3.66-.92-5.04-2.09l2.85-2.85c.63.47,1.38.78,2.19.91v4.04ZM235.74,606.67c-.73,0-1.39.28-1.91.72l-95.87-82.29v-8.92h-1.5v9.61l96.52,82.85c-.11.3-.18.63-.18.97,0,1.62,1.32,2.94,2.94,2.94s2.94-1.32,2.94-2.94-1.32-2.94-2.94-2.94ZM235.74,611.05c-.79,0-1.44-.64-1.44-1.44s.64-1.44,1.44-1.44,1.44.64,1.44,1.44-.64,1.44-1.44,1.44ZM235.74,616.95c-.69,0-1.31.25-1.82.65l-105.51-91.6v-9.81h-1.5v10.5l106.11,92.12c-.14.34-.22.7-.22,1.09,0,1.62,1.32,2.94,2.94,2.94s2.94-1.32,2.94-2.94-1.32-2.94-2.94-2.94ZM235.74,621.33c-.79,0-1.44-.64-1.44-1.44s.64-1.44,1.44-1.44,1.44.64,1.44,1.44-.64,1.44-1.44,1.44ZM235.74,627.23c-.65,0-1.24.22-1.72.57l-115.16-100.92v-10.7h-1.5v11.38l115.71,101.4c-.17.37-.26.77-.26,1.2,0,1.62,1.32,2.94,2.94,2.94s2.94-1.32,2.94-2.94-1.32-2.94-2.94-2.94ZM235.74,631.61c-.79,0-1.44-.64-1.44-1.44s.64-1.44,1.44-1.44,1.44.64,1.44,1.44-.64,1.44-1.44,1.44ZM235.74,643.39c1.62,0,2.94-1.32,2.94-2.94s-1.32-2.94-2.94-2.94c-.6,0-1.17.18-1.63.5l-124.8-110.23v-11.59h-1.5v12.27l125.32,110.69c-.2.4-.32.84-.32,1.31,0,1.62,1.32,2.94,2.94,2.94ZM235.74,639.01c.79,0,1.44.64,1.44,1.44s-.64,1.44-1.44,1.44-1.44-.64-1.44-1.44.64-1.44,1.44-1.44ZM264.87,680.89c-2.97,0-5.39,2.42-5.39,5.39s2.42,5.39,5.39,5.39h23.15c2.97,0,5.39-2.42,5.39-5.39s-2.42-5.39-5.39-5.39h-23.15ZM291.91,686.27c0,2.14-1.74,3.89-3.89,3.89h-23.15c-2.14,0-3.89-1.74-3.89-3.89s1.74-3.89,3.89-3.89h23.15c2.14,0,3.89,1.74,3.89,3.89ZM350.88,680.89c-2.97,0-5.38,2.42-5.38,5.39s2.42,5.39,5.38,5.39h23.15c2.97,0,5.38-2.42,5.38-5.39s-2.42-5.39-5.38-5.39h-23.15ZM377.92,686.27c0,2.14-1.74,3.89-3.88,3.89h-23.15c-2.14,0-3.88-1.74-3.88-3.89s1.74-3.89,3.88-3.89h23.15c2.14,0,3.88,1.74,3.88,3.89ZM341.76,682.39h-45.72v-1.5h45.72v1.5ZM341.76,686.93h-45.72v-1.5h45.72v1.5ZM296.03,689.97h45.72v1.5h-45.72v-1.5Z"/>
    <text class="uuid-287984c9-1293-4ad6-b451-57461ba92508" transform="translate(92.28 204.35)"><tspan class="uuid-0d9ea72c-f3ff-428e-b8e0-1353bd8cce74"><tspan class="uuid-ab3ea3d3-a9e1-4cdd-a7e2-18436fb42219" x="0" y="0">P</tspan><tspan class="uuid-033a6b23-fa8f-4d9b-89c8-28bb74df7702" x="22.58" y="0">r</tspan><tspan class="uuid-ab3ea3d3-a9e1-4cdd-a7e2-18436fb42219" x="34.28" y="0">o</tspan><tspan class="uuid-37c3f6ab-88f8-4aa2-a4fb-ac5b902f3cc3" x="55.38" y="0">f</tspan><tspan class="uuid-ab3ea3d3-a9e1-4cdd-a7e2-18436fb42219" x="66.37" y="0">essional</tspan></tspan><tspan class="uuid-d07d8535-143f-4606-82c1-f77ea95b8ff0"><tspan class="uuid-991b8346-3e9b-4d11-a197-15a3d0f927bb" x="0" y="45.85">T</tspan><tspan class="uuid-a832ccfe-2586-4353-947a-931e0c23be0e" x="21.9" y="45.85">r</tspan><tspan class="uuid-ab3ea3d3-a9e1-4cdd-a7e2-18436fb42219" x="35.3" y="45.85">ading Se</tspan><tspan class="uuid-0fa592dc-52b9-4233-b0e3-bbc187b1b9c1" x="185.15" y="45.85">r</tspan><tspan class="uuid-11d42a69-91f1-4725-b38d-69d12523f3dd" x="199.8" y="45.85">vice</tspan></tspan></text>
    <text class="uuid-e266b538-e0c9-4af2-b172-92eeeff2c8c5" transform="translate(92.28 150.78)"><tspan x="0" y="0">Commitment &amp; </tspan><tspan class="uuid-5175c4d7-d545-4553-abf6-b9ea368eb21e" x="121.69" y="0">T</tspan><tspan x="131.51" y="0">rust</tspan></text>
    <text class="uuid-e32e71d5-bfee-4400-b4c8-759341c764d4" transform="translate(92.28 91.24)"><tspan class="uuid-dac1939a-b346-486e-85b6-342d3aa5380d" x="0" y="0">MEMP</tspan><tspan class="uuid-cac274ae-c098-44d8-9f4a-4adca55bed76" x="41.25" y="0">r</tspan><tspan class="uuid-dac1939a-b346-486e-85b6-342d3aa5380d" x="45.85" y="0">o Corp</tspan><tspan class="uuid-fc6bb62b-9d6d-46dd-834c-44bf7bef0d41" x="87.96" y="0">.</tspan></text>
    <rect class="uuid-3ebf45a9-1929-482a-91a6-2378542934b5" x="397.53" y="416.58" width="16.3" height="7.67"/>
    <g>
      <circle class="uuid-3ebf45a9-1929-482a-91a6-2378542934b5" cx="380.49" cy="466.61" r=".78"/>
      <circle class="uuid-3ebf45a9-1929-482a-91a6-2378542934b5" cx="394.81" cy="466.61" r=".78"/>
      <circle class="uuid-3ebf45a9-1929-482a-91a6-2378542934b5" cx="380.49" cy="487.23" r=".78"/>
      <circle class="uuid-3ebf45a9-1929-482a-91a6-2378542934b5" cx="394.81" cy="487.23" r=".78"/>
    </g>
    <g>
      <circle class="uuid-3ebf45a9-1929-482a-91a6-2378542934b5" cx="351.83" cy="445.27" r=".78"/>
      <circle class="uuid-3ebf45a9-1929-482a-91a6-2378542934b5" cx="366.14" cy="445.27" r=".78"/>
      <circle class="uuid-3ebf45a9-1929-482a-91a6-2378542934b5" cx="351.83" cy="465.89" r=".78"/>
      <circle class="uuid-3ebf45a9-1929-482a-91a6-2378542934b5" cx="366.14" cy="465.89" r=".78"/>
    </g>
    <polygon class="uuid-9ee6f0d2-7432-4bf4-a868-9324e2306437" points="23.12 874.07 .24 841.89 .24 0 23.12 32.18 23.12 874.07"/>
    <polygon class="uuid-8594e8d6-7067-4c9d-9204-400916ea7444" points="595.28 .57 0 .57 23.12 32.18 618.4 32.18 595.28 .57"/>
    <g class="uuid-c1b369e7-432c-4865-bf4a-af3748c917f1">
      <g class="uuid-ba9ecf31-f359-4d02-945f-bfc3fe2dccc4">
        <g>
          <line class="uuid-72d7c590-5bcb-4675-936b-1eeaea015dd0" x1="2.41" y1="23.65" x2="639.11" y2="23.65"/>
          <line class="uuid-72d7c590-5bcb-4675-936b-1eeaea015dd0" x1="2.41" y1="15.81" x2="639.11" y2="15.81"/>
          <line class="uuid-72d7c590-5bcb-4675-936b-1eeaea015dd0" x1="2.41" y1="7.96" x2="639.11" y2="7.96"/>
        </g>
      </g>
    </g>
  </g>
</svg>