<svg id="Layer_1" height="512" viewBox="0 0 512 512" width="512" xmlns="http://www.w3.org/2000/svg" data-name="Layer 1"><rect fill="#ffd53d" height="480" rx="74.999" width="480" x="16" y="16"/><g fill-rule="evenodd"><path d="m177.784 377.571 35.309-35.299h30.381v-10.478l-98.624-98.624v-89.865h42.917v-18.75h135.75v15.75l48.306-.128 124.176 124.176v156.648c0 41.25-33.75 74.999-74.999 74.999h-124.788l-118.429-118.43z" fill="#dbad09"/><path d="m354.475 202.73c0 6.431-2.811 11.732-8.131 15.331l-11.869 8.02v-69.39h17.501c1.361 0 2.499 1.139 2.499 2.5zm-45.003 24.86c0 29.501-23.997 53.501-53.499 53.501s-53.499-24-53.499-53.501v-89.5h106.998zm-152.001-24.86v-43.539c0-1.36 1.154-2.5 2.504-2.5h17.501v69.39l-11.863-8.02c-5.32-3.6-8.142-8.9-8.142-15.331zm194.505-71.04h-17.501v-18.599h-156.998v18.599h-17.501c-15.162 0-27.501 12.331-27.501 27.501v43.539c0 14.68 6.972 27.811 19.132 36.031l33.568 22.72c10.942 22.759 32.552 39.46 58.301 43.599v37.191h-30.381l-35.309 35.299 17.681 17.68 27.978-27.981h65.061l27.983 27.981 17.676-17.68-35.299-35.299h-30.392v-37.191c25.754-4.14 47.363-20.84 58.301-43.599l33.584-22.72c12.149-8.22 19.116-21.351 19.116-36.031v-43.539c0-15.17-12.34-27.501-27.496-27.501z" fill="#fff"/></g></svg>