<?xml version="1.0" encoding="UTF-8"?>
<svg id="uuid-f5585a6e-4bcd-482a-8705-593c4c07e68f" data-name="레이어 2" xmlns="http://www.w3.org/2000/svg" xmlns:xlink="http://www.w3.org/1999/xlink" viewBox="0 0 124.86 31.33">
  <defs>
    <style>
      .uuid-051da12f-0688-40e9-aeee-bae0b8e59dce {
        fill: url(#uuid-80eea706-3062-42d6-ad1d-d445741dbf85);
      }

      .uuid-051da12f-0688-40e9-aeee-bae0b8e59dce, .uuid-c51f6c45-3ced-40ac-ab2e-1c89cd7affb4, .uuid-bca8fa86-9949-49e7-a715-a91ff1c8c114, .uuid-3147ee42-6000-4ed3-b271-b6c0fda5fd9c, .uuid-70030b6d-0f7c-45cf-8389-5da816678bf9, .uuid-bf8563b7-b95a-4bbe-bee1-3a5687be1895, .uuid-5c55ee42-4379-4c2d-ae3f-b2bd6e45ef71 {
        stroke-width: 0px;
      }

      .uuid-c51f6c45-3ced-40ac-ab2e-1c89cd7affb4 {
        fill: url(#uuid-a62ed45d-618e-4311-b9b6-0b4f3751fd16);
      }

      .uuid-bca8fa86-9949-49e7-a715-a91ff1c8c114 {
        fill: url(#uuid-cf02f18e-b4bb-4426-83bb-6697fbdc64ca);
      }

      .uuid-3147ee42-6000-4ed3-b271-b6c0fda5fd9c {
        fill: url(#uuid-f6b11665-ee44-489a-a157-614a8b12fa24);
      }

      .uuid-70030b6d-0f7c-45cf-8389-5da816678bf9 {
        fill: url(#uuid-687c2c90-521b-43df-8e3e-b96a6e3b4476);
      }

      .uuid-bf8563b7-b95a-4bbe-bee1-3a5687be1895 {
        fill: url(#uuid-f4ee0ad9-1462-452f-8a8b-0190817c88fa);
      }

      .uuid-5c55ee42-4379-4c2d-ae3f-b2bd6e45ef71 {
        fill: url(#uuid-5383483e-e96d-48af-bb56-23e7ac0d7ba8);
      }
    </style>
    <linearGradient id="uuid-cf02f18e-b4bb-4426-83bb-6697fbdc64ca" data-name="무제 그라디언트 11" x1="4.76" y1="2.22" x2="4.76" y2="34.76" gradientUnits="userSpaceOnUse">
      <stop offset="0" stop-color="#e7e7e8"/>
      <stop offset="1" stop-color="#595757"/>
    </linearGradient>
    <linearGradient id="uuid-f4ee0ad9-1462-452f-8a8b-0190817c88fa" data-name="무제 그라디언트 11" x1="23.98" y1="2.22" x2="23.98" y2="34.76" xlink:href="#uuid-cf02f18e-b4bb-4426-83bb-6697fbdc64ca"/>
    <linearGradient id="uuid-80eea706-3062-42d6-ad1d-d445741dbf85" data-name="무제 그라디언트 11" x1="43.21" y1="2.22" x2="43.21" y2="34.76" xlink:href="#uuid-cf02f18e-b4bb-4426-83bb-6697fbdc64ca"/>
    <linearGradient id="uuid-5383483e-e96d-48af-bb56-23e7ac0d7ba8" data-name="무제 그라디언트 11" x1="62.43" y1="2.22" x2="62.43" y2="34.76" xlink:href="#uuid-cf02f18e-b4bb-4426-83bb-6697fbdc64ca"/>
    <linearGradient id="uuid-687c2c90-521b-43df-8e3e-b96a6e3b4476" data-name="무제 그라디언트 11" x1="81.65" y1="2.22" x2="81.65" y2="34.76" xlink:href="#uuid-cf02f18e-b4bb-4426-83bb-6697fbdc64ca"/>
    <linearGradient id="uuid-f6b11665-ee44-489a-a157-614a8b12fa24" data-name="무제 그라디언트 11" x1="100.87" x2="100.87" y2="34.76" xlink:href="#uuid-cf02f18e-b4bb-4426-83bb-6697fbdc64ca"/>
    <linearGradient id="uuid-a62ed45d-618e-4311-b9b6-0b4f3751fd16" data-name="무제 그라디언트 11" x1="120.1" x2="120.1" y2="34.76" xlink:href="#uuid-cf02f18e-b4bb-4426-83bb-6697fbdc64ca"/>
  </defs>
  <g id="uuid-36003aa5-1063-472e-bf44-c6e6c02bcee6" data-name="레이어 1">
    <g>
      <polygon class="uuid-bca8fa86-9949-49e7-a715-a91ff1c8c114" points="6.67 23.09 6.67 0 2.85 0 2.85 23.09 0 23.09 4.76 31.33 9.52 23.09 6.67 23.09"/>
      <polygon class="uuid-bf8563b7-b95a-4bbe-bee1-3a5687be1895" points="25.89 23.09 25.89 0 22.07 0 22.07 23.09 19.22 23.09 23.98 31.33 28.74 23.09 25.89 23.09"/>
      <polygon class="uuid-051da12f-0688-40e9-aeee-bae0b8e59dce" points="45.12 23.09 45.12 0 41.3 0 41.3 23.09 38.44 23.09 43.21 31.33 47.97 23.09 45.12 23.09"/>
      <polygon class="uuid-5c55ee42-4379-4c2d-ae3f-b2bd6e45ef71" points="64.34 23.09 64.34 0 60.52 0 60.52 23.09 57.67 23.09 62.43 31.33 67.19 23.09 64.34 23.09"/>
      <polygon class="uuid-70030b6d-0f7c-45cf-8389-5da816678bf9" points="83.56 23.09 83.56 0 79.74 0 79.74 23.09 76.89 23.09 81.65 31.33 86.41 23.09 83.56 23.09"/>
      <polygon class="uuid-3147ee42-6000-4ed3-b271-b6c0fda5fd9c" points="102.78 23.09 102.78 0 98.96 0 98.96 23.09 96.11 23.09 100.87 31.33 105.63 23.09 102.78 23.09"/>
      <polygon class="uuid-c51f6c45-3ced-40ac-ab2e-1c89cd7affb4" points="122 23.09 122 0 118.19 0 118.19 23.09 115.33 23.09 120.1 31.33 124.86 23.09 122 23.09"/>
    </g>
  </g>
</svg>