<?xml version="1.0" encoding="UTF-8"?>
<svg id="uuid-2bf8b479-e649-4be8-93ca-23cffd4ec45d" data-name="레이어 2" xmlns="http://www.w3.org/2000/svg" viewBox="0 0 52.99 57.07">
  <defs>
    <style>
      .uuid-572ba8f6-0d03-4b06-9226-e1f8dc0f6182 {
        fill: #fff;
        font-family: HelveticaNeue-Medium, 'Helvetica Neue';
        font-size: 9.24px;
        font-weight: 500;
      }

      .uuid-1a1f2b19-7ba0-4ec9-91ea-4002fc1964d4 {
        fill: #1976d2;
        stroke-width: 0px;
      }

      .uuid-ccf93e36-d8ab-40e2-b62b-81ad6810a207 {
        fill: none;
        stroke: #000;
        stroke-linecap: round;
        stroke-miterlimit: 10;
        stroke-width: 2.26px;
      }
    </style>
  </defs>
  <g id="uuid-66e5174f-6ad8-454d-9d34-f86864a18714" data-name="레이어 1">
    <g>
      <polygon class="uuid-ccf93e36-d8ab-40e2-b62b-81ad6810a207" points="33.43 27.83 26.5 27.83 26.5 17.94 19.56 33.32 26.5 33.32 26.5 43.21 33.43 27.83"/>
      <path class="uuid-ccf93e36-d8ab-40e2-b62b-81ad6810a207" d="M48.47,17.89c2.16,3.73,3.39,8.06,3.39,12.69,0,14.01-11.36,25.36-25.37,25.36-7,0-13.35-2.84-17.94-7.43"/>
      <path class="uuid-ccf93e36-d8ab-40e2-b62b-81ad6810a207" d="M4.53,43.26c-2.16-3.73-3.39-8.07-3.39-12.69C1.13,16.57,12.49,5.21,26.49,5.21c7.01,0,13.35,2.84,17.94,7.43"/>
      <g>
        <g>
          <path class="uuid-1a1f2b19-7ba0-4ec9-91ea-4002fc1964d4" d="M36.15,14.18c-3.6,0-6.52-2.93-6.52-6.53s2.93-6.52,6.52-6.52,6.52,2.93,6.52,6.52-2.93,6.53-6.52,6.53Z"/>
          <path class="uuid-1a1f2b19-7ba0-4ec9-91ea-4002fc1964d4" d="M36.15,2.26c2.98,0,5.39,2.42,5.39,5.39s-2.42,5.39-5.39,5.39-5.39-2.42-5.39-5.39,2.42-5.39,5.39-5.39M36.15,0c-4.22,0-7.66,3.43-7.66,7.66s3.43,7.66,7.66,7.66,7.66-3.43,7.66-7.66-3.43-7.66-7.66-7.66h0Z"/>
        </g>
        <text class="uuid-572ba8f6-0d03-4b06-9226-e1f8dc0f6182" transform="translate(31.67 10.96)"><tspan x="0" y="0">Ni</tspan></text>
      </g>
    </g>
  </g>
</svg>