<?xml version="1.0" encoding="UTF-8"?>
<svg id="uuid-64c79117-9c91-4c75-9e90-f15c2610335b" data-name="레이어 2" xmlns="http://www.w3.org/2000/svg" viewBox="0 0 38.77 38.78">
  <defs>
    <style>
      .uuid-f313592e-d011-4f14-beaa-b4e32bc9d0b6 {
        fill: #231815;
      }

      .uuid-f313592e-d011-4f14-beaa-b4e32bc9d0b6, .uuid-af10297b-18a3-4531-9d27-ec56557eabee {
        stroke-width: 0px;
      }

      .uuid-857833e2-5cb5-42da-a9e7-de32b799ebae {
        fill: #fff;
        stroke: #0269b7;
        stroke-linecap: round;
        stroke-miterlimit: 10;
        stroke-width: 2px;
      }

      .uuid-af10297b-18a3-4531-9d27-ec56557eabee {
        fill: #bfa83c;
      }
    </style>
  </defs>
  <g id="uuid-01be87ae-0b92-4c95-8d5c-f4216fdc8f57" data-name="레이어 1">
    <path class="uuid-857833e2-5cb5-42da-a9e7-de32b799ebae" d="M28.58,35.31c-7.19,4.15-16.02,2.89-21.77-2.53-1.29-1.18-2.42-2.6-3.34-4.2-.03-.05-.06-.11-.08-.16-.06-.08-.11-.16-.14-.24-.45-.8-.82-1.59-1.11-2.42-.03-.05-.03-.11-.06-.16-.2-.56-.38-1.13-.52-1.7C-.41,16.1,2.91,7.68,10.2,3.46,17.21-.6,25.84.52,31.6,5.65c.77.68,1.48,1.43,2.14,2.26.06.02.08.08.11.1.53.7,1.01,1.41,1.46,2.19,0,0,0,.02.03.02.05.08.11.19.13.27.71,1.27,1.25,2.58,1.61,3.92,2.25,7.89-1.06,16.6-8.5,20.9Z"/>
    <path class="uuid-f313592e-d011-4f14-beaa-b4e32bc9d0b6" d="M37.08,14.4L6.81,32.77c-1.29-1.18-2.42-2.6-3.34-4.2-.03-.05-.06-.11-.08-.16-.06-.08-.11-.16-.14-.24-.45-.8-.82-1.59-1.11-2.42-.03-.05-.03-.11-.06-.16-.2-.56-.38-1.13-.52-1.7L31.6,5.64c.77.68,1.48,1.43,2.14,2.26.06.02.08.08.11.1.53.7,1.01,1.41,1.46,2.19,0,0,0,.02.03.02.05.08.11.19.13.27.71,1.27,1.25,2.58,1.61,3.92Z"/>
    <polygon class="uuid-af10297b-18a3-4531-9d27-ec56557eabee" points="5.56 20.64 3.82 20.64 2.95 22.15 3.82 23.65 5.56 23.65 6.43 22.15 5.56 20.64"/>
    <polygon class="uuid-af10297b-18a3-4531-9d27-ec56557eabee" points="15.43 22.15 13.69 22.15 12.82 23.65 13.69 25.16 15.43 25.16 16.3 23.65 15.43 22.15"/>
    <polygon class="uuid-af10297b-18a3-4531-9d27-ec56557eabee" points="20.79 12.14 19.06 11.97 18.05 13.39 18.77 14.98 20.5 15.14 21.51 13.73 20.79 12.14"/>
    <polygon class="uuid-af10297b-18a3-4531-9d27-ec56557eabee" points="25.78 18.77 24.04 18.77 23.17 20.28 24.04 21.79 25.78 21.79 26.65 20.28 25.78 18.77"/>
    <polygon class="uuid-af10297b-18a3-4531-9d27-ec56557eabee" points="27.65 6.72 26.22 6.72 25.5 7.96 26.22 9.2 27.65 9.2 28.36 7.96 27.65 6.72"/>
    <polygon class="uuid-af10297b-18a3-4531-9d27-ec56557eabee" points="33.95 9.94 32.21 9.94 31.33 11.45 32.21 12.96 33.95 12.96 34.82 11.45 33.95 9.94"/>
  </g>
</svg>