<?xml version="1.0" encoding="UTF-8"?>
<svg id="uuid-a1700f09-d42e-4a99-b8d2-96493a9af7e3" data-name="레이어 2" xmlns="http://www.w3.org/2000/svg" viewBox="0 0 109.37 109.03">
  <defs>
    <style>
      .uuid-c64cd42d-4e33-458b-8d4f-7b24adcfc885 {
        fill: #ffb300;
      }

      .uuid-c64cd42d-4e33-458b-8d4f-7b24adcfc885, .uuid-861f373b-1d90-413c-b6b9-b1f032c73140, .uuid-d1107726-5831-4241-8c95-80a119f42596 {
        stroke: #3a3a3a;
        stroke-miterlimit: 10;
        stroke-width: 3px;
      }

      .uuid-861f373b-1d90-413c-b6b9-b1f032c73140 {
        fill: #d8d8d8;
      }

      .uuid-d1107726-5831-4241-8c95-80a119f42596 {
        fill: none;
      }
     .asd {
        transform: scale(.8);
        transform-origin: center;
      }
    </style>
  </defs>
  <g id="uuid-f249ad7b-ace1-47ec-8230-7a08dd4641ec" data-name="레이어 1">
    <g class="asd">
      <path class="uuid-861f373b-1d90-413c-b6b9-b1f032c73140" d="M88.94,69.56c.11-.24.21-.48.31-.73.1-.24.2-.49.3-.73.02-.05.04-.1.06-.15.28-.72.54-1.45.77-2.19.4-1.26,1.57-2.11,2.89-2.11h14.61v-18.28h-14.61c-1.32,0-2.49-.85-2.89-2.11-.64-2.03-1.46-3.99-2.43-5.86-.61-1.17-.39-2.6.55-3.54l10.26-10.26-12.92-12.92-10.24,10.24c-.94.94-2.37,1.16-3.55.54-1.89-.99-3.88-1.82-5.94-2.47-1.26-.4-2.11-1.57-2.11-2.89V1.5h-18.28v14.61c0,1.32-.85,2.49-2.11,2.89-2.09.66-4.1,1.5-6.01,2.5-1.17.62-2.61.4-3.55-.54l-10.51-10.51-12.92,12.92,10.57,10.57c.93.93,1.16,2.35.55,3.52-.24.47-.47.94-.69,1.41-.02.03-.03.07-.05.1-.13.28-.26.57-.38.86-.07.16-.14.32-.2.48-.07.16-.13.32-.2.49-.12.29-.23.58-.34.87-.01.04-.03.07-.04.11-.18.49-.35.99-.51,1.49-.4,1.25-1.57,2.1-2.88,2.1H1.5v18.28h14.87c1.33,0,2.5.86,2.89,2.13.64,2.06,1.47,4.07,2.48,6.02.61,1.17.38,2.6-.55,3.53l-10.33,10.33,12.92,12.92,10.33-10.33c.93-.93,2.36-1.16,3.54-.55,1.92,1,3.92,1.82,5.95,2.45,1.26.4,2.12,1.57,2.12,2.89v14.48h18.28v-14.51c0-1.32.86-2.49,2.12-2.89,2-.64,3.96-1.44,5.86-2.42,1.17-.61,2.6-.39,3.54.55l10.33,10.33,12.92-12.92-10.33-10.33c-.93-.93-1.16-2.36-.55-3.53.36-.69.69-1.39,1-2.09.02-.05.04-.1.07-.15Z"/>
      <circle class="uuid-c64cd42d-4e33-458b-8d4f-7b24adcfc885" cx="54.69" cy="54.52" r="26.23"/>
      <polygon class="uuid-d1107726-5831-4241-8c95-80a119f42596" points="51.64 62.72 37.34 62.72 38.69 56.51 50.29 56.51 51.64 62.72"/>
      <polygon class="uuid-d1107726-5831-4241-8c95-80a119f42596" points="72.03 62.72 57.73 62.72 59.08 56.51 70.68 56.51 72.03 62.72"/>
      <polygon class="uuid-d1107726-5831-4241-8c95-80a119f42596" points="61.83 51.99 47.54 51.99 48.89 45.77 60.48 45.77 61.83 51.99"/>
    </g>
  </g>
</svg>