<?xml version="1.0" encoding="UTF-8"?>
<svg id="uuid-0b4aa024-b804-4756-8da9-80e1aa7f4769" data-name="레이어 2" xmlns="http://www.w3.org/2000/svg" viewBox="0 0 65.8 55.74">
  <defs>
    <style>
      .uuid-5839aea0-9c12-4648-9617-1d9f3e1f9444 {
        fill: #1976d2;
        stroke-width: 0px;
      }

      .uuid-d7ddff80-4f84-4890-a3d8-ba25f6afd467 {
        fill: none;
        stroke: #000;
        stroke-linecap: round;
        stroke-miterlimit: 10;
        stroke-width: 2.26px;
      }
    </style>
  </defs>
  <g id="uuid-5f92fc6a-0ce1-45a0-b85d-47960313cdea" data-name="레이어 1">
    <g>
      <g>
        <polygon class="uuid-d7ddff80-4f84-4890-a3d8-ba25f6afd467" points="31.23 54.61 1.52 54.61 6.51 38.03 26.24 38.03 31.23 54.61"/>
        <polygon class="uuid-d7ddff80-4f84-4890-a3d8-ba25f6afd467" points="64.28 54.61 34.58 54.61 39.56 38.03 59.29 38.03 64.28 54.61"/>
      </g>
      <polygon class="uuid-d7ddff80-4f84-4890-a3d8-ba25f6afd467" points="47.75 34.62 18.05 34.62 23.04 18.04 42.76 18.04 47.75 34.62"/>
      <g>
        <g>
          <path class="uuid-5839aea0-9c12-4648-9617-1d9f3e1f9444" d="M50.62,16.73c-.43,0-.86-.11-1.23-.33-.57-.33-.98-.86-1.15-1.5-.17-.64-.08-1.3.25-1.87l2.95-5.12c.44-.76,1.26-1.24,2.14-1.24.43,0,.86.11,1.23.33.76.44,1.24,1.26,1.24,2.14,0,.43-.11.86-.33,1.23l-2.95,5.12c-.44.76-1.26,1.23-2.14,1.23h0Z"/>
          <path class="uuid-5839aea0-9c12-4648-9617-1d9f3e1f9444" d="M53.58,7.8c.23,0,.46.06.67.18.43.25.67.7.67,1.16,0,.23-.06.46-.18.67l-2.95,5.12c-.25.43-.7.67-1.16.67-.23,0-.46-.06-.67-.18-.64-.37-.86-1.19-.49-1.83l2.95-5.12c.25-.43.7-.67,1.16-.67M53.58,5.54c-1.28,0-2.48.69-3.12,1.8l-2.95,5.12c-.48.83-.61,1.8-.36,2.73.25.93.85,1.7,1.68,2.18.55.32,1.17.48,1.8.48,1.28,0,2.48-.69,3.12-1.8l2.95-5.12c.32-.55.48-1.17.48-1.8,0-1.28-.69-2.48-1.8-3.12-.55-.32-1.17-.48-1.8-.48h0Z"/>
        </g>
        <g>
          <path class="uuid-5839aea0-9c12-4648-9617-1d9f3e1f9444" d="M32.9,11.98c-1.36,0-2.47-1.11-2.47-2.47V3.6c0-1.36,1.11-2.47,2.47-2.47s2.47,1.11,2.47,2.47v5.91c0,1.36-1.11,2.47-2.47,2.47Z"/>
          <path class="uuid-5839aea0-9c12-4648-9617-1d9f3e1f9444" d="M32.9,2.26c.74,0,1.34.6,1.34,1.34v5.91c0,.74-.6,1.34-1.34,1.34s-1.34-.6-1.34-1.34V3.6c0-.74.6-1.34,1.34-1.34M32.9,0c-1.98,0-3.6,1.61-3.6,3.6v5.91c0,1.98,1.61,3.6,3.6,3.6s3.6-1.61,3.6-3.6V3.6c0-1.98-1.61-3.6-3.6-3.6h0Z"/>
        </g>
        <g>
          <path class="uuid-5839aea0-9c12-4648-9617-1d9f3e1f9444" d="M15.18,16.73c-.88,0-1.7-.47-2.14-1.23l-2.95-5.12c-.33-.57-.42-1.24-.25-1.87.17-.64.58-1.17,1.15-1.5.38-.22.8-.33,1.23-.33.88,0,1.7.47,2.14,1.24l2.95,5.12c.22.37.33.8.33,1.23,0,.88-.47,1.7-1.24,2.14-.38.22-.8.33-1.23.33h0Z"/>
          <path class="uuid-5839aea0-9c12-4648-9617-1d9f3e1f9444" d="M12.22,7.8c.46,0,.91.24,1.16.67l2.95,5.12c.12.21.18.44.18.67,0,.46-.24.91-.67,1.16-.21.12-.44.18-.67.18-.46,0-.91-.24-1.16-.67l-2.95-5.12c-.37-.64-.15-1.46.49-1.83.21-.12.44-.18.67-.18M12.22,5.54c-.63,0-1.25.17-1.8.48-.83.48-1.43,1.26-1.68,2.19-.25.93-.12,1.9.36,2.73l2.95,5.12c.64,1.11,1.84,1.8,3.12,1.8.63,0,1.25-.17,1.8-.48,1.11-.64,1.8-1.84,1.8-3.12,0-.63-.17-1.25-.48-1.8l-2.95-5.12c-.64-1.11-1.84-1.8-3.12-1.8h0Z"/>
        </g>
      </g>
    </g>
  </g>
</svg>