<?xml version="1.0" encoding="UTF-8"?>
<svg id="uuid-194a1a25-5d20-4a09-aaf7-3cf1a5b500f0" data-name="레이어 2" xmlns="http://www.w3.org/2000/svg" viewBox="0 0 59.26 52.98">
  <defs>
    <style>
      .uuid-96e4c65b-55f6-4d40-b84b-8e4aa13c40fd {
        stroke-width: 4px;
      }

      .uuid-96e4c65b-55f6-4d40-b84b-8e4aa13c40fd, .uuid-13f647fd-87f2-4fa5-b7de-757425c013b0 {
        fill: none;
        stroke: #000;
        stroke-linecap: round;
        stroke-miterlimit: 10;
      }

      .uuid-d84d483c-9fff-4d1c-adaf-e41cfca99297 {
        fill: #1976d2;
        stroke-width: 0px;
      }

      .uuid-13f647fd-87f2-4fa5-b7de-757425c013b0 {
        stroke-width: 2.26px;
      }
    </style>
  </defs>
  <g id="uuid-795673f0-d2d4-444a-b50d-adce2ed0db0b" data-name="레이어 1">
    <g>
      <path class="uuid-13f647fd-87f2-4fa5-b7de-757425c013b0" d="M47.47,51.85H11.79C5.29,46.63,1.13,38.62,1.13,29.63,1.13,13.89,13.89,1.13,29.63,1.13s28.5,12.76,28.5,28.5c0,8.99-4.16,17-10.66,22.22Z"/>
      <path class="uuid-96e4c65b-55f6-4d40-b84b-8e4aa13c40fd" d="M14.04,45.85c-4.41-4.23-6.91-10.04-6.91-16.22,0-12.41,10.09-22.5,22.5-22.5s22.5,10.09,22.5,22.5"/>
      <g>
        <path class="uuid-d84d483c-9fff-4d1c-adaf-e41cfca99297" d="M28.4,41.23c-3.29,0-5.97-2.68-5.97-5.96s2.68-5.96,5.97-5.96,5.96,2.68,5.96,5.96-2.68,5.96-5.96,5.96Z"/>
        <path class="uuid-d84d483c-9fff-4d1c-adaf-e41cfca99297" d="M28.4,30.43c2.67,0,4.83,2.16,4.83,4.83s-2.16,4.83-4.83,4.83-4.83-2.16-4.83-4.83,2.16-4.83,4.83-4.83M28.4,28.17c-3.91,0-7.1,3.18-7.1,7.1s3.18,7.1,7.1,7.1,7.1-3.18,7.1-7.1-3.18-7.1-7.1-7.1h0Z"/>
      </g>
      <g>
        <line class="uuid-d84d483c-9fff-4d1c-adaf-e41cfca99297" x1="28.4" y1="35.27" x2="43.02" y2="19.85"/>
        <path class="uuid-d84d483c-9fff-4d1c-adaf-e41cfca99297" d="M25.71,32.72l17.31-12.87-11.93,17.97c-3.54,4.67-9.86-1.31-5.38-5.1h0Z"/>
      </g>
    </g>
  </g>
</svg>