<?xml version="1.0" encoding="UTF-8"?>
<svg id="uuid-42ad11a8-0f36-4fe4-977e-2140d0033814" xmlns="http://www.w3.org/2000/svg" version="1.1" viewBox="0 0 153 90.2">
  <defs>
    <style>
      .cls-1 {
        fill: #45a8c5;
      }

      .cls-1, .cls-2, .cls-3, .cls-4, .cls-5, .cls-6, .cls-7 {
        stroke: #3a3a3a;
        stroke-linejoin: round;
        stroke-width: 3px;
      }

      .cls-2 {
        fill: #2388be;
      }

      .cls-3 {
        fill: #bdbdbd;
      }

      .cls-4 {
        fill: #8ae7d3;
      }

      .cls-5 {
        fill: #fff;
      }

      .cls-6 {
        fill: #0068b7;
      }

      .cls-7 {
        fill: #68c7cc;
      }
    </style>
  </defs>
  <path class="cls-4" d="M28.1,45.6c-7.5,8.1-12.1,19-12.1,30.9H1.5c0-15.9,4.9-30.6,13.3-42.7l13.3,11.8h0Z"/>
  <path class="cls-1" d="M95.4,3.9l-14.2,31.7c-6-2.9-12.7-4.5-19.8-4.5s-5.8.3-8.6.8l-5.8-24.3c9-3.9,19-6,29.4-6s12.9.8,18.9,2.4h0Z"/>
  <path class="cls-2" d="M133.6,27.8l-34.2,23.6c-4.5-6.8-10.7-12.3-18.1-15.8l14.2-31.6c15.1,3.9,28.3,12.4,38.1,23.9h0Z"/>
  <path class="cls-7" d="M52.8,31.8c-9.7,1.9-18.3,6.8-24.7,13.7l-13.3-11.8c8-11.5,19.2-20.7,32.2-26.3l5.8,24.3h0Z"/>
  <path class="cls-6" d="M151.5,76.5h-44.6c0-9.3-2.8-17.9-7.6-25.1l34.2-23.6c11.2,13.1,17.9,30.1,17.9,48.7h.1Z"/>
  <circle class="cls-5" cx="59.5" cy="76.5" r="12.2"/>
  <path class="cls-3" d="M59.8,76.8l-.2-.4c-.8-2.1.3-4.4,2.4-5.2l63.3-18.8c2.1-.8,4.4.3,5.1,2.4v.4c.9,2.1-.2,4.4-2.3,5.2l-63.3,18.8c-2.1.8-4.4-.3-5.2-2.4h.2Z"/>
</svg>