<?xml version="1.0" encoding="UTF-8"?>
<svg id="uuid-ed946308-e38b-4ae5-95ea-c979bac9cb28" data-name="레이어 2" xmlns="http://www.w3.org/2000/svg" viewBox="0 0 55.57 55.57">
  <defs>
    <style>
      .uuid-d8989678-cd2f-4414-adf6-a3f92f7a5636 {
        fill: #1976d2;
        stroke-width: 0px;
      }

      .uuid-5600366f-8184-4c91-9446-e07b98bd58a4 {
        fill: none;
        stroke: #000;
        stroke-linecap: round;
        stroke-miterlimit: 10;
        stroke-width: 2.26px;
      }
    </style>
  </defs>
  <g id="uuid-ff3f8605-72c2-483d-976c-007cf3bd3475" data-name="레이어 1">
    <g>
      <rect class="uuid-5600366f-8184-4c91-9446-e07b98bd58a4" x="1.27" y="18.62" width="53.83" height="19.12" transform="translate(-11.67 28.18) rotate(-45)"/>
      <g>
        <line class="uuid-5600366f-8184-4c91-9446-e07b98bd58a4" x1="5.83" y1="37.01" x2="10.91" y2="42.08"/>
        <line class="uuid-5600366f-8184-4c91-9446-e07b98bd58a4" x1="13.63" y1="29.22" x2="18.7" y2="34.29"/>
        <line class="uuid-5600366f-8184-4c91-9446-e07b98bd58a4" x1="21.42" y1="21.42" x2="26.5" y2="26.5"/>
        <line class="uuid-5600366f-8184-4c91-9446-e07b98bd58a4" x1="29.22" y1="13.63" x2="34.29" y2="18.7"/>
        <line class="uuid-5600366f-8184-4c91-9446-e07b98bd58a4" x1="37.01" y1="5.83" x2="42.09" y2="10.91"/>
      </g>
      <g>
        <g>
          <path class="uuid-d8989678-cd2f-4414-adf6-a3f92f7a5636" d="M24.08,9.09c-.92,0-1.73-.62-1.97-1.51l-1.04-3.88c-.14-.53-.07-1.08.2-1.55.27-.47.71-.81,1.24-.95.17-.05.35-.07.53-.07.54,0,1.06.22,1.44.6.26.26.44.57.53.92l1.04,3.88c.14.53.07,1.08-.2,1.55-.27.47-.71.81-1.24.95-.17.05-.35.07-.53.07h0Z"/>
          <path class="uuid-d8989678-cd2f-4414-adf6-a3f92f7a5636" d="M23.04,2.26c.24,0,.47.1.64.27.11.11.19.25.23.41l1.04,3.88c.13.49-.16.98-.64,1.11-.08.02-.16.03-.24.03-.4,0-.77-.27-.88-.67l-1.04-3.88c-.13-.49.16-.98.64-1.11.08-.02.16-.03.24-.03M23.04,0c-.28,0-.55.04-.82.11-1.69.45-2.69,2.2-2.24,3.88l1.04,3.88c.37,1.38,1.63,2.35,3.06,2.35.28,0,.55-.04.82-.11,1.69-.45,2.69-2.19,2.24-3.88l-1.04-3.88c-.14-.54-.43-1.03-.82-1.42-.59-.59-1.41-.93-2.24-.93h0Z"/>
        </g>
        <g>
          <path class="uuid-d8989678-cd2f-4414-adf6-a3f92f7a5636" d="M13.28,15.32c-.54,0-1.06-.21-1.44-.6l-2.84-2.84c-.39-.39-.6-.9-.6-1.44s.21-1.06.6-1.44c.38-.38.9-.6,1.44-.6s1.06.21,1.44.6l2.84,2.84c.79.79.8,2.09,0,2.88-.39.39-.9.6-1.44.6Z"/>
          <path class="uuid-d8989678-cd2f-4414-adf6-a3f92f7a5636" d="M10.44,9.53c.23,0,.47.09.64.27l2.84,2.84c.36.36.36.93,0,1.29-.18.18-.41.27-.64.27s-.47-.09-.64-.27l-2.84-2.84c-.36-.36-.36-.93,0-1.29.18-.18.41-.27.64-.27M10.44,7.27c-.85,0-1.64.33-2.24.93-1.24,1.24-1.24,3.25,0,4.48l2.84,2.84c.6.6,1.4.93,2.24.93s1.64-.33,2.24-.93c1.24-1.24,1.24-3.25,0-4.48l-2.84-2.84c-.6-.6-1.4-.93-2.24-.93h0Z"/>
        </g>
        <g>
          <path class="uuid-d8989678-cd2f-4414-adf6-a3f92f7a5636" d="M7.05,26.12c-.18,0-.36-.02-.53-.07l-3.88-1.04c-1.09-.29-1.73-1.41-1.44-2.5.24-.89,1.05-1.51,1.97-1.51.18,0,.36.02.53.07l3.88,1.04c.34.09.66.27.91.53.51.52.72,1.27.53,1.97-.24.89-1.05,1.51-1.97,1.51h0Z"/>
          <path class="uuid-d8989678-cd2f-4414-adf6-a3f92f7a5636" d="M3.17,22.13c.08,0,.16.01.24.03l3.88,1.04c.16.04.3.13.41.23.22.22.32.55.24.88-.11.41-.48.67-.88.67-.08,0-.16-.01-.24-.03l-3.88-1.04c-.49-.13-.77-.63-.64-1.11.11-.41.48-.67.88-.67M3.17,19.87c-1.43,0-2.69.97-3.06,2.35-.22.82-.11,1.67.32,2.41.42.73,1.11,1.26,1.93,1.48l3.88,1.04c.27.07.54.11.82.11,1.43,0,2.69-.97,3.06-2.35.29-1.09-.02-2.27-.82-3.06-.39-.39-.88-.68-1.42-.82l-3.88-1.04c-.27-.07-.54-.11-.82-.11h0Z"/>
        </g>
      </g>
    </g>
  </g>
</svg>