<?xml version="1.0" encoding="UTF-8"?>
<svg id="uuid-b60faf94-c8c6-407e-9912-460cb3017822" data-name="레이어 2" xmlns="http://www.w3.org/2000/svg" viewBox="0 0 50.04 50.05">
  <defs>
    <style>
      .uuid-932827f4-985c-4b58-b85e-ca1b1e5e925c {
        fill: #1976d2;
        stroke-width: 0px;
      }

      .uuid-932827f4-985c-4b58-b85e-ca1b1e5e925c, .uuid-099d90df-ec70-4a99-b593-24c206204d55 {
        fill-rule: evenodd;
      }

      .uuid-099d90df-ec70-4a99-b593-24c206204d55 {
        fill: none;
        stroke: #151a23;
        stroke-linecap: round;
        stroke-linejoin: round;
        stroke-width: 2px;
      }
    </style>
  </defs>
  <g id="uuid-66b28e94-eba2-4d3c-bbb0-b559a3364fa5" data-name="레이어 1">
    <g>
      <path class="uuid-932827f4-985c-4b58-b85e-ca1b1e5e925c" d="M41.1,14.59h.14c2.2,0,3.99,1.79,3.99,3.99s-1.79,3.99-3.99,3.99h-12.97c-.44,0-.8-.36-.8-.8v-12.97c0-2.2,1.79-3.99,3.99-3.99s3.99,1.79,3.99,3.99v.14l6.74-6.74c1.65-1.65,4.01-1.57,5.61.03,1.6,1.6,1.69,3.96.03,5.61l-6.74,6.74Z"/>
      <path class="uuid-932827f4-985c-4b58-b85e-ca1b1e5e925c" d="M8.95,35.45h-.14c-2.2,0-3.99-1.79-3.99-3.99s1.79-3.99,3.99-3.99h12.97c.44,0,.8.36.8.8v12.97c0,2.2-1.79,3.99-3.99,3.99s-3.99-1.79-3.99-3.99v-.14l-6.74,6.74c-1.65,1.65-4.01,1.57-5.61-.03-1.6-1.6-1.69-3.96-.03-5.61l6.74-6.74Z"/>
      <path class="uuid-099d90df-ec70-4a99-b593-24c206204d55" d="M41.1,14.59h.14c2.2,0,3.99,1.79,3.99,3.99s-1.79,3.99-3.99,3.99h-12.97c-.44,0-.8-.36-.8-.8v-12.97c0-2.2,1.79-3.99,3.99-3.99s3.99,1.79,3.99,3.99v.14l6.74-6.74c1.65-1.65,4.01-1.57,5.61.03,1.6,1.6,1.69,3.96.03,5.61l-6.74,6.74ZM8.81,14.59h.14L2.21,7.85c-1.65-1.65-1.57-4.01.03-5.61,1.6-1.6,3.96-1.69,5.61-.03l6.74,6.74v-.14c0-2.2,1.79-3.99,3.99-3.99s3.99,1.79,3.99,3.99v12.97c0,.44-.36.8-.8.8h-12.97c-2.2,0-3.99-1.79-3.99-3.99s1.79-3.99,3.99-3.99h0ZM41.1,35.45h.14c2.2,0,3.99-1.79,3.99-3.99s-1.79-3.99-3.99-3.99h-12.97c-.44,0-.8.36-.8.8v12.97c0,2.2,1.79,3.99,3.99,3.99s3.99-1.79,3.99-3.99v-.14l6.74,6.74c1.65,1.65,4.01,1.57,5.61-.03s1.69-3.96.03-5.61l-6.74-6.74ZM8.81,35.45h.14l-6.74,6.74c-1.65,1.65-1.57,4.01.03,5.61,1.6,1.6,3.96,1.69,5.61.03l6.74-6.74v.14c0,2.2,1.79,3.99,3.99,3.99s3.99-1.79,3.99-3.99v-12.97c0-.44-.36-.8-.8-.8h-12.97c-2.2,0-3.99,1.79-3.99,3.99s1.79,3.99,3.99,3.99h0Z"/>
    </g>
  </g>
</svg>