<?xml version="1.0" encoding="UTF-8"?>
<svg id="uuid-180476e3-4b37-4720-8381-db381300ea88" data-name="레이어 2" xmlns="http://www.w3.org/2000/svg" viewBox="0 0 54.43 50.99">
  <defs>
    <style>
      .uuid-45a20a24-a843-4ee3-8744-a93a4cc6b828 {
        fill: #1976d2;
      }

      .uuid-45a20a24-a843-4ee3-8744-a93a4cc6b828, .uuid-0ca197aa-7288-437b-89d9-8b6045010560, .uuid-a54886b1-1531-48e0-be66-ea0a93f702ce {
        stroke-width: 0px;
      }

      .uuid-45a20a24-a843-4ee3-8744-a93a4cc6b828, .uuid-7ce697e3-dd70-4d0c-9975-b3cfb0a8a2bb {
        fill-rule: evenodd;
      }

      .uuid-0ca197aa-7288-437b-89d9-8b6045010560 {
        fill: #000;
      }

      .uuid-a54886b1-1531-48e0-be66-ea0a93f702ce {
        fill: #fff;
      }

      .uuid-7ce697e3-dd70-4d0c-9975-b3cfb0a8a2bb {
        fill: none;
        stroke: #151a23;
        stroke-linecap: round;
        stroke-linejoin: round;
        stroke-width: 2.08px;
      }
    </style>
  </defs>
  <g id="uuid-4a643285-f917-4546-be40-d0cacd5348ef" data-name="레이어 1">
    <g>
      <g>
        <path class="uuid-0ca197aa-7288-437b-89d9-8b6045010560" d="M17.54,22.82c-6.15,0-11.7-1.33-14.85-3.56C.47,17.7,0,16.06,0,14.97c0-.09,0-.2.01-.3.12-1.55,1.14-3,2.98-4.2.52-.34,1.22-.19,1.56.33.34.52.19,1.22-.33,1.56-.86.56-1.89,1.44-1.96,2.49v.11c0,1.02.93,1.9,1.71,2.45,2.74,1.94,7.93,3.14,13.55,3.14s10.81-1.2,13.56-3.14c.78-.56,1.72-1.44,1.72-2.45v-.06s0-.06,0-.06c-.05-.82-.75-1.7-1.96-2.48-.52-.34-.67-1.04-.34-1.56.34-.52,1.04-.67,1.56-.34,1.83,1.19,2.86,2.64,2.98,4.2.01.1.02.21.02.3,0,1.09-.46,2.71-2.67,4.29-3.16,2.23-8.71,3.56-14.87,3.56Z"/>
        <path class="uuid-0ca197aa-7288-437b-89d9-8b6045010560" d="M17.54,29.55C7.54,29.55,0,26.17,0,21.7c0-1.1.47-2.73,2.68-4.29.51-.36,1.22-.23,1.57.28.36.51.23,1.22-.28,1.57-.78.55-1.72,1.42-1.72,2.43,0,2.64,6.27,5.59,15.27,5.59s15.28-2.95,15.28-5.59c0-1.01-.94-1.88-1.72-2.44-.51-.36-.63-1.07-.27-1.58.36-.51,1.07-.63,1.58-.27,2.21,1.56,2.68,3.19,2.68,4.28,0,4.48-7.54,7.85-17.54,7.85Z"/>
        <path class="uuid-0ca197aa-7288-437b-89d9-8b6045010560" d="M1.13,22.82c-.62,0-1.13-.51-1.13-1.13v-6.73c0-.62.51-1.13,1.13-1.13s1.13.51,1.13,1.13v6.73c0,.62-.51,1.13-1.13,1.13Z"/>
        <path class="uuid-0ca197aa-7288-437b-89d9-8b6045010560" d="M33.95,22.82c-.62,0-1.13-.51-1.13-1.13v-6.73c0-.62.51-1.13,1.13-1.13s1.13.51,1.13,1.13v6.73c0,.62-.51,1.13-1.13,1.13Z"/>
      </g>
      <path class="uuid-0ca197aa-7288-437b-89d9-8b6045010560" d="M17.54,29.36c-5.9,0-11.33-1.25-14.54-3.35-.05-.03-.13-.09-.21-.14l-.1-.07C.6,24.31.08,22.78.02,21.74c-.01-.1-.01-.19-.01-.24,0-1.06.44-2.65,2.54-4.17.51-.37,1.21-.26,1.58.25.37.5.26,1.21-.25,1.58-.72.52-1.57,1.34-1.6,2.29v.13c.04.97.96,1.82,1.72,2.37l.21.14c2.85,1.87,7.94,3.01,13.34,3.01s10.5-1.14,13.31-2.98l.25-.17c.76-.54,1.68-1.39,1.71-2.36v-.14c-.03-.96-.88-1.77-1.6-2.29-.5-.37-.62-1.07-.25-1.58.37-.5,1.07-.62,1.58-.25,2.1,1.52,2.54,3.11,2.54,4.17,0,.05,0,.14-.01.24-.06,1.05-.58,2.57-2.66,4.05l-.29.2c-3.23,2.12-8.67,3.37-14.58,3.37ZM33.94,21.62h0,0Z"/>
      <rect class="uuid-a54886b1-1531-48e0-be66-ea0a93f702ce" x="1.13" y="14.51" width="32.82" height="27.29" rx="10.66" ry="10.66"/>
      <g>
        <path class="uuid-0ca197aa-7288-437b-89d9-8b6045010560" d="M17.54,29.23C7.54,29.23,0,25.85,0,21.37s7.54-7.86,17.54-7.86,17.54,3.38,17.54,7.86-7.54,7.86-17.54,7.86ZM17.54,15.77c-9,0-15.28,2.95-15.28,5.6s6.27,5.6,15.28,5.6,15.28-2.95,15.28-5.6-6.27-5.6-15.28-5.6Z"/>
        <path class="uuid-0ca197aa-7288-437b-89d9-8b6045010560" d="M17.54,35.95C7.54,35.95,0,32.58,0,28.1c0-1.1.47-2.73,2.68-4.29.51-.36,1.22-.23,1.57.28.36.51.23,1.22-.28,1.57-.78.55-1.72,1.42-1.72,2.43,0,2.64,6.27,5.59,15.27,5.59s15.28-2.95,15.28-5.59c0-1.01-.94-1.88-1.72-2.44-.51-.36-.63-1.07-.27-1.58.36-.51,1.07-.63,1.58-.27,2.21,1.57,2.68,3.19,2.68,4.28,0,4.48-7.54,7.85-17.54,7.85Z"/>
        <path class="uuid-0ca197aa-7288-437b-89d9-8b6045010560" d="M1.13,29.23C.51,29.23,0,28.72,0,28.1v-6.73c0-.62.51-1.13,1.13-1.13s1.13.51,1.13,1.13v6.73c0,.62-.51,1.13-1.13,1.13Z"/>
        <path class="uuid-0ca197aa-7288-437b-89d9-8b6045010560" d="M33.95,29.23c-.62,0-1.13-.51-1.13-1.13v-6.73c0-.62.51-1.13,1.13-1.13s1.13.51,1.13,1.13v6.73c0,.62-.51,1.13-1.13,1.13Z"/>
      </g>
      <g>
        <path class="uuid-0ca197aa-7288-437b-89d9-8b6045010560" d="M17.54,36.33c-6.15,0-11.7-1.33-14.85-3.56C.47,31.21,0,29.58,0,28.48c0-.09,0-.2.01-.3.12-1.55,1.14-3,2.98-4.2.52-.34,1.22-.19,1.56.33.34.52.19,1.22-.33,1.56-.86.56-1.89,1.44-1.96,2.49v.11c0,1.02.93,1.9,1.71,2.45,2.74,1.94,7.93,3.14,13.55,3.14s10.81-1.2,13.56-3.14c.78-.56,1.72-1.44,1.72-2.45v-.06s0-.06,0-.06c-.05-.82-.75-1.7-1.96-2.48-.52-.34-.67-1.04-.34-1.56.34-.52,1.04-.67,1.56-.34,1.83,1.19,2.86,2.64,2.98,4.2.01.1.02.21.02.3,0,1.09-.46,2.71-2.67,4.29-3.16,2.23-8.71,3.56-14.87,3.56Z"/>
        <path class="uuid-0ca197aa-7288-437b-89d9-8b6045010560" d="M17.54,43.06C7.54,43.06,0,39.68,0,35.21c0-1.1.47-2.73,2.68-4.29.51-.36,1.22-.23,1.57.28.36.51.23,1.22-.28,1.57-.78.55-1.72,1.42-1.72,2.43,0,2.64,6.27,5.59,15.27,5.59s15.28-2.95,15.28-5.59c0-1.01-.94-1.88-1.72-2.44-.51-.36-.63-1.07-.27-1.58.36-.51,1.07-.63,1.58-.27,2.21,1.56,2.68,3.19,2.68,4.28,0,4.48-7.54,7.85-17.54,7.85Z"/>
        <path class="uuid-0ca197aa-7288-437b-89d9-8b6045010560" d="M1.13,36.34C.51,36.34,0,35.83,0,35.21v-6.73c0-.62.51-1.13,1.13-1.13s1.13.51,1.13,1.13v6.73c0,.62-.51,1.13-1.13,1.13Z"/>
        <path class="uuid-0ca197aa-7288-437b-89d9-8b6045010560" d="M33.95,36.34c-.62,0-1.13-.51-1.13-1.13v-6.73c0-.62.51-1.13,1.13-1.13s1.13.51,1.13,1.13v6.73c0,.62-.51,1.13-1.13,1.13Z"/>
      </g>
      <path class="uuid-0ca197aa-7288-437b-89d9-8b6045010560" d="M17.54,42.87c-5.9,0-11.33-1.25-14.54-3.35-.05-.03-.13-.09-.21-.14l-.1-.07C.6,37.82.08,36.29.02,35.25c-.01-.1-.01-.19-.01-.24,0-1.06.44-2.65,2.54-4.17.51-.37,1.21-.26,1.58.25.37.5.26,1.21-.25,1.58-.72.52-1.57,1.34-1.6,2.29v.13c.04.97.96,1.82,1.72,2.37l.21.14c2.85,1.87,7.94,3.01,13.34,3.01s10.5-1.14,13.31-2.98l.25-.17c.76-.54,1.68-1.39,1.71-2.36v-.14c-.03-.96-.88-1.77-1.6-2.29-.5-.37-.62-1.07-.25-1.58.37-.5,1.07-.62,1.58-.25,2.1,1.52,2.54,3.11,2.54,4.17,0,.05,0,.14-.01.24-.06,1.05-.58,2.57-2.66,4.05l-.29.2c-3.23,2.12-8.67,3.37-14.58,3.37ZM33.94,35.13h0,0Z"/>
      <rect class="uuid-a54886b1-1531-48e0-be66-ea0a93f702ce" x="1.13" y="1.65" width="32.82" height="20.04" rx="9.13" ry="9.13"/>
      <g>
        <path class="uuid-0ca197aa-7288-437b-89d9-8b6045010560" d="M17.54,15.72C7.54,15.72,0,12.34,0,7.86S7.54,0,17.54,0s17.54,3.38,17.54,7.86-7.54,7.86-17.54,7.86ZM17.54,2.26C8.54,2.26,2.26,5.21,2.26,7.86s6.27,5.6,15.28,5.6,15.28-2.95,15.28-5.6-6.27-5.6-15.28-5.6Z"/>
        <path class="uuid-0ca197aa-7288-437b-89d9-8b6045010560" d="M17.54,22.44C7.54,22.44,0,19.06,0,14.59,0,13.49.47,11.85,2.69,10.3c.51-.36,1.22-.23,1.57.28.36.51.23,1.22-.28,1.57-.78.55-1.72,1.42-1.72,2.43,0,2.64,6.27,5.59,15.27,5.59s15.28-2.95,15.28-5.59c0-1.01-.94-1.88-1.72-2.44-.51-.36-.63-1.07-.27-1.58.36-.51,1.07-.63,1.58-.27,2.21,1.57,2.68,3.19,2.68,4.28,0,4.48-7.54,7.85-17.54,7.85Z"/>
        <path class="uuid-0ca197aa-7288-437b-89d9-8b6045010560" d="M1.13,15.72c-.62,0-1.13-.51-1.13-1.13v-6.73c0-.62.51-1.13,1.13-1.13s1.13.51,1.13,1.13v6.73c0,.62-.51,1.13-1.13,1.13Z"/>
        <path class="uuid-0ca197aa-7288-437b-89d9-8b6045010560" d="M33.95,15.72c-.62,0-1.13-.51-1.13-1.13v-6.73c0-.62.51-1.13,1.13-1.13s1.13.51,1.13,1.13v6.73c0,.62-.51,1.13-1.13,1.13Z"/>
      </g>
      <rect class="uuid-a54886b1-1531-48e0-be66-ea0a93f702ce" x="16.39" y="22.45" width="32.82" height="27.29" rx="10.66" ry="10.66"/>
      <g>
        <path class="uuid-0ca197aa-7288-437b-89d9-8b6045010560" d="M32.8,37.16c-10,0-17.54-3.38-17.54-7.86s7.54-7.86,17.54-7.86,17.54,3.38,17.54,7.86-7.54,7.86-17.54,7.86ZM32.8,23.71c-9,0-15.28,2.95-15.28,5.6s6.27,5.6,15.28,5.6,15.28-2.95,15.28-5.6-6.27-5.6-15.28-5.6Z"/>
        <path class="uuid-0ca197aa-7288-437b-89d9-8b6045010560" d="M32.79,43.88c-9.99,0-17.53-3.38-17.53-7.85,0-1.1.47-2.73,2.68-4.29.51-.36,1.22-.23,1.57.28.36.51.23,1.22-.28,1.57-.78.55-1.72,1.42-1.72,2.43,0,2.64,6.27,5.59,15.27,5.59s15.28-2.95,15.28-5.59c0-1.01-.94-1.88-1.72-2.44-.51-.36-.63-1.07-.27-1.58.36-.51,1.07-.63,1.58-.27,2.21,1.57,2.68,3.19,2.68,4.28,0,4.48-7.54,7.85-17.54,7.85Z"/>
        <path class="uuid-0ca197aa-7288-437b-89d9-8b6045010560" d="M16.39,37.16c-.62,0-1.13-.51-1.13-1.13v-6.73c0-.62.51-1.13,1.13-1.13s1.13.51,1.13,1.13v6.73c0,.62-.51,1.13-1.13,1.13Z"/>
        <path class="uuid-0ca197aa-7288-437b-89d9-8b6045010560" d="M49.2,37.16c-.62,0-1.13-.51-1.13-1.13v-6.73c0-.62.51-1.13,1.13-1.13s1.13.51,1.13,1.13v6.73c0,.62-.51,1.13-1.13,1.13Z"/>
      </g>
      <g>
        <path class="uuid-0ca197aa-7288-437b-89d9-8b6045010560" d="M32.79,44.26c-6.15,0-11.7-1.33-14.85-3.56-2.21-1.56-2.68-3.2-2.68-4.29,0-.09,0-.2.01-.3.12-1.55,1.14-3,2.98-4.2.52-.34,1.22-.19,1.56.33.34.52.19,1.22-.33,1.56-.86.56-1.89,1.44-1.96,2.49v.11c0,1.02.93,1.9,1.71,2.45,2.74,1.94,7.93,3.14,13.55,3.14s10.81-1.2,13.56-3.14c.78-.56,1.72-1.44,1.72-2.45v-.06s0-.06,0-.06c-.05-.82-.75-1.7-1.96-2.48-.52-.34-.67-1.04-.34-1.56.34-.52,1.04-.67,1.56-.34,1.83,1.19,2.86,2.64,2.98,4.2.01.1.02.21.02.3,0,1.09-.46,2.71-2.67,4.29-3.16,2.23-8.71,3.56-14.87,3.56Z"/>
        <path class="uuid-0ca197aa-7288-437b-89d9-8b6045010560" d="M32.79,50.99c-9.99,0-17.53-3.38-17.53-7.85,0-1.1.47-2.73,2.68-4.29.51-.36,1.22-.23,1.57.28.36.51.23,1.22-.28,1.57-.78.55-1.72,1.42-1.72,2.43,0,2.64,6.27,5.59,15.27,5.59s15.28-2.95,15.28-5.59c0-1.01-.94-1.88-1.72-2.44-.51-.36-.63-1.07-.27-1.58.36-.51,1.07-.63,1.58-.27,2.21,1.56,2.68,3.19,2.68,4.28,0,4.48-7.54,7.85-17.54,7.85Z"/>
        <path class="uuid-0ca197aa-7288-437b-89d9-8b6045010560" d="M16.39,44.27c-.62,0-1.13-.51-1.13-1.13v-6.73c0-.62.51-1.13,1.13-1.13s1.13.51,1.13,1.13v6.73c0,.62-.51,1.13-1.13,1.13Z"/>
        <path class="uuid-0ca197aa-7288-437b-89d9-8b6045010560" d="M49.2,44.27c-.62,0-1.13-.51-1.13-1.13v-6.73c0-.62.51-1.13,1.13-1.13s1.13.51,1.13,1.13v6.73c0,.62-.51,1.13-1.13,1.13Z"/>
      </g>
      <path class="uuid-0ca197aa-7288-437b-89d9-8b6045010560" d="M32.79,50.8c-5.9,0-11.33-1.25-14.54-3.35-.05-.03-.13-.09-.21-.14l-.1-.07c-2.08-1.48-2.6-3.01-2.66-4.05-.01-.1-.01-.19-.01-.24,0-1.06.44-2.65,2.54-4.17.51-.37,1.21-.26,1.58.25.37.5.26,1.21-.25,1.58-.72.52-1.57,1.34-1.6,2.29v.13c.04.97.96,1.82,1.72,2.37l.21.14c2.85,1.87,7.94,3.01,13.34,3.01s10.5-1.14,13.31-2.98l.25-.17c.76-.54,1.68-1.39,1.71-2.36v-.14c-.03-.96-.88-1.77-1.6-2.29-.5-.37-.62-1.07-.25-1.58.37-.5,1.07-.62,1.58-.25,2.1,1.52,2.54,3.11,2.54,4.17,0,.05,0,.14-.01.24-.06,1.05-.58,2.57-2.66,4.05l-.29.2c-3.23,2.12-8.67,3.37-14.58,3.37ZM49.19,43.06h0,0Z"/>
      <g>
        <path class="uuid-45a20a24-a843-4ee3-8744-a93a4cc6b828" d="M46.2,17.56l.1-.1c1.62-1.62,4.26-1.62,5.88,0s1.62,4.26,0,5.88l-9.55,9.55c-.32.32-.85.32-1.18,0l-9.55-9.55c-1.62-1.62-1.62-4.26,0-5.88s4.26-1.62,5.88,0l.1.1V7.64c0-2.43,1.79-4.11,4.15-4.11,2.36,0,4.15,1.67,4.15,4.11v9.92Z"/>
        <path class="uuid-7ce697e3-dd70-4d0c-9975-b3cfb0a8a2bb" d="M46.2,17.56l.1-.1c1.62-1.62,4.26-1.62,5.88,0s1.62,4.26,0,5.88l-9.55,9.55c-.32.32-.85.32-1.18,0l-9.55-9.55c-1.62-1.62-1.62-4.26,0-5.88s4.26-1.62,5.88,0l.1.1V7.64c0-2.43,1.79-4.11,4.15-4.11,2.36,0,4.15,1.67,4.15,4.11v9.92Z"/>
      </g>
    </g>
  </g>
</svg>