<?xml version="1.0" encoding="UTF-8"?>
<svg id="uuid-b50abb5f-f7f2-485b-b775-84d36b0aea52" data-name="레이어 2" xmlns="http://www.w3.org/2000/svg" viewBox="0 0 53.26 47.02">
  <defs>
    <style>
      .uuid-013c0fdd-c37c-4a5a-94c3-3a4222e9e1c3 {
        fill: #1976d2;
        stroke-width: 0px;
      }

      .uuid-8243e1ee-bf19-467d-b208-7c429f72688d {
        fill: none;
        stroke: #000;
        stroke-linecap: round;
        stroke-miterlimit: 10;
        stroke-width: 2.26px;
      }
    </style>
  </defs>
  <g id="uuid-34e17074-591d-4a1b-b945-c75ac9223b12" data-name="레이어 1">
    <g>
      <path class="uuid-8243e1ee-bf19-467d-b208-7c429f72688d" d="M47.92,1.13H5.34C3.01,1.13,1.13,3.01,1.13,5.34v26.98c0,2.32,1.88,4.21,4.21,4.21h15.05c.47,0,.85.38.85.85v1.85c0,.47-.38.85-.85.85h-7.12c-1.52,0-2.88,1.11-3.02,2.63-.17,1.74,1.2,3.2,2.9,3.2h26.85c1.52,0,2.88-1.11,3.02-2.63.17-1.74-1.2-3.2-2.9-3.2h-7.24c-.47,0-.85-.38-.85-.85v-1.85c0-.47.38-.85.85-.85h15.05c2.32,0,4.21-1.88,4.21-4.21V5.34c0-2.32-1.88-4.21-4.21-4.21Z"/>
      <path class="uuid-8243e1ee-bf19-467d-b208-7c429f72688d" d="M21.01,32.32H7.47c-.75,0-1.36-.61-1.36-1.36V6.69c0-.75.61-1.36,1.36-1.36h38.32c.75,0,1.36.61,1.36,1.36v24.28c0,.75-.61,1.36-1.36,1.36h-24.78Z"/>
      <path class="uuid-013c0fdd-c37c-4a5a-94c3-3a4222e9e1c3" d="M34.51,27.5c-.42,0-.85-.12-1.22-.38-.96-.67-1.19-1.99-.52-2.95l5.88-8.37c.67-.96,1.99-1.19,2.95-.52.96.67,1.19,1.99.52,2.95l-5.88,8.37c-.41.59-1.07.9-1.73.9Z"/>
      <path class="uuid-013c0fdd-c37c-4a5a-94c3-3a4222e9e1c3" d="M28.42,25.16c-.44,0-.88-.13-1.25-.41-.94-.69-1.14-2.02-.45-2.96l7.93-10.77c.69-.94,2.02-1.14,2.96-.45.94.69,1.14,2.02.45,2.96l-7.93,10.77c-.41.56-1.06.86-1.71.86Z"/>
    </g>
  </g>
</svg>