<?xml version="1.0" encoding="UTF-8"?>
<svg id="uuid-2ad54856-ba9c-4111-8345-d283d40ec547" data-name="레이어 2" xmlns="http://www.w3.org/2000/svg" viewBox="0 0 74.32 46.22">
  <defs>
    <style>
      .uuid-bd3bdba4-24b5-4df1-8d38-fd46f3c86462 {
        fill: none;
        stroke: #000;
        stroke-linecap: round;
        stroke-miterlimit: 10;
        stroke-width: 2px;
      }

      .uuid-49a0b98c-16c8-4cc4-9ec0-9cc9bfd0a236 {
        fill: #1976d2;
        stroke-width: 0px;
      }
    </style>
  </defs>
  <g id="uuid-4037763a-9f76-4ec6-a4f4-b4ee9f001057" data-name="레이어 1">
    <g>
      <path class="uuid-bd3bdba4-24b5-4df1-8d38-fd46f3c86462" d="M38.16,7.65l-8.11,8.11v-2.09c0-1.22-.5-2.42-1.38-3.28-.87-.85-2-1.31-3.19-1.28-2.43.05-4.4,2.06-4.4,4.48v9.66c0,.95-.37,1.84-1.04,2.51l-.09.09c-1.06,1.06-1.65,2.48-1.65,3.98s.59,2.92,1.65,3.98l9.75,9.74c1.1,1.1,2.54,1.65,3.99,1.65,1.44,0,2.89-.55,3.99-1.65l.96-.96c.24-.24.55-.37.89-.37h3.64c1.51,0,2.92-.59,3.99-1.65l7.54-7.53c.87-.86,1.35-2.07,1.34-3.3-.01-1.21-.49-2.34-1.35-3.16-.68-.66-1.53-1.05-2.41-1.19.34-.66.51-1.39.51-2.14-.01-1.21-.49-2.34-1.35-3.16-.97-.93-2.26-1.34-3.52-1.23.01-.14.02-.27.02-.41,0-1.2-.47-2.32-1.31-3.17-.63-.63-1.39-1.03-2.2-1.2l5.39-5.39c.87-.86,1.35-2.07,1.34-3.3-.01-1.21-.49-2.34-1.35-3.16-1.75-1.68-4.57-1.66-6.28.06l-1.92,1.92"/>
      <g>
        <path class="uuid-49a0b98c-16c8-4cc4-9ec0-9cc9bfd0a236" d="M3.18,24.88c-1.2,0-2.18-.98-2.18-2.18s.98-2.18,2.18-2.18h5.23c1.2,0,2.18.98,2.18,2.18s-.98,2.18-2.18,2.18H3.18Z"/>
        <path class="uuid-49a0b98c-16c8-4cc4-9ec0-9cc9bfd0a236" d="M8.41,21.52c.65,0,1.18.53,1.18,1.18s-.53,1.18-1.18,1.18H3.18c-.65,0-1.18-.53-1.18-1.18s.53-1.18,1.18-1.18h5.23M8.41,19.52H3.18c-1.76,0-3.18,1.43-3.18,3.18s1.43,3.18,3.18,3.18h5.23c1.76,0,3.18-1.43,3.18-3.18s-1.43-3.18-3.18-3.18h0Z"/>
      </g>
      <path class="uuid-49a0b98c-16c8-4cc4-9ec0-9cc9bfd0a236" d="M12.61,37.19c.41,0,.81.21,1.03.59.33.57.13,1.29-.43,1.62l-4.53,2.61c-.19.11-.39.16-.59.16-.41,0-.81-.21-1.03-.59-.33-.57-.13-1.29.43-1.62l4.53-2.61c.19-.11.39-.16.59-.16M12.61,35.19c-.56,0-1.11.15-1.59.43l-4.53,2.61c-1.52.88-2.04,2.83-1.17,4.35.57.98,1.62,1.59,2.76,1.59.56,0,1.11-.15,1.59-.43l4.53-2.61c.74-.42,1.26-1.11,1.48-1.93.22-.82.11-1.68-.32-2.42-.57-.98-1.62-1.59-2.76-1.59h0Z"/>
      <g>
        <path class="uuid-49a0b98c-16c8-4cc4-9ec0-9cc9bfd0a236" d="M66.24,43.17c-.38,0-.76-.1-1.09-.29l-4.53-2.61c-1.04-.6-1.4-1.94-.8-2.98.39-.67,1.11-1.09,1.89-1.09.38,0,.76.1,1.09.29l4.53,2.61c.51.29.87.76,1.02,1.33.15.56.07,1.15-.22,1.66-.39.67-1.11,1.09-1.89,1.09Z"/>
        <path class="uuid-49a0b98c-16c8-4cc4-9ec0-9cc9bfd0a236" d="M61.71,37.19c.2,0,.4.05.59.16l4.53,2.61c.57.33.76,1.05.43,1.62-.22.38-.62.59-1.03.59-.2,0-.4-.05-.59-.16l-4.53-2.61h0c-.57-.33-.76-1.05-.43-1.62.22-.38.62-.59,1.03-.59M61.71,35.19c-1.13,0-2.19.61-2.76,1.59-.88,1.52-.35,3.47,1.17,4.35l4.53,2.61c.48.28,1.03.43,1.59.43,1.13,0,2.19-.61,2.76-1.59.42-.74.54-1.59.32-2.42-.22-.82-.75-1.51-1.48-1.93l-4.53-2.61c-.48-.28-1.03-.43-1.59-.43h0Z"/>
      </g>
      <g>
        <path class="uuid-49a0b98c-16c8-4cc4-9ec0-9cc9bfd0a236" d="M65.91,24.88c-1.2,0-2.18-.98-2.18-2.18s.98-2.18,2.18-2.18h5.23c1.2,0,2.18.98,2.18,2.18s-.98,2.18-2.18,2.18h-5.23Z"/>
        <path class="uuid-49a0b98c-16c8-4cc4-9ec0-9cc9bfd0a236" d="M71.14,21.52c.65,0,1.18.53,1.18,1.18s-.53,1.18-1.18,1.18h-5.23c-.65,0-1.18-.53-1.18-1.18s.53-1.18,1.18-1.18h5.23M71.14,19.52h-5.23c-1.76,0-3.18,1.43-3.18,3.18s1.43,3.18,3.18,3.18h5.23c1.76,0,3.18-1.43,3.18-3.18s-1.43-3.18-3.18-3.18h0Z"/>
      </g>
      <g>
        <path class="uuid-49a0b98c-16c8-4cc4-9ec0-9cc9bfd0a236" d="M61.71,9.21c-.78,0-1.5-.42-1.89-1.09-.6-1.04-.24-2.38.8-2.98l4.53-2.61c.33-.19.71-.29,1.09-.29.78,0,1.5.42,1.89,1.09.29.51.37,1.09.22,1.66-.15.56-.51,1.03-1.02,1.33l-4.53,2.61c-.33.19-.71.29-1.09.29Z"/>
        <path class="uuid-49a0b98c-16c8-4cc4-9ec0-9cc9bfd0a236" d="M66.24,3.23c.41,0,.81.21,1.03.59.33.57.13,1.29-.43,1.62l-4.53,2.61c-.19.11-.39.16-.59.16-.41,0-.81-.21-1.03-.59-.33-.57-.13-1.29.43-1.62l4.53-2.61c.19-.11.39-.16.59-.16M66.24,1.23c-.56,0-1.11.15-1.59.43l-4.53,2.61c-.74.42-1.26,1.11-1.48,1.93-.22.82-.11,1.68.32,2.42.57.98,1.62,1.59,2.76,1.59.56,0,1.11-.15,1.59-.43l4.53-2.61c.74-.42,1.26-1.11,1.48-1.93.22-.82.11-1.68-.32-2.42-.57-.98-1.62-1.59-2.76-1.59h0Z"/>
      </g>
      <g>
        <path class="uuid-49a0b98c-16c8-4cc4-9ec0-9cc9bfd0a236" d="M12.61,9.21c-.38,0-.76-.1-1.09-.29l-4.53-2.61c-.5-.29-.87-.76-1.02-1.33-.15-.56-.07-1.15.22-1.66.39-.67,1.11-1.09,1.89-1.09.38,0,.76.1,1.09.29l4.53,2.61c.5.29.87.76,1.02,1.33s.07,1.15-.22,1.66c-.39.67-1.11,1.09-1.89,1.09Z"/>
        <path class="uuid-49a0b98c-16c8-4cc4-9ec0-9cc9bfd0a236" d="M8.09,3.23c.2,0,.4.05.59.16l4.53,2.61c.57.33.76,1.05.43,1.62-.22.38-.62.59-1.03.59-.2,0-.4-.05-.59-.16l-4.53-2.61c-.57-.33-.76-1.05-.43-1.62.22-.38.62-.59,1.03-.59M8.09,1.23c-1.13,0-2.19.61-2.76,1.59-.88,1.52-.35,3.47,1.17,4.35l4.53,2.61c.48.28,1.03.43,1.59.43,1.13,0,2.19-.61,2.76-1.59.42-.74.54-1.59.32-2.42-.22-.82-.75-1.51-1.48-1.93l-4.53-2.61c-.48-.28-1.03-.43-1.59-.43h0Z"/>
      </g>
      <line class="uuid-bd3bdba4-24b5-4df1-8d38-fd46f3c86462" x1="43.79" y1="23.11" x2="47.91" y2="18.88"/>
      <line class="uuid-bd3bdba4-24b5-4df1-8d38-fd46f3c86462" x1="48.44" y1="29.43" x2="52.55" y2="25.2"/>
      <line class="uuid-bd3bdba4-24b5-4df1-8d38-fd46f3c86462" x1="39.72" y1="18.87" x2="44.8" y2="13.67"/>
      <g>
        <path class="uuid-49a0b98c-16c8-4cc4-9ec0-9cc9bfd0a236" d="M8.09,43.17c-.78,0-1.5-.42-1.89-1.09-.6-1.04-.24-2.38.8-2.98l4.53-2.61c.33-.19.71-.29,1.09-.29.78,0,1.5.42,1.89,1.09.29.5.37,1.09.22,1.66-.15.56-.51,1.03-1.02,1.32l-4.53,2.61c-.33.19-.71.29-1.09.29Z"/>
        <path class="uuid-49a0b98c-16c8-4cc4-9ec0-9cc9bfd0a236" d="M12.61,37.19c.41,0,.81.21,1.03.59.33.57.13,1.29-.43,1.62l-4.53,2.61c-.19.11-.39.16-.59.16-.41,0-.81-.21-1.03-.59-.33-.57-.13-1.29.43-1.62l4.53-2.61c.19-.11.39-.16.59-.16M12.61,35.19c-.56,0-1.11.15-1.59.43l-4.53,2.61c-1.52.88-2.04,2.83-1.17,4.35.57.98,1.62,1.59,2.76,1.59.56,0,1.11-.15,1.59-.43l4.53-2.61c.74-.42,1.26-1.11,1.48-1.93.22-.82.11-1.68-.32-2.42-.57-.98-1.62-1.59-2.76-1.59h0Z"/>
      </g>
    </g>
  </g>
</svg>