<?xml version="1.0" encoding="UTF-8"?>
<svg id="uuid-8bcb3267-b836-4880-b40e-22352c9cba42" data-name="레이어 2" xmlns="http://www.w3.org/2000/svg" viewBox="0 0 34.05 60.23">
  <defs>
    <style>
      .uuid-320c09d4-59b3-477e-9e77-f8691469e9a3 {
        fill: #1976d2;
      }

      .uuid-320c09d4-59b3-477e-9e77-f8691469e9a3, .uuid-c820ff0d-3092-4d2c-8b4d-a7888988d371 {
        fill-rule: evenodd;
      }

      .uuid-320c09d4-59b3-477e-9e77-f8691469e9a3, .uuid-f112ba95-b25a-4ab3-a14d-5b7b664784b9 {
        stroke-width: 0px;
      }

      .uuid-c820ff0d-3092-4d2c-8b4d-a7888988d371 {
        fill: none;
        stroke: #000;
        stroke-linecap: round;
        stroke-linejoin: round;
        stroke-width: 2.08px;
      }

      .uuid-f112ba95-b25a-4ab3-a14d-5b7b664784b9 {
        fill: #000;
      }
    </style>
  </defs>
  <g id="uuid-565b59c6-3d0e-4b9f-9209-3edd84faebac" data-name="레이어 1">
    <g>
      <path class="uuid-f112ba95-b25a-4ab3-a14d-5b7b664784b9" d="M17.06,12.05h-1v-3.01c0-1.66-1.35-3.01-3.01-3.01V2.01c0-1.11-.9-2.01-2.01-2.01h-2.01c-1.11,0-2.01.9-2.01,2.01v4.02c-1.66,0-3.01,1.35-3.01,3.01v3.01h-1c-1.66,0-3.01,1.35-3.01,3.01v2.01c0,1.66,1.35,3.01,3.01,3.01h1v4.02h-1c-1.66,0-3.01,1.35-3.01,3.01v2.01c0,1.66,1.35,3.01,3.01,3.01h1v17.06c0,1.66,1.35,3.01,3.01,3.01v5.02c0,1.66,1.35,3.01,3.01,3.01s3.01-1.35,3.01-3.01v-5.02c1.66,0,3.01-1.35,3.01-3.01v-17.06h1c1.66,0,3.01-1.35,3.01-3.01v-2.01c0-1.66-1.35-3.01-3.01-3.01h-1v-4.02h1c1.66,0,3.01-1.35,3.01-3.01v-2.01c0-1.66-1.35-3.01-3.01-3.01h0ZM8.03,18.07v-4.02h4.02v4.02h-4.02ZM9.03,2.01h2.01v4.02h-2.01V2.01ZM6.02,9.03c0-.55.45-1,1-1h6.02c.55,0,1,.45,1,1v3.01H6.02v-3.01ZM2.01,17.06v-2.01c0-.55.45-1,1-1h3.01v4.02h-3.01c-.55,0-1-.45-1-1ZM11.04,57.22c0,.55-.45,1-1,1s-1-.45-1-1v-5.02h2.01v5.02ZM14.05,49.19c0,.55-.45,1-1,1h-6.02c-.55,0-1-.45-1-1v-17.06h8.03v17.06h0ZM18.07,27.1v2.01c0,.55-.45,1-1,1H3.01c-.55,0-1-.45-1-1v-2.01c0-.55.45-1,1-1h14.05c.55,0,1,.45,1,1h0ZM14.05,24.09H6.02v-4.02h8.03v4.02h0ZM18.07,17.06c0,.55-.45,1-1,1h-3.01v-4.02h3.01c.55,0,1,.45,1,1v2.01Z"/>
      <g>
        <path class="uuid-320c09d4-59b3-477e-9e77-f8691469e9a3" d="M32.94,40.21c-.13-.66-.44-1.28-.95-1.79-1.35-1.35-3.56-1.35-4.91,0l-.09.09v-8.29h0s0,0,0,0v-4.48s.09.09.09.09c1.35,1.35,3.56,1.35,4.91,0,1.35-1.35,1.35-3.56,0-4.91l-7.97-7.97c-.07-.07-.15-.12-.23-.15-.17-.07-.36-.07-.52,0-.08.03-.16.08-.23.15l-7.97,7.97c-1.35,1.35-1.35,3.56,0,4.91,1.35,1.35,3.56,1.35,4.91,0l.09-.09v8.29s0,0,0,0v4.48s-.09-.09-.09-.09c-1.35-1.35-3.56-1.35-4.91,0s-1.35,3.56,0,4.91l7.97,7.97c.27.27.71.27.98,0l7.97-7.97c.51-.51.82-1.13.95-1.79.04-.22.06-.44.06-.66s-.02-.44-.06-.66Z"/>
        <path class="uuid-c820ff0d-3092-4d2c-8b4d-a7888988d371" d="M32.94,40.21c-.13-.66-.44-1.28-.95-1.79-1.35-1.35-3.56-1.35-4.91,0l-.09.09v-8.29h0s0,0,0,0v-4.48s.09.09.09.09c1.35,1.35,3.56,1.35,4.91,0,1.35-1.35,1.35-3.56,0-4.91l-7.97-7.97c-.07-.07-.15-.12-.23-.15-.17-.07-.36-.07-.52,0-.08.03-.16.08-.23.15l-7.97,7.97c-1.35,1.35-1.35,3.56,0,4.91,1.35,1.35,3.56,1.35,4.91,0l.09-.09v8.29s0,0,0,0v4.48s-.09-.09-.09-.09c-1.35-1.35-3.56-1.35-4.91,0s-1.35,3.56,0,4.91l7.97,7.97c.27.27.71.27.98,0l7.97-7.97c.51-.51.82-1.13.95-1.79.04-.22.06-.44.06-.66s-.02-.44-.06-.66Z"/>
      </g>
    </g>
  </g>
</svg>