<?xml version="1.0" encoding="UTF-8"?>
<svg id="uuid-d1030874-fbf0-4d8e-adbb-4af8308aae78" data-name="레이어 2" xmlns="http://www.w3.org/2000/svg" viewBox="0 0 54.78 44.03">
  <defs>
    <style>
      .uuid-23b38911-1252-4012-b313-cd3c794273eb {
        stroke-width: 4px;
      }

      .uuid-23b38911-1252-4012-b313-cd3c794273eb, .uuid-740ee64d-a27d-46a6-8580-46ada24959e8 {
        stroke: #1976d2;
        stroke-linejoin: round;
      }

      .uuid-23b38911-1252-4012-b313-cd3c794273eb, .uuid-740ee64d-a27d-46a6-8580-46ada24959e8, .uuid-30b1967f-0867-4652-90d0-ab48c1edecaf {
        fill: none;
        stroke-linecap: round;
      }

      .uuid-740ee64d-a27d-46a6-8580-46ada24959e8 {
        stroke-width: 2.26px;
      }

      .uuid-30b1967f-0867-4652-90d0-ab48c1edecaf {
        stroke: #000;
        stroke-miterlimit: 10;
        stroke-width: 2.26px;
      }
    </style>
  </defs>
  <g id="uuid-c0cb3bb0-2177-4806-a83c-0427d5d32b53" data-name="레이어 1">
    <g>
      <path class="uuid-30b1967f-0867-4652-90d0-ab48c1edecaf" d="M50.33,33l3.01-8.51-3.53-1.25c.11-1.44.02-2.87-.23-4.27l3.38-1.61-3.89-8.15-3.38,1.61c-.92-1.07-1.99-2.03-3.18-2.86l1.25-3.53-8.51-3.01-1.25,3.53c-1.44-.11-2.87-.02-4.27.23l-1.61-3.38-8.15,3.89,1.61,3.38c-1.07.92-2.03,1.99-2.86,3.18l-3.53-1.25-3.01,8.51,3.53,1.25c-.11,1.44-.02,2.87.23,4.27l-3.38,1.61,3.89,8.15,3.38-1.61c.92,1.07,1.99,2.03,3.18,2.86l-1.25,3.53,8.51,3.01,1.25-3.53c1.44.11,2.87.02,4.27-.23l1.61,3.38,8.15-3.89-1.61-3.38c1.07-.92,2.03-1.99,2.86-3.18l3.53,1.25Z"/>
      <circle class="uuid-30b1967f-0867-4652-90d0-ab48c1edecaf" cx="32.76" cy="22.01" r="9.77"/>
      <polyline class="uuid-740ee64d-a27d-46a6-8580-46ada24959e8" points="31.8 16.03 31.8 23.38 35.04 26.28"/>
      <line class="uuid-23b38911-1252-4012-b313-cd3c794273eb" x1="4.94" y1="28.82" x2="10.15" y2="28.82"/>
      <line class="uuid-23b38911-1252-4012-b313-cd3c794273eb" x1="2" y1="35.37" x2="10.01" y2="35.37"/>
      <line class="uuid-23b38911-1252-4012-b313-cd3c794273eb" x1="2" y1="41.91" x2="16.15" y2="41.91"/>
    </g>
  </g>
</svg>