<?xml version="1.0" encoding="UTF-8"?>
<svg id="uuid-4a71fb84-220e-4cf7-980b-435022e1ce5b" data-name="레이어 2" xmlns="http://www.w3.org/2000/svg" viewBox="0 0 59.5 73.89">
  <defs>
    <style>
      .uuid-26647fb0-3176-4128-bf6f-c545541ef0c8 {
        fill: #1976d2;
        stroke-width: 0px;
      }

      .uuid-26647fb0-3176-4128-bf6f-c545541ef0c8, .uuid-ac64c680-4ab3-4658-9f30-2b5f54506ced {
        fill-rule: evenodd;
      }

      .uuid-26ac00de-0d37-4723-9ea8-9f2ec1e14ec7 {
        fill: #fff;
      }

      .uuid-26ac00de-0d37-4723-9ea8-9f2ec1e14ec7, .uuid-ac64c680-4ab3-4658-9f30-2b5f54506ced {
        stroke: #151a23;
        stroke-linecap: round;
        stroke-linejoin: round;
        stroke-width: 2.08px;
      }

      .uuid-ac64c680-4ab3-4658-9f30-2b5f54506ced {
        fill: none;
      }
    </style>
  </defs>
  <g id="uuid-5932d949-b037-488a-b9d8-470aaccd91ca" data-name="레이어 1">
    <g>
      <g>
        <polygon class="uuid-26ac00de-0d37-4723-9ea8-9f2ec1e14ec7" points="47.61 52.65 1.04 52.59 11.88 34.81 58.46 34.87 47.61 52.65"/>
        <polygon class="uuid-26ac00de-0d37-4723-9ea8-9f2ec1e14ec7" points="47.61 45.87 1.04 45.81 11.88 28.02 58.46 28.08 47.61 45.87"/>
        <polygon class="uuid-26ac00de-0d37-4723-9ea8-9f2ec1e14ec7" points="47.61 39.08 1.04 39.02 11.88 21.23 58.46 21.29 47.61 39.08"/>
      </g>
      <g>
        <g>
          <path class="uuid-26647fb0-3176-4128-bf6f-c545541ef0c8" d="M33.9,57.28l.1-.1c1.62-1.62,4.26-1.62,5.88,0s1.62,4.26,0,5.88l-9.55,9.55c-.32.32-.85.32-1.18,0l-9.55-9.55c-1.62-1.62-1.62-4.26,0-5.88s4.26-1.62,5.88,0l.1.1v-9.92c0-2.43,1.79-4.11,4.15-4.11,2.36,0,4.15,1.67,4.15,4.11v9.92Z"/>
          <path class="uuid-ac64c680-4ab3-4658-9f30-2b5f54506ced" d="M33.9,57.28l.1-.1c1.62-1.62,4.26-1.62,5.88,0s1.62,4.26,0,5.88l-9.55,9.55c-.32.32-.85.32-1.18,0l-9.55-9.55c-1.62-1.62-1.62-4.26,0-5.88s4.26-1.62,5.88,0l.1.1v-9.92c0-2.43,1.79-4.11,4.15-4.11,2.36,0,4.15,1.67,4.15,4.11v9.92Z"/>
        </g>
        <g>
          <path class="uuid-26647fb0-3176-4128-bf6f-c545541ef0c8" d="M25.59,16.6l-.1.1c-1.62,1.62-4.26,1.62-5.88,0s-1.62-4.26,0-5.88L29.16,1.28c.32-.32.85-.32,1.18,0l9.55,9.55c1.62,1.62,1.62,4.26,0,5.88s-4.26,1.62-5.88,0l-.1-.1v9.92c0,2.43-1.79,4.11-4.15,4.11-2.36,0-4.15-1.67-4.15-4.11v-9.92Z"/>
          <path class="uuid-ac64c680-4ab3-4658-9f30-2b5f54506ced" d="M25.59,16.6l-.1.1c-1.62,1.62-4.26,1.62-5.88,0s-1.62-4.26,0-5.88L29.16,1.28c.32-.32.85-.32,1.18,0l9.55,9.55c1.62,1.62,1.62,4.26,0,5.88s-4.26,1.62-5.88,0l-.1-.1v9.92c0,2.43-1.79,4.11-4.15,4.11-2.36,0-4.15-1.67-4.15-4.11v-9.92Z"/>
        </g>
      </g>
    </g>
  </g>
</svg>