{
  "accessors": [
    {
      "bufferView": 0,
      "componentType": 5125,
      "count": 27000,
      "type": "SCALAR"
    },
    {
      "bufferView": 1,
      "componentType": 5126,
      "count": 7524,
      "max": [
        0.2204341066820572,
        0.22043609293159427,
        0.005999999848427249
      ],
      "min": [
        -0.2204341066820572,
        -0.22043609293159427,
        -0.005999999848427249
      ],
      "type": "VEC3"
    },
    {
      "bufferView": 2,
      "componentType": 5126,
      "count": 7524,
      "max": [
        0.9999999999999017,
        0.9999999999999601,
        1.0
      ],
      "min": [
        -0.9999999999999143,
        -0.9999999999999143,
        -1.0
      ],
      "type": "VEC3"
    },
    {
      "bufferView": 3,
      "componentType": 5126,
      "count": 7524,
      "max": [
        0.9993623509912765,
        1.0
      ],
      "min": [
        0.0,
        0.0
      ],
      "type": "VEC2"
    }
  ],
  "asset": {
    "generator": "Adobe Illustrator",
    "version": "2.0"
  },
  "bufferViews": [
    {
      "buffer": 0,
      "byteLength": 108000,
      "target": 34963
    },
    {
      "buffer": 0,
      "byteLength": 90288,
      "byteOffset": 108000,
      "target": 34962
    },
    {
      "buffer": 0,
      "byteLength": 90288,
      "byteOffset": 198288,
      "target": 34962
    },
    {
      "buffer": 0,
      "byteLength": 60192,
      "byteOffset": 288576,
      "target": 34962
    }
  ],
  "buffers": [
    {
      "byteLength": 348768,
      "uri": "data:application/octet-stream;base64,"
    }
  ],
  "materials": [
    {
      "doubleSided": true,
      "pbrMetallicRoughness": {
        "baseColorFactor": [
          0.640625,
          0.640625,
          0.640625,
          1.0
        ],
        "metallicFactor": 0.0,
        "roughnessFactor": 0.4000000059604645
      }
    }
  ],
  "meshes": [
    {
      "primitives": [
        {
          "attributes": {
            "NORMAL": 2,
            "POSITION": 1,
            "TEXCOORD_0": 3
          },
          "indices": 0,
          "material": 0,
          "mode": 4
        }
      ]
    }
  ],
  "nodes": [
    {
      "mesh": 0
    }
  ],
  "scenes": [
    {
      "nodes": [
        0
      ]
    }
  ]
}
