{
  "accessors": [
    {
      "bufferView": 0,
      "componentType": 5125,
      "count": 20304,
      "type": "SCALAR"
    },
    {
      "bufferView": 1,
      "componentType": 5126,
      "count": 5766,
      "max": [
        0.2204347599537017,
        0.22043475995370176,
        0.00999999974737876
      ],
      "min": [
        -0.2204347599537017,
        -0.22043475995370176,
        -0.00999999974737876
      ],
      "type": "VEC3"
    },
    {
      "bufferView": 2,
      "componentType": 5126,
      "count": 5766,
      "max": [
        1.0,
        1.0,
        1.0
      ],
      "min": [
        -1.0,
        -1.0,
        -1.0
      ],
      "type": "VEC3"
    },
    {
      "bufferView": 3,
      "componentType": 5126,
      "count": 5766,
      "max": [
        0.9994647676107529,
        1.0
      ],
      "min": [
        0.0,
        0.0
      ],
      "type": "VEC2"
    }
  ],
  "asset": {
    "generator": "Adobe Illustrator",
    "version": "2.0"
  },
  "bufferViews": [
    {
      "buffer": 0,
      "byteLength": 81216,
      "target": 34963
    },
    {
      "buffer": 0,
      "byteLength": 69192,
      "byteOffset": 81216,
      "target": 34962
    },
    {
      "buffer": 0,
      "byteLength": 69192,
      "byteOffset": 150408,
      "target": 34962
    },
    {
      "buffer": 0,
      "byteLength": 46128,
      "byteOffset": 219600,
      "target": 34962
    }
  ],
  "buffers": [
    {
      "byteLength": 265728,
      "uri": "data:application/octet-stream;base64,"
    }
  ],
  "materials": [
    {
      "doubleSided": true,
      "pbrMetallicRoughness": {
        "baseColorFactor": [
          0.640625,
          0.640625,
          0.640625,
          1.0
        ],
        "metallicFactor": 0.0,
        "roughnessFactor": 0.4000000059604645
      }
    }
  ],
  "meshes": [
    {
      "primitives": [
        {
          "attributes": {
            "NORMAL": 2,
            "POSITION": 1,
            "TEXCOORD_0": 3
          },
          "indices": 0,
          "material": 0,
          "mode": 4
        }
      ]
    }
  ],
  "nodes": [
    {
      "mesh": 0
    }
  ],
  "scenes": [
    {
      "nodes": [
        0
      ]
    }
  ]
}
