<?xml version="1.0" encoding="UTF-8"?>
<svg id="uuid-f3a3e2a8-ce1d-4c54-b4e4-db5b55ff3022" data-name="레이어 2" xmlns="http://www.w3.org/2000/svg" viewBox="0 0 208.82 126.88">
  <defs>
    <style>
      .uuid-42ed238a-6b58-4b97-a9b3-55e14b1782b8 {
        fill: #231815;
      }

      .uuid-42ed238a-6b58-4b97-a9b3-55e14b1782b8, .uuid-0b6750e1-afc1-4e0a-9ab3-46d79d1d6519 {
        stroke-width: 0px;
      }

      .uuid-0b6750e1-afc1-4e0a-9ab3-46d79d1d6519 {
        fill: #000;
      }
    </style>
  </defs>
  <g id="uuid-a5ef4abb-2574-499d-9e74-0e13da3adc8e" data-name="레이어 1">
    <g>
      <path class="uuid-42ed238a-6b58-4b97-a9b3-55e14b1782b8" d="M70.58,115.19c-5.46-.79-10.85-2.09-16.17-3.62-5.32-1.55-10.59-3.35-15.74-5.56-5.15-2.19-10.15-4.81-14.93-7.9-2.39-1.54-4.72-3.21-6.96-5.05-1.13-.9-2.21-1.88-3.29-2.85-1.04-1.03-2.09-2.05-3.07-3.16-3.94-4.36-7.38-9.53-9.17-15.53C.37,68.54-.06,65.39,0,62.28c.07-3.12.64-6.2,1.64-9.07,2-5.78,5.64-10.55,9.71-14.42,2.04-1.96,4.27-3.64,6.52-5.22,2.27-1.56,4.66-2.9,7.05-4.18l1.94,3.12c-4.12,3.13-7.95,6.58-11.05,10.44-1.53,1.94-2.92,3.95-4.02,6.05-1.11,2.1-1.89,4.3-2.39,6.49-1.01,4.39-.58,8.85,1.1,12.87,1.62,4.05,4.47,7.71,7.91,10.87,1.71,1.59,3.58,3.07,5.54,4.45,1.96,1.39,4.02,2.67,6.16,3.84,4.26,2.39,8.85,4.3,13.51,6.05,4.67,1.73,9.5,3.12,14.39,4.28,4.9,1.16,9.87,2.01,14.85,2.87l-2.29,14.48Z"/>
      <polygon class="uuid-42ed238a-6b58-4b97-a9b3-55e14b1782b8" points="67.76 87.15 100.35 110.15 64.14 126.88 67.76 87.15"/>
    </g>
    <path class="uuid-42ed238a-6b58-4b97-a9b3-55e14b1782b8" d="M186.02,29.7c20.4,11.67,30.84,32.33,15.4,53.1-12.79,16.43-33.21,25.02-52.55,30.46-13.01,3.52-26.39,5.45-39.85,6.1,0,0,0-19.33,0-19.33,27.57,1.27,64.65-2.99,84.82-23.43,14.47-15.62,5.03-32.74-10.05-43.49,0,0,2.23-3.41,2.23-3.41h0Z"/>
    <g>
      <path class="uuid-0b6750e1-afc1-4e0a-9ab3-46d79d1d6519" d="M70.71,58.29h-26.54v-7.85L76.18,5.82h9.96v41.09h7.94v11.38h-7.94v10.05h-15.43v-10.05ZM70.89,46.91v-14.02l-9.35,14.02h9.35Z"/>
      <path class="uuid-0b6750e1-afc1-4e0a-9ab3-46d79d1d6519" d="M100.25,63.93l2.73-11.99c3.53,1.68,6.35,2.82,10.49,2.82,7.14,0,11.64-2.29,11.64-8.02s-3.79-8.38-10.76-8.38c-3.44,0-9.17,2.03-12.08,3.62l2.29-36.42h33.77v11.99h-21.96l-.71,10.14c1.32-.44,4.32-.88,6.17-.88,12.35,0,20.02,6.88,20.02,20.28,0,12.08-8.82,20.63-23.54,20.63-6.97,0-13.67-1.59-18.08-3.79Z"/>
      <path class="uuid-0b6750e1-afc1-4e0a-9ab3-46d79d1d6519" d="M161.01,0c8.29,0,14.02,6.17,14.02,13.32,0,8.11-6.7,13.49-14.11,13.49-8.11,0-14.11-5.82-14.11-13.05,0-7.94,6.26-13.76,14.11-13.76h.09ZM160.75,6.26c-3.88,0-6.53,3.62-6.53,7.23,0,3.88,2.82,7.23,6.61,7.23s6.7-3.17,6.7-7.32c0-3.62-2.38-7.14-6.7-7.14h-.09Z"/>
    </g>
  </g>
</svg>