{
  "accessors": [
    {
      "bufferView": 0,
      "componentType": 5125,
      "count": 11820,
      "type": "SCALAR"
    },
    {
      "bufferView": 1,
      "componentType": 5126,
      "count": 3268,
      "max": [
        0.1861613306676173,
        0.17923955756970722,
        0.009999999747378752
      ],
      "min": [
        -0.1861613306676173,
        -0.17923955756970722,
        -0.009999999747378752
      ],
      "type": "VEC3"
    },
    {
      "bufferView": 2,
      "componentType": 5126,
      "count": 3268,
      "max": [
        0.999999999999951,
        0.999999999999951,
        1.0
      ],
      "min": [
        -0.999999999999951,
        -0.999999999999951,
        -1.0
      ],
      "type": "VEC3"
    },
    {
      "bufferView": 3,
      "componentType": 5126,
      "count": 3268,
      "max": [
        1.0,
        0.9716530218322487
      ],
      "min": [
        0.0,
        0.0
      ],
      "type": "VEC2"
    }
  ],
  "asset": {
    "generator": "Adobe Illustrator",
    "version": "2.0"
  },
  "bufferViews": [
    {
      "buffer": 0,
      "byteLength": 47280,
      "target": 34963
    },
    {
      "buffer": 0,
      "byteLength": 39216,
      "byteOffset": 47280,
      "target": 34962
    },
    {
      "buffer": 0,
      "byteLength": 39216,
      "byteOffset": 86496,
      "target": 34962
    },
    {
      "buffer": 0,
      "byteLength": 26144,
      "byteOffset": 125712,
      "target": 34962
    }
  ],
  "buffers": [
    {
      "byteLength": 151856,
      "uri": "data:application/octet-stream;base64,"
    }
  ],
  "materials": [
    {
      "doubleSided": true,
      "pbrMetallicRoughness": {
        "baseColorFactor": [
          0.640625,
          0.640625,
          0.640625,
          1.0
        ],
        "metallicFactor": 0.0,
        "roughnessFactor": 0.4000000059604645
      }
    }
  ],
  "meshes": [
    {
      "primitives": [
        {
          "attributes": {
            "NORMAL": 2,
            "POSITION": 1,
            "TEXCOORD_0": 3
          },
          "indices": 0,
          "material": 0,
          "mode": 4
        }
      ]
    }
  ],
  "nodes": [
    {
      "mesh": 0
    }
  ],
  "scenes": [
    {
      "nodes": [
        0
      ]
    }
  ]
}
