{
  "accessors": [
    {
      "bufferView": 0,
      "componentType": 5125,
      "count": 5868,
      "type": "SCALAR"
    },
    {
      "bufferView": 1,
      "componentType": 5126,
      "count": 1634,
      "max": [
        0.4105129288915359,
        0.287739738784786,
        0.013999999646330252
      ],
      "min": [
        -0.410512928891536,
        -0.28773973878478554,
        -0.013999999646330252
      ],
      "type": "VEC3"
    },
    {
      "bufferView": 2,
      "componentType": 5126,
      "count": 1634,
      "max": [
        1.0,
        1.0,
        1.0
      ],
      "min": [
        -1.0,
        -1.0,
        -1.0
      ],
      "type": "VEC3"
    },
    {
      "bufferView": 3,
      "componentType": 5126,
      "count": 1634,
      "max": [
        1.0,
        0.4278517764833636
      ],
      "min": [
        0.0,
        0.0
      ],
      "type": "VEC2"
    }
  ],
  "asset": {
    "generator": "Adobe Illustrator",
    "version": "2.0"
  },
  "bufferViews": [
    {
      "buffer": 0,
      "byteLength": 23472,
      "target": 34963
    },
    {
      "buffer": 0,
      "byteLength": 19608,
      "byteOffset": 23472,
      "target": 34962
    },
    {
      "buffer": 0,
      "byteLength": 19608,
      "byteOffset": 43080,
      "target": 34962
    },
    {
      "buffer": 0,
      "byteLength": 13072,
      "byteOffset": 62688,
      "target": 34962
    }
  ],
  "buffers": [
    {
      "byteLength": 75760,
      "uri": "data:application/octet-stream;base64,"
    }
  ],
  "materials": [
    {
      "doubleSided": true,
      "pbrMetallicRoughness": {
        "baseColorFactor": [
          0.640625,
          0.640625,
          0.640625,
          1.0
        ],
        "metallicFactor": 0.0,
        "roughnessFactor": 0.4000000059604645
      }
    }
  ],
  "meshes": [
    {
      "primitives": [
        {
          "attributes": {
            "NORMAL": 2,
            "POSITION": 1,
            "TEXCOORD_0": 3
          },
          "indices": 0,
          "material": 0,
          "mode": 4
        }
      ]
    }
  ],
  "nodes": [
    {
      "mesh": 0
    }
  ],
  "scenes": [
    {
      "nodes": [
        0
      ]
    }
  ]
}
