{
  "accessors": [
    {
      "bufferView": 0,
      "componentType": 5125,
      "count": 29616,
      "type": "SCALAR"
    },
    {
      "bufferView": 1,
      "componentType": 5126,
      "count": 8318,
      "max": [
        0.3265686929355742,
        0.3265687419022496,
        0.009999999747378748
      ],
      "min": [
        -0.3265686929355742,
        -0.3265687419022497,
        -0.009999999747378748
      ],
      "type": "VEC3"
    },
    {
      "bufferView": 2,
      "componentType": 5126,
      "count": 8318,
      "max": [
        1.0,
        1.0,
        1.0
      ],
      "min": [
        -1.0,
        -1.0,
        -1.0
      ],
      "type": "VEC3"
    },
    {
      "bufferView": 3,
      "componentType": 5126,
      "count": 8318,
      "max": [
        0.9994876200163739,
        1.0
      ],
      "min": [
        0.0,
        0.0
      ],
      "type": "VEC2"
    }
  ],
  "asset": {
    "generator": "Adobe Illustrator",
    "version": "2.0"
  },
  "bufferViews": [
    {
      "buffer": 0,
      "byteLength": 118464,
      "target": 34963
    },
    {
      "buffer": 0,
      "byteLength": 99816,
      "byteOffset": 118464,
      "target": 34962
    },
    {
      "buffer": 0,
      "byteLength": 99816,
      "byteOffset": 218280,
      "target": 34962
    },
    {
      "buffer": 0,
      "byteLength": 66544,
      "byteOffset": 318096,
      "target": 34962
    }
  ],
  "buffers": [
    {
      "byteLength": 384640,
      "uri": "data:application/octet-stream;base64,"
    }
  ],
  "materials": [
    {
      "doubleSided": true,
      "pbrMetallicRoughness": {
        "baseColorFactor": [
          0.640625,
          0.640625,
          0.640625,
          1.0
        ],
        "metallicFactor": 0.0,
        "roughnessFactor": 0.4000000059604645
      }
    }
  ],
  "meshes": [
    {
      "primitives": [
        {
          "attributes": {
            "NORMAL": 2,
            "POSITION": 1,
            "TEXCOORD_0": 3
          },
          "indices": 0,
          "material": 0,
          "mode": 4
        }
      ]
    }
  ],
  "nodes": [
    {
      "mesh": 0
    }
  ],
  "scenes": [
    {
      "nodes": [
        0
      ]
    }
  ]
}
