{
  "accessors": [
    {
      "bufferView": 0,
      "componentType": 5125,
      "count": 14376,
      "type": "SCALAR"
    },
    {
      "bufferView": 1,
      "componentType": 5126,
      "count": 4110,
      "max": [
        0.22086714534940033,
        0.29684091060814466,
        0.009999999747378745
      ],
      "min": [
        -0.22086714534940036,
        -0.29684091060814466,
        -0.009999999747378745
      ],
      "type": "VEC3"
    },
    {
      "bufferView": 2,
      "componentType": 5126,
      "count": 4110,
      "max": [
        1.0,
        1.0,
        1.0
      ],
      "min": [
        -1.0,
        -1.0,
        -1.0
      ],
      "type": "VEC3"
    },
    {
      "bufferView": 3,
      "componentType": 5126,
      "count": 4110,
      "max": [
        1.0,
        0.9757007476072971
      ],
      "min": [
        0.0,
        0.0
      ],
      "type": "VEC2"
    }
  ],
  "asset": {
    "generator": "Adobe Illustrator",
    "version": "2.0"
  },
  "bufferViews": [
    {
      "buffer": 0,
      "byteLength": 57504,
      "target": 34963
    },
    {
      "buffer": 0,
      "byteLength": 49320,
      "byteOffset": 57504,
      "target": 34962
    },
    {
      "buffer": 0,
      "byteLength": 49320,
      "byteOffset": 106824,
      "target": 34962
    },
    {
      "buffer": 0,
      "byteLength": 32880,
      "byteOffset": 156144,
      "target": 34962
    }
  ],
  "buffers": [
    {
      "byteLength": 189024,
      "uri": "data:application/octet-stream;base64,"
    }
  ],
  "materials": [
    {
      "doubleSided": true,
      "pbrMetallicRoughness": {
        "baseColorFactor": [
          0.640625,
          0.640625,
          0.640625,
          1.0
        ],
        "metallicFactor": 0.0,
        "roughnessFactor": 0.4000000059604645
      }
    }
  ],
  "meshes": [
    {
      "primitives": [
        {
          "attributes": {
            "NORMAL": 2,
            "POSITION": 1,
            "TEXCOORD_0": 3
          },
          "indices": 0,
          "material": 0,
          "mode": 4
        }
      ]
    }
  ],
  "nodes": [
    {
      "mesh": 0
    }
  ],
  "scenes": [
    {
      "nodes": [
        0
      ]
    }
  ]
}
