{
  "accessors": [
    {
      "bufferView": 0,
      "componentType": 5125,
      "count": 14172,
      "type": "SCALAR"
    },
    {
      "bufferView": 1,
      "componentType": 5126,
      "count": 4110,
      "max": [
        0.2572184384461108,
        0.25169364591546883,
        0.009999999747378746
      ],
      "min": [
        -0.25721843844611075,
        -0.25169364591546883,
        -0.009999999747378746
      ],
      "type": "VEC3"
    },
    {
      "bufferView": 2,
      "componentType": 5126,
      "count": 4110,
      "max": [
        1.0,
        1.0,
        1.0
      ],
      "min": [
        -1.0,
        -1.0,
        -1.0
      ],
      "type": "VEC3"
    },
    {
      "bufferView": 3,
      "componentType": 5126,
      "count": 4110,
      "max": [
        0.9998338795272391,
        1.0
      ],
      "min": [
        0.0,
        0.0
      ],
      "type": "VEC2"
    }
  ],
  "asset": {
    "generator": "Adobe Illustrator",
    "version": "2.0"
  },
  "bufferViews": [
    {
      "buffer": 0,
      "byteLength": 56688,
      "target": 34963
    },
    {
      "buffer": 0,
      "byteLength": 49320,
      "byteOffset": 56688,
      "target": 34962
    },
    {
      "buffer": 0,
      "byteLength": 49320,
      "byteOffset": 106008,
      "target": 34962
    },
    {
      "buffer": 0,
      "byteLength": 32880,
      "byteOffset": 155328,
      "target": 34962
    }
  ],
  "buffers": [
    {
      "byteLength": 188208,
      "uri": "data:application/octet-stream;base64,"
    }
  ],
  "materials": [
    {
      "doubleSided": true,
      "pbrMetallicRoughness": {
        "baseColorFactor": [
          0.640625,
          0.640625,
          0.640625,
          1.0
        ],
        "metallicFactor": 0.0,
        "roughnessFactor": 0.4000000059604645
      }
    }
  ],
  "meshes": [
    {
      "primitives": [
        {
          "attributes": {
            "NORMAL": 2,
            "POSITION": 1,
            "TEXCOORD_0": 3
          },
          "indices": 0,
          "material": 0,
          "mode": 4
        }
      ]
    }
  ],
  "nodes": [
    {
      "mesh": 0
    }
  ],
  "scenes": [
    {
      "nodes": [
        0
      ]
    }
  ]
}
