{
  "accessors": [
    {
      "bufferView": 0,
      "componentType": 5125,
      "count": 23496,
      "type": "SCALAR"
    },
    {
      "bufferView": 1,
      "componentType": 5126,
      "count": 6626,
      "max": [
        0.31414423046057516,
        0.314144279319708,
        0.009999999747378764
      ],
      "min": [
        -0.3141442304605748,
        -0.314144279319708,
        -0.009999999747378764
      ],
      "type": "VEC3"
    },
    {
      "bufferView": 2,
      "componentType": 5126,
      "count": 6626,
      "max": [
        1.0,
        1.0,
        1.0
      ],
      "min": [
        -1.0,
        -1.0,
        -1.0
      ],
      "type": "VEC3"
    },
    {
      "bufferView": 3,
      "componentType": 5126,
      "count": 6626,
      "max": [
        0.9998273356258214,
        1.0
      ],
      "min": [
        0.0,
        0.0
      ],
      "type": "VEC2"
    }
  ],
  "asset": {
    "generator": "Adobe Illustrator",
    "version": "2.0"
  },
  "bufferViews": [
    {
      "buffer": 0,
      "byteLength": 93984,
      "target": 34963
    },
    {
      "buffer": 0,
      "byteLength": 79512,
      "byteOffset": 93984,
      "target": 34962
    },
    {
      "buffer": 0,
      "byteLength": 79512,
      "byteOffset": 173496,
      "target": 34962
    },
    {
      "buffer": 0,
      "byteLength": 53008,
      "byteOffset": 253008,
      "target": 34962
    }
  ],
  "buffers": [
    {
      "byteLength": 306016,
      "uri": "data:application/octet-stream;base64,"
    }
  ],
  "materials": [
    {
      "doubleSided": true,
      "pbrMetallicRoughness": {
        "baseColorFactor": [
          0.640625,
          0.640625,
          0.640625,
          1.0
        ],
        "metallicFactor": 0.0,
        "roughnessFactor": 0.4000000059604645
      }
    }
  ],
  "meshes": [
    {
      "primitives": [
        {
          "attributes": {
            "NORMAL": 2,
            "POSITION": 1,
            "TEXCOORD_0": 3
          },
          "indices": 0,
          "material": 0,
          "mode": 4
        }
      ]
    }
  ],
  "nodes": [
    {
      "mesh": 0
    }
  ],
  "scenes": [
    {
      "nodes": [
        0
      ]
    }
  ]
}
